<?xml version="1.0" encoding="UTF-8" standalone="no"?>
<!DOCTYPE svg PUBLIC "-//W3C//DTD SVG 1.1//EN" "http://www.w3.org/Graphics/SVG/1.1/DTD/svg11.dtd">
<svg width="100%" height="100%" viewBox="0 0 1384 1384" version="1.1" xmlns="http://www.w3.org/2000/svg" xmlns:xlink="http://www.w3.org/1999/xlink" xml:space="preserve" xmlns:serif="http://www.serif.com/" style="fill-rule:evenodd;clip-rule:evenodd;stroke-linejoin:round;stroke-miterlimit:2;">
    <g transform="matrix(1,0,0,1,-587.238,-918.345)">
        <g transform="matrix(4.16667,0,0,4.16667,0,0)">
            <g transform="matrix(1,0,0,1,307,220.403)">
                <path d="M0,332.126C-22.418,332.126 -44.166,327.735 -64.64,319.075C-84.415,310.711 -102.174,298.737 -117.424,283.487C-132.675,268.237 -144.648,250.478 -153.012,230.703C-161.672,210.228 -166.063,188.481 -166.063,166.063C-166.063,143.645 -161.672,121.898 -153.012,101.423C-144.648,81.648 -132.675,63.889 -117.424,48.639C-102.174,33.388 -84.415,21.415 -64.64,13.051C-44.166,4.391 -22.418,0 0,0C22.418,0 44.165,4.391 64.64,13.051C84.415,21.415 102.174,33.388 117.424,48.639C132.675,63.889 144.648,81.648 153.012,101.423C161.672,121.898 166.063,143.645 166.063,166.063C166.063,188.481 161.672,210.228 153.012,230.703C144.648,250.478 132.675,268.237 117.424,283.487C102.174,298.737 84.415,310.711 64.64,319.075C44.165,327.735 22.418,332.126 0,332.126" style="fill:rgb(89,130,131);fill-rule:nonzero;"/>
            </g>
        </g>
        <g transform="matrix(4.16667,0,0,4.16667,0,0)">
            <g transform="matrix(0,-1,-1,0,307,222.429)">
                <path d="M-164.037,-164.037C-254.632,-164.037 -328.074,-90.595 -328.074,0C-328.074,90.595 -254.632,164.037 -164.037,164.037C-73.442,164.037 0,90.595 0,0C0,-90.595 -73.442,-164.037 -164.037,-164.037" style="fill:rgb(89,130,131);fill-rule:nonzero;"/>
            </g>
        </g>
        <g transform="matrix(4.16667,0,0,4.16667,0,0)">
            <g transform="matrix(194.142,174.089,174.089,-194.142,210.456,301.134)">
                <path d="M0.025,0.42C0.026,0.418 0.028,0.416 0.029,0.414C0.054,0.384 0.079,0.354 0.104,0.325C0.11,0.318 0.109,0.32 0.104,0.313C0.065,0.264 0.036,0.209 0.018,0.149C0.013,0.135 0.01,0.12 0.006,0.105C-0.038,0.108 -0.081,0.112 -0.124,0.116C-0.135,0.054 -0.137,-0.008 -0.13,-0.071C-0.086,-0.074 -0.042,-0.078 0.003,-0.082C0.003,-0.085 0.004,-0.087 0.004,-0.09C0.014,-0.141 0.031,-0.19 0.057,-0.236C0.065,-0.251 0.074,-0.265 0.083,-0.28C0.085,-0.282 0.086,-0.283 0.083,-0.285C0.075,-0.292 0.067,-0.299 0.059,-0.305C0.035,-0.325 0.012,-0.344 -0.011,-0.364C-0.013,-0.365 -0.014,-0.367 -0.012,-0.369C-0.004,-0.38 0.003,-0.39 0.012,-0.4C0.036,-0.429 0.063,-0.456 0.092,-0.481C0.1,-0.487 0.108,-0.493 0.117,-0.5C0.124,-0.494 0.131,-0.487 0.138,-0.482C0.151,-0.47 0.165,-0.459 0.178,-0.448C0.191,-0.438 0.203,-0.427 0.216,-0.417C0.218,-0.414 0.22,-0.414 0.223,-0.416C0.231,-0.421 0.238,-0.426 0.246,-0.43C0.281,-0.45 0.317,-0.466 0.356,-0.477C0.368,-0.48 0.38,-0.483 0.393,-0.486C0.389,-0.53 0.385,-0.573 0.381,-0.616C0.443,-0.627 0.505,-0.629 0.568,-0.622C0.568,-0.62 0.568,-0.618 0.569,-0.616C0.572,-0.575 0.576,-0.535 0.579,-0.494C0.58,-0.49 0.581,-0.489 0.585,-0.488C0.628,-0.48 0.67,-0.467 0.71,-0.448C0.719,-0.443 0.729,-0.438 0.738,-0.433C0.766,-0.467 0.794,-0.501 0.823,-0.534C0.876,-0.501 0.924,-0.462 0.965,-0.415C0.954,-0.401 0.944,-0.388 0.933,-0.375C0.916,-0.356 0.9,-0.336 0.884,-0.317C0.882,-0.315 0.881,-0.313 0.884,-0.31C0.891,-0.3 0.899,-0.29 0.906,-0.28C0.929,-0.246 0.948,-0.211 0.962,-0.173C0.963,-0.17 0.964,-0.168 0.968,-0.168C1.001,-0.171 1.034,-0.174 1.067,-0.177C1.077,-0.178 1.087,-0.179 1.097,-0.179C1.115,-0.119 1.124,-0.058 1.124,0.005C1.08,0.009 1.037,0.013 0.994,0.017C0.992,0.081 0.978,0.142 0.953,0.2C0.954,0.201 0.955,0.202 0.956,0.202C0.974,0.217 0.992,0.233 1.01,0.248C1.024,0.26 1.039,0.272 1.053,0.284C1.056,0.286 1.056,0.287 1.055,0.29C1.04,0.319 1.023,0.347 1.004,0.373C0.987,0.394 0.97,0.414 0.952,0.435C0.951,0.436 0.949,0.437 0.948,0.439C0.914,0.411 0.882,0.383 0.848,0.355C0.796,0.408 0.735,0.447 0.665,0.472C0.669,0.517 0.673,0.561 0.677,0.605C0.617,0.623 0.556,0.632 0.492,0.632C0.489,0.588 0.485,0.545 0.481,0.502C0.48,0.502 0.479,0.502 0.479,0.502C0.399,0.499 0.325,0.479 0.255,0.441C0.253,0.439 0.251,0.439 0.249,0.442C0.243,0.449 0.237,0.456 0.231,0.463C0.214,0.484 0.197,0.504 0.18,0.524C0.176,0.529 0.171,0.534 0.167,0.539C0.143,0.527 0.101,0.494 0.068,0.465C0.048,0.447 0.032,0.43 0.025,0.42ZM0.108,0.413C0.111,0.432 0.112,0.451 0.104,0.47C0.121,0.459 0.14,0.456 0.16,0.456C0.154,0.436 0.157,0.418 0.164,0.399C0.146,0.408 0.128,0.414 0.108,0.413ZM0.795,-0.344C0.606,-0.508 0.321,-0.49 0.154,-0.305C-0.016,-0.115 -0.002,0.174 0.188,0.344C0.377,0.514 0.662,0.496 0.829,0.317C1.007,0.127 0.991,-0.168 0.801,-0.339C0.799,-0.34 0.797,-0.342 0.795,-0.344ZM-0.09,0.02C-0.093,0.024 -0.097,0.027 -0.099,0.032C-0.102,0.038 -0.099,0.046 -0.094,0.051C-0.088,0.056 -0.08,0.057 -0.074,0.052C-0.064,0.046 -0.055,0.039 -0.046,0.031C-0.041,0.027 -0.037,0.021 -0.033,0.016C-0.047,0.005 -0.061,-0.007 -0.078,-0.013C-0.088,-0.017 -0.098,-0.013 -0.102,-0.004C-0.106,0.006 -0.101,0.015 -0.091,0.02C-0.09,0.02 -0.09,0.02 -0.09,0.02C-0.09,0.02 -0.09,0.02 -0.09,0.02ZM0.576,0.525C0.564,0.539 0.553,0.553 0.547,0.57C0.542,0.584 0.552,0.597 0.566,0.595C0.574,0.593 0.578,0.588 0.58,0.581C0.583,0.584 0.585,0.586 0.587,0.588C0.594,0.593 0.602,0.593 0.609,0.588C0.615,0.583 0.617,0.574 0.613,0.567C0.607,0.558 0.6,0.549 0.593,0.54C0.591,0.538 0.589,0.536 0.587,0.534C0.584,0.531 0.58,0.528 0.576,0.525ZM0.85,0.317C0.845,0.321 0.85,0.325 0.853,0.329C0.85,0.334 0.85,0.334 0.843,0.328C0.843,0.328 0.842,0.329 0.842,0.329C0.844,0.331 0.846,0.334 0.848,0.334C0.85,0.335 0.853,0.333 0.855,0.332C0.858,0.329 0.86,0.326 0.862,0.323C0.861,0.322 0.86,0.321 0.859,0.319C0.859,0.318 0.858,0.317 0.857,0.316C0.855,0.314 0.853,0.314 0.85,0.317ZM0.065,-0.425C0.076,-0.407 0.079,-0.389 0.079,-0.369C0.099,-0.374 0.117,-0.372 0.137,-0.365C0.127,-0.383 0.121,-0.401 0.122,-0.421C0.103,-0.418 0.084,-0.417 0.065,-0.425ZM0.919,0.29C0.929,0.307 0.935,0.325 0.933,0.345C0.953,0.342 0.971,0.341 0.991,0.349C0.979,0.332 0.977,0.313 0.976,0.294C0.957,0.299 0.939,0.296 0.919,0.29ZM0.47,-0.584C0.463,-0.587 0.457,-0.585 0.451,-0.58C0.446,-0.575 0.444,-0.568 0.447,-0.561C0.451,-0.554 0.456,-0.547 0.461,-0.54C0.467,-0.533 0.474,-0.527 0.48,-0.52C0.481,-0.519 0.482,-0.519 0.484,-0.517C0.495,-0.53 0.505,-0.544 0.512,-0.559C0.517,-0.569 0.516,-0.578 0.509,-0.583C0.499,-0.592 0.486,-0.587 0.481,-0.574C0.478,-0.576 0.476,-0.578 0.474,-0.58C0.473,-0.582 0.471,-0.583 0.47,-0.584ZM1.053,-0.121C1.045,-0.117 1.038,-0.111 1.031,-0.105C1.024,-0.1 1.018,-0.093 1.012,-0.087C1.01,-0.085 1.01,-0.083 1.012,-0.081C1.026,-0.071 1.038,-0.06 1.055,-0.054C1.063,-0.051 1.072,-0.054 1.076,-0.06C1.083,-0.069 1.08,-0.081 1.069,-0.086C1.068,-0.087 1.067,-0.087 1.066,-0.088C1.068,-0.089 1.07,-0.09 1.072,-0.092C1.078,-0.097 1.08,-0.106 1.075,-0.114C1.074,-0.115 1.073,-0.117 1.072,-0.118C1.067,-0.123 1.06,-0.124 1.053,-0.121ZM0.855,-0.449C0.846,-0.447 0.836,-0.447 0.827,-0.445C0.832,-0.427 0.829,-0.408 0.823,-0.389C0.855,-0.403 0.855,-0.403 0.878,-0.404C0.875,-0.423 0.874,-0.442 0.881,-0.459C0.873,-0.456 0.864,-0.452 0.855,-0.449Z" style="fill:url(#_Linear1);fill-rule:nonzero;"/>
            </g>
        </g>
        <g transform="matrix(4.16667,0,0,4.16667,0,0)">
            <g transform="matrix(1,0,0,1,245.615,520.972)">
                <path d="M0,4.607C-3.595,3.752 -5.017,2.482 -5.144,0.096C-5.251,-1.891 -4.051,-3.833 -2.131,-4.39C1.309,-5.387 3.222,-3.247 5.044,-0.43C5.692,-3.48 6.283,-6.259 6.901,-9.162C8.246,-8.651 9.603,-8.134 10.977,-7.612C9.464,-5.008 8.014,-2.512 6.611,-0.097C8.246,-0.165 9.76,-0.401 11.232,-0.247C13.272,-0.033 14.698,1.379 15.04,3.235C15.378,5.066 14.864,6.661 13.334,7.777C11.677,8.985 9.912,9.004 8.142,7.963C7.802,7.763 7.465,7.558 7.01,7.285C6.959,10.121 6.422,12.558 3.312,13.336C1.581,13.769 -0.3,13.094 -1.314,11.594C-3.133,8.904 -1.937,6.679 0,4.607" style="fill:white;fill-rule:nonzero;"/>
            </g>
        </g>
        <g transform="matrix(4.16667,0,0,4.16667,0,0)">
            <g transform="matrix(1,0,0,1,371.594,244.643)">
                <path d="M0,22.384C-1.349,21.714 -2.595,21.096 -3.919,20.439C-2.172,17.99 -0.471,15.604 1.196,13.267C-0.263,13.267 -1.61,13.393 -2.923,13.238C-4.996,12.993 -6.485,11.555 -6.875,9.688C-7.267,7.811 -6.447,5.887 -4.837,4.903C-3.107,3.845 -1.168,4.003 0.569,5.348C0.81,5.534 1.044,5.73 1.444,6.053C1.726,3.192 2.492,0.782 5.635,0.3C7.594,0 9.448,0.967 10.247,2.675C11.548,5.454 10.259,7.515 8.101,9.287C11.519,10.313 12.851,11.697 12.842,14.105C12.835,16.133 11.521,17.873 9.588,18.417C6.978,19.152 5.227,18.065 2.631,13.949C1.731,16.834 0.886,19.545 0,22.384" style="fill:white;fill-rule:nonzero;"/>
            </g>
        </g>
        <g transform="matrix(4.16667,0,0,4.16667,0,0)">
            <g transform="matrix(1,0,0,1,432.892,461.133)">
                <path d="M0,-3.844C0.178,-5.454 0.174,-6.816 0.505,-8.091C1.059,-10.221 2.687,-11.485 4.64,-11.59C6.529,-11.691 8.23,-10.683 9.003,-9.003C9.86,-7.141 9.506,-5.301 7.95,-3.696C7.739,-3.479 7.42,-3.365 7.207,-3.06C10.1,-2.316 12.444,-1.243 12.45,2.121C12.453,3.923 11.278,5.617 9.626,6.19C6.718,7.198 4.831,5.713 3.214,3.292C2.36,6.072 0.832,7.847 -2.149,7.545C-4.075,7.351 -5.69,5.819 -5.943,4.027C-6.484,0.191 -3.837,-1.265 -0.682,-2.573C-3.52,-3.783 -6.147,-4.903 -8.901,-6.077C-8.14,-7.284 -7.388,-8.479 -6.559,-9.797C-4.335,-7.778 -2.167,-5.811 0,-3.844" style="fill:white;fill-rule:nonzero;"/>
            </g>
        </g>
        <g transform="matrix(4.16667,0,0,4.16667,0,0)">
            <g transform="matrix(1,0,0,1,178.523,449.41)">
                <path d="M0,-3.039C2.133,-4.543 3.998,-5.858 6.006,-7.274C6.536,-6.229 7.049,-5.219 7.606,-4.121C5.207,-3.369 2.929,-2.654 0.359,-1.848C1.175,-1.474 1.718,-1.287 2.196,-0.995C3.891,0.038 4.666,1.966 4.211,3.909C3.76,5.842 1.991,7.461 -0.253,7.345C-4.058,7.147 -7.848,6.638 -11.636,6.185C-12.91,6.033 -14.158,5.656 -15.579,5.347C-13.428,0.663 -11.39,-3.886 -8.078,-7.698C-6.084,-9.994 -3.998,-10.5 -1.884,-9.359C0.153,-8.259 0.811,-6.283 0,-3.039" style="fill:white;fill-rule:nonzero;"/>
            </g>
        </g>
        <g transform="matrix(4.16667,0,0,4.16667,0,0)">
            <g transform="matrix(1,0,0,1,254.839,245.393)">
                <path d="M0,9.399C1.048,11.421 2.116,13.483 3.256,15.683C2.142,16.063 1.063,16.432 -0.109,16.832C-0.512,14.367 -0.898,12.001 -1.343,9.278C-2.27,11.028 -3.222,12.215 -4.913,12.555C-7.747,13.125 -10.312,11.132 -10.357,8.245C-10.42,4.199 -8.993,0.473 -7.774,-3.289C-7.334,-4.649 -6.783,-5.972 -6.237,-7.433C-1.782,-4.56 2.566,-1.832 5.94,2.148C7.156,3.583 7.692,5.192 7.01,7.031C6.373,8.75 5.088,9.801 3.28,9.912C2.251,9.975 1.195,9.602 0,9.399" style="fill:white;fill-rule:nonzero;"/>
            </g>
        </g>
        <g transform="matrix(4.16667,0,0,4.16667,0,0)">
            <g transform="matrix(1,0,0,1,444.076,345.77)">
                <path d="M0,2.109C-2.353,3.111 -4.493,4.023 -6.733,4.977C-7.024,3.803 -7.299,2.696 -7.581,1.559C-5.099,1.327 -2.733,1.105 -0.034,0.852C-0.582,0.472 -0.889,0.27 -1.185,0.052C-2.811,-1.147 -3.436,-3.07 -2.827,-4.983C-2.24,-6.83 -0.637,-8.231 1.318,-7.997C3.749,-7.705 6.187,-7.154 8.514,-6.386C11.365,-5.447 14.104,-4.167 17.166,-2.923C15.552,-0.876 14.209,1.079 12.607,2.792C10.646,4.888 8.595,6.942 6.348,8.716C4.291,10.34 2.073,10.086 0.438,8.536C-1.203,6.981 -1.404,4.902 -0.137,2.624C-0.098,2.555 -0.093,2.466 0,2.109" style="fill:white;fill-rule:nonzero;"/>
            </g>
        </g>
        <g transform="matrix(4.16667,0,0,4.16667,0,0)">
            <g transform="matrix(1,0,0,1,361.244,514.994)">
                <path d="M0,23.781C-3.266,21.837 -6.384,20.073 -9.398,18.146C-10.788,17.257 -12.06,16.136 -13.234,14.968C-14.984,13.227 -15.19,10.99 -13.969,9.058C-12.867,7.313 -10.81,6.69 -8.487,7.394C-8.365,7.431 -8.238,7.454 -7.731,7.575C-9.124,5.392 -10.359,3.457 -11.641,1.447C-10.578,0.972 -9.524,0.5 -8.406,0C-7.771,2.409 -7.169,4.695 -6.484,7.295C-6.188,6.731 -6.032,6.444 -5.884,6.152C-4.926,4.258 -2.969,3.26 -0.964,3.646C0.991,4.022 2.449,5.602 2.646,7.677C2.982,11.229 2.186,14.663 1.433,18.091C1.041,19.88 0.542,21.645 0,23.781" style="fill:white;fill-rule:nonzero;"/>
            </g>
        </g>
        <g transform="matrix(4.16667,0,0,4.16667,0,0)">
            <g transform="matrix(1,0,0,1,206.92,274.893)">
                <path d="M0,17.461C-4.752,17.188 -9.435,16.988 -13.869,15.262C-16.626,14.189 -17.838,11.651 -16.901,9.224C-15.919,6.678 -13.568,5.693 -10.684,6.616C-10.562,6.656 -10.438,6.69 -10.52,6.666C-10.415,5.388 -10.529,4.026 -10.152,2.817C-9.608,1.071 -7.734,0 -5.899,0.064C-3.763,0.138 -2.159,1.261 -1.644,3.231C-0.885,6.131 -0.424,9.122 -0.04,12.1C0.181,13.816 0,15.583 0,17.461" style="fill:white;fill-rule:nonzero;"/>
            </g>
        </g>
        <g transform="matrix(4.16667,0,0,4.16667,0,0)">
            <g transform="matrix(1,0,0,1,402.09,500.434)">
                <path d="M0,3.289C0.18,3.939 0.391,4.473 0.47,5.027C0.782,7.232 -0.532,9.297 -2.637,9.978C-4.865,10.698 -7.281,9.816 -8.124,7.54C-8.943,5.33 -9.404,2.958 -9.766,0.617C-10.116,-1.645 -10.112,-3.961 -10.321,-6.247C-10.393,-7.041 -10.056,-7.409 -9.354,-7.337C-4.978,-6.883 -0.521,-6.885 3.645,-5.179C5.889,-4.26 7.177,-2.285 6.895,-0.269C6.48,2.689 3.807,4.419 0.952,3.576C0.667,3.492 0.383,3.405 0,3.289" style="fill:white;fill-rule:nonzero;"/>
            </g>
        </g>
        <g transform="matrix(4.16667,0,0,4.16667,0,0)">
            <g transform="matrix(1,0,0,1,413.572,281.52)">
                <path d="M0,18.029C0.291,13.236 0.553,8.551 2.33,4.155C3.798,0.52 8.075,-0.205 10.341,2.693C11.603,4.308 11.498,6.084 10.7,7.9C11.617,7.794 12.457,7.557 13.269,7.631C15.412,7.825 17.024,9.411 17.373,11.492C17.696,13.412 16.662,15.689 14.672,16.275C11.894,17.094 9.003,17.604 6.125,17.981C4.187,18.234 2.189,18.029 0,18.029" style="fill:white;fill-rule:nonzero;"/>
            </g>
        </g>
        <g transform="matrix(4.16667,0,0,4.16667,0,0)">
            <g transform="matrix(1,0,0,1,214.259,503.002)">
                <path d="M0,-17.211C-0.068,-12.718 -0.357,-8.408 -1.591,-4.229C-2.446,-1.332 -4.198,0.111 -6.467,0.038C-9.92,-0.073 -11.744,-3.283 -10.405,-6.75C-11.67,-6.75 -13.039,-6.48 -14.242,-6.813C-16.026,-7.306 -17.024,-8.751 -17.176,-10.638C-17.338,-12.645 -16.521,-14.314 -14.696,-15.043C-12.673,-15.851 -10.507,-16.407 -8.352,-16.752C-6.004,-17.129 -3.597,-17.144 -1.215,-17.3C-0.868,-17.322 -0.516,-17.252 0,-17.211" style="fill:white;fill-rule:nonzero;"/>
            </g>
        </g>
        <g transform="matrix(4.16667,0,0,4.16667,0,0)">
            <g transform="matrix(-0.999421,-0.0340288,-0.0340288,0.999421,311.197,252.227)">
                <path d="M-0.413,-24.384C-2.067,-19.096 -5.322,-15.439 -9.208,-12.119C-4.88,-9.135 -2.41,-4.915 -0.413,0.007C1.563,-4.923 4.048,-9.131 8.375,-12.097C4.505,-15.452 1.204,-19.076 -0.413,-24.384" style="fill:white;fill-rule:nonzero;"/>
            </g>
        </g>
        <g transform="matrix(4.16667,0,0,4.16667,0,0)">
            <g transform="matrix(0.0338434,-0.999427,-0.999427,-0.0338434,162.084,383.253)">
                <path d="M-12.19,-11.768C-14.142,-6.772 -16.655,-2.583 -20.957,0.442C-17.045,3.742 -13.845,7.393 -12.19,12.609C-10.506,7.422 -7.312,3.709 -3.407,0.426C-7.702,-2.622 -10.251,-6.798 -12.19,-11.768" style="fill:white;fill-rule:nonzero;"/>
            </g>
        </g>
        <g transform="matrix(4.16667,0,0,4.16667,0,0)">
            <g transform="matrix(1,0,0,1,302.459,543.635)">
                <path d="M0,-23.588C3.771,-15.456 3.771,-15.456 8.196,-11.186C4.294,-8.084 0.871,-4.582 -0.786,0C-1.925,-2.126 -2.921,-4.402 -4.292,-6.424C-5.643,-8.417 -7.374,-10.151 -9.008,-12.081C-4.782,-14.777 -2.097,-18.815 0,-23.588" style="fill:white;fill-rule:nonzero;"/>
            </g>
        </g>
        <g transform="matrix(4.16667,0,0,4.16667,0,0)">
            <g transform="matrix(-0.0339732,0.999423,0.999423,0.0339732,452.266,393.274)">
                <path d="M12.118,-12.511C10.163,-7.589 7.708,-3.397 3.372,-0.407C7.238,2.879 10.48,6.548 12.118,11.714C13.76,6.568 16.951,2.922 20.838,-0.375C16.597,-3.389 14.043,-7.549 12.118,-12.511" style="fill:white;fill-rule:nonzero;"/>
            </g>
        </g>
        <g transform="matrix(4.16667,0,0,4.16667,0,0)">
            <g transform="matrix(1,0,0,1,307.247,255.958)">
                <path d="M0,261.614C-34.94,261.614 -67.788,248.008 -92.495,223.301C-117.201,198.595 -130.807,165.747 -130.807,130.807C-130.807,95.867 -117.201,63.018 -92.495,38.312C-67.788,13.606 -34.94,0 0,0C34.94,0 67.788,13.606 92.495,38.312C117.201,63.018 130.807,95.867 130.807,130.807C130.807,165.747 117.201,198.595 92.495,223.301C67.788,248.008 34.94,261.614 0,261.614" style="fill:white;fill-rule:nonzero;"/>
            </g>
        </g>
        <g transform="matrix(4.16667,0,0,4.16667,0,0)">
            <g transform="matrix(1,0,0,1,307.247,494.068)">
                <path d="M0,-214.606C-28.662,-214.606 -55.608,-203.444 -75.875,-183.178C-96.142,-162.911 -107.303,-135.965 -107.303,-107.303C-107.303,-78.641 -96.142,-51.694 -75.875,-31.428C-55.608,-11.161 -28.661,0 0,0C28.661,0 55.607,-11.161 75.875,-31.428C96.141,-51.695 107.303,-78.641 107.303,-107.303C107.303,-135.964 96.141,-162.911 75.875,-183.178C55.608,-203.444 28.662,-214.606 0,-214.606M0,5.268C-30.069,5.268 -58.338,-6.441 -79.6,-27.703C-100.862,-48.965 -112.571,-77.234 -112.571,-107.303C-112.571,-137.372 -100.862,-165.641 -79.6,-186.903C-58.338,-208.165 -30.069,-219.874 0,-219.874C30.069,-219.874 58.338,-208.165 79.6,-186.903C100.862,-165.641 112.571,-137.372 112.571,-107.303C112.571,-77.234 100.862,-48.965 79.6,-27.703C58.338,-6.441 30.069,5.268 0,5.268" style="fill:rgb(237,238,239);fill-rule:nonzero;"/>
            </g>
        </g>
        <g transform="matrix(4.16667,0,0,4.16667,0,0)">
            <g transform="matrix(1,0,0,1,384.555,309.458)">
                <path d="M0,154.614C-20.65,175.264 -48.105,186.636 -77.308,186.636C-106.511,186.636 -133.966,175.264 -154.615,154.614C-175.265,133.965 -186.637,106.51 -186.637,77.307C-186.637,48.104 -175.265,20.649 -154.616,-0.001C-133.966,-20.65 -106.511,-32.023 -77.308,-32.023C-48.105,-32.023 -20.65,-20.65 0,-0.001C20.65,20.649 32.022,48.104 32.022,77.307C32.022,106.509 20.65,133.964 0,154.614M0.86,-0.861C-20.02,-21.74 -47.78,-33.238 -77.308,-33.238C-106.835,-33.238 -134.596,-21.74 -155.475,-0.861C-176.354,20.019 -187.853,47.779 -187.853,77.307C-187.853,106.834 -176.354,134.595 -155.475,155.474C-134.596,176.353 -106.835,187.852 -77.308,187.852C-47.78,187.852 -20.02,176.353 0.86,155.474C21.739,134.594 33.237,106.834 33.237,77.307C33.237,47.779 21.739,20.019 0.86,-0.861" style="fill:rgb(78,117,116);fill-rule:nonzero;"/>
            </g>
        </g>
        <g transform="matrix(4.16667,0,0,4.16667,0,0)">
            <g transform="matrix(251.078,0,0,-251.078,181.708,386.764)">
                <path d="M0.146,0.354C0.052,0.259 -0,0.134 -0,-0C-0,-0.134 0.052,-0.259 0.146,-0.354C0.241,-0.448 0.366,-0.5 0.5,-0.5C0.634,-0.5 0.759,-0.448 0.854,-0.354C0.948,-0.259 1,-0.134 1,-0C1,0.134 0.948,0.259 0.854,0.354C0.759,0.448 0.634,0.5 0.5,0.5C0.366,0.5 0.241,0.448 0.146,0.354ZM0.169,-0.331C0.081,-0.242 0.032,-0.125 0.032,-0C0.032,0.125 0.081,0.242 0.169,0.331C0.258,0.419 0.375,0.468 0.5,0.468C0.625,0.468 0.742,0.419 0.831,0.331C0.919,0.242 0.968,0.125 0.968,-0C0.968,-0.125 0.919,-0.242 0.831,-0.331C0.742,-0.419 0.625,-0.468 0.5,-0.468C0.375,-0.468 0.258,-0.419 0.169,-0.331Z" style="fill:url(#_Linear2);fill-rule:nonzero;"/>
            </g>
        </g>
        <g transform="matrix(4.16667,0,0,4.16667,0,0)">
            <g transform="matrix(1,0,0,1,181.434,334.243)">
                <path d="M0,3.221C-0.516,4.636 -0.992,5.943 -1.498,7.331C-4.125,5.868 -6.686,4.442 -9.194,3.045C-9.032,4.495 -8.757,5.819 -8.765,7.142C-8.778,9.229 -10.042,10.869 -11.854,11.464C-13.675,12.061 -15.679,11.46 -16.836,9.97C-18.08,8.367 -18.137,6.423 -16.994,4.547C-16.835,4.287 -16.667,4.033 -16.391,3.599C-19.265,3.638 -21.745,3.143 -22.573,0.073C-23.089,-1.84 -22.334,-3.79 -20.725,-4.774C-18.107,-6.375 -15.917,-5.323 -13.916,-3.376C-13.275,-6.886 -12.048,-8.363 -9.654,-8.622C-7.638,-8.84 -5.762,-7.728 -5.007,-5.867C-3.987,-3.355 -4.873,-1.494 -8.675,1.543C-5.708,2.117 -2.92,2.656 0,3.221" style="fill:white;fill-rule:nonzero;"/>
            </g>
        </g>
        <g transform="matrix(4.16667,0,0,4.16667,0,0)">
            <g transform="matrix(0.051379,-0.998679,-0.998679,-0.051379,471.262,345.968)">
                <path d="M-2.368,-1.887C-2.642,-0.497 -2.914,0.893 -3.187,2.282C-2.914,2.346 -2.641,2.41 -2.368,2.473C-1.969,1.122 -1.57,-0.23 -1.172,-1.581C-1.57,-1.682 -1.969,-1.785 -2.368,-1.887" style="fill:white;fill-rule:nonzero;"/>
            </g>
        </g>
        <g transform="matrix(4.16667,0,0,4.16667,0,0)">
            <g transform="matrix(1,0,0,1,181.558,333.937)">
                <path d="M0,3.557C-0.525,4.983 -1.002,6.279 -1.502,7.639C-4.101,6.198 -6.619,4.801 -9.126,3.41C-8.998,5.011 -8.717,6.434 -8.808,7.834C-8.975,10.397 -11.107,12.189 -13.569,11.937C-14.012,11.892 -14.63,11.426 -14.781,11.013C-15.488,9.071 -16.079,7.084 -16.665,5.1C-16.767,4.756 -16.644,4.346 -16.62,3.87C-19.327,3.967 -21.763,3.429 -22.578,0.333C-23.091,-1.614 -22.287,-3.586 -20.566,-4.554C-18.017,-5.988 -15.897,-4.978 -13.862,-3.04C-13.778,-3.556 -13.711,-3.925 -13.659,-4.297C-13.379,-6.286 -12.153,-7.712 -10.219,-8.183C-8.375,-8.632 -6.801,-8.071 -5.636,-6.609C-4.39,-5.045 -4.212,-3.228 -5.28,-1.567C-6.102,-0.289 -7.303,0.747 -8.367,1.925C-5.742,2.437 -2.981,2.976 0,3.557" style="fill:white;fill-rule:nonzero;"/>
            </g>
        </g>
        <g transform="matrix(4.16667,0,0,4.16667,0,0)">
            <g transform="matrix(1,0,0,1,399.475,424.384)">
                <path d="M0,-74.273C4.261,-63.587 6.559,-52.483 6.916,-40.972C7.497,-22.273 3.271,-4.739 -5.979,11.51C-15.134,27.591 -27.871,40.134 -44.002,49.219C-52.949,54.257 -62.466,57.786 -72.52,59.805C-88.161,62.946 -103.704,62.432 -119.095,58.186C-135.744,53.594 -150.22,45.172 -162.448,33.014C-177.644,17.906 -187.185,-0.27 -190.576,-21.433C-194.393,-45.261 -190.239,-67.759 -177.876,-88.551C-167.926,-105.286 -154.108,-117.986 -136.68,-126.686C-121.017,-134.506 -104.377,-137.903 -86.932,-136.873C-63.015,-135.462 -42.191,-126.566 -24.582,-110.277C-15.548,-101.92 -8.402,-92.149 -2.991,-81.102C-2.82,-80.753 -2.692,-80.384 -2.52,-79.966C-2.89,-80.006 -0.588,-75.749 0,-74.273M-96.895,75.132C-161.539,72.472 -205.025,18.761 -205.262,-35.176C-203.765,-35.609 -203.753,-35.59 -203.707,-34.074C-203.066,-12.947 -196.862,6.437 -185.132,23.982C-171.823,43.888 -153.885,58.094 -131.487,66.582C-117.217,71.99 -102.401,74.286 -87.177,73.493C-60.927,72.127 -37.84,62.741 -18.265,45.202C0.892,28.038 12.804,6.669 17.163,-18.718C21.391,-43.341 17.73,-66.848 6.243,-89.051C-0.981,-103.015 -10.824,-114.88 -23.131,-124.684C-37.73,-136.314 -54.208,-143.903 -72.578,-147.139C-97.89,-151.597 -122.07,-148.007 -144.781,-135.872C-166.899,-124.054 -183.225,-106.627 -193.77,-83.864C-199.317,-71.891 -202.513,-59.281 -203.464,-46.113C-203.587,-44.408 -203.681,-42.701 -203.797,-40.858C-204.337,-40.816 -204.769,-40.782 -205.206,-40.748C-204.954,-90.958 -165.756,-143.572 -104.022,-149.868C-37.283,-156.674 18.14,-105.469 20.368,-41.761C22.685,24.481 -31.538,77.822 -96.895,75.132M-204.434,-37.958C-204.137,-37.931 -203.874,-37.539 -203.326,-37.095C-203.92,-36.575 -204.285,-36.255 -204.65,-35.936C-204.883,-36.232 -205.251,-36.5 -205.32,-36.83C-205.453,-37.466 -205.189,-38.027 -204.434,-37.958M-204.64,-40.119C-204.372,-40.148 -204.055,-39.717 -203.76,-39.497C-204.144,-39.078 -204.528,-38.658 -204.912,-38.239C-205.035,-38.342 -205.157,-38.445 -205.28,-38.548C-205.278,-39.154 -205.82,-39.991 -204.64,-40.119M27.134,-40.348C25.781,-104.328 -26.29,-157.348 -92.536,-157.28C-159.104,-157.211 -212.154,-103.786 -212.137,-37.322C-212.059,27.743 -159.727,80.863 -94.51,81.949C-26.962,83.075 28.582,28.092 27.134,-40.348" style="fill:white;fill-rule:nonzero;"/>
            </g>
        </g>
        <g transform="matrix(4.16667,0,0,4.16667,0,0)">
            <g transform="matrix(1,0,0,1,355.07,320.605)">
                <path d="M0,129.178C-1.974,130.507 -3.93,131.961 -6.013,133.2C-14.104,138.012 -22.848,140.969 -32.152,142.39C-37.613,143.225 -43.101,143.325 -48.571,143.029C-62.599,142.271 -75.884,138.801 -88.038,131.535C-101.092,123.731 -110.606,112.815 -116.749,98.922C-119.924,91.738 -121.867,84.218 -122.83,76.448C-123.576,70.426 -123.687,64.357 -123.315,58.312C-122.36,42.793 -117.712,28.53 -108.339,15.98C-99.692,4.401 -88.338,-3.532 -74.901,-8.617C-68.491,-11.042 -61.875,-12.671 -55.056,-13.256C-49.924,-13.696 -44.742,-14.147 -39.612,-13.921C-26.562,-13.346 -14.32,-9.918 -3.443,-2.388C-2.376,-1.649 -1.4,-0.778 -0.378,0.027C-0.189,0.177 0.014,0.308 0.262,0.484C-0.063,0.862 -0.252,1.114 -0.473,1.335C-7.523,8.388 -14.589,15.424 -21.608,22.507C-22.383,23.288 -22.872,23.413 -23.808,22.737C-28.755,19.167 -34.301,17.206 -40.372,16.518C-50.583,15.359 -60.119,17.179 -68.791,22.775C-79.077,29.413 -85.242,38.967 -88.128,50.746C-89.352,55.737 -89.927,60.812 -89.803,65.947C-89.5,78.455 -85.767,89.745 -77.573,99.345C-71.61,106.331 -64.01,110.684 -55.019,112.459C-47.073,114.028 -39.225,113.527 -31.753,110.233C-29.251,109.13 -27.017,107.418 -24.667,105.974C-24.329,105.766 -24.027,105.502 -23.764,105.305C-15.864,113.241 -8.034,121.107 0,129.178" style="fill:rgb(89,130,131);fill-rule:nonzero;"/>
            </g>
        </g>
        <g transform="matrix(4.16667,0,0,4.16667,0,0)">
            <g transform="matrix(1,0,0,1,276.261,309.6)">
                <path d="M0,147.629L24.246,88.115L-13.53,93.128L51.108,-2.204L54.289,-0.803L31.589,61.07L76.264,53.903L3.243,149.833L0,147.629Z" style="fill:white;fill-rule:nonzero;"/>
            </g>
        </g>
        <g transform="matrix(4.16667,0,0,4.16667,0,0)">
            <g transform="matrix(1,0,0,1,278.723,310.155)">
                <path d="M0,146.33C8.249,126.081 16.499,105.833 24.936,85.124C12.549,86.767 0.531,88.362 -11.834,90.003C8.69,59.733 29.018,29.752 49.345,-0.229C49.458,-0.176 49.57,-0.124 49.683,-0.072C41.864,20.805 34.045,41.681 26.048,63.033C40.539,60.709 54.618,58.45 69.183,56.113C46.019,86.544 23.178,116.552 0.337,146.559C0.224,146.483 0.112,146.406 0,146.33" style="fill:rgb(89,130,131);fill-rule:nonzero;"/>
            </g>
        </g>
        <g transform="matrix(4.16667,0,0,4.16667,0,0)">
            <g transform="matrix(1,0,0,1,384.295,307.897)">
                <path d="M0,154.615C-20.65,175.264 -48.105,186.637 -77.308,186.637C-106.51,186.637 -133.966,175.264 -154.615,154.615C-175.265,133.966 -186.637,106.511 -186.637,77.308C-186.637,48.105 -175.265,20.65 -154.615,0C-133.966,-20.649 -106.511,-32.022 -77.308,-32.022C-48.104,-32.022 -20.649,-20.649 0,0C20.65,20.65 32.022,48.105 32.022,77.308C32.022,106.51 20.65,133.965 0,154.615M0.86,-0.86C-20.019,-21.739 -47.78,-33.238 -77.308,-33.238C-106.835,-33.238 -134.596,-21.739 -155.475,-0.86C-176.354,20.019 -187.853,47.78 -187.853,77.308C-187.853,106.835 -176.354,134.596 -155.475,155.475C-134.596,176.354 -106.835,187.853 -77.308,187.853C-47.78,187.853 -20.02,176.354 0.86,155.475C21.739,134.595 33.237,106.835 33.237,77.308C33.237,47.78 21.739,20.02 0.86,-0.86" style="fill:rgb(78,117,116);fill-rule:nonzero;"/>
            </g>
        </g>
        <g transform="matrix(4.16667,0,0,4.16667,0,0)">
            <g transform="matrix(-0.556806,0.830643,0.830643,0.556806,301.022,400.654)">
                <path d="M-49.347,-26.329L14.048,-26.33L-1.792,-9.154L8.966,-24.162L-49.347,-26.329Z" style="fill:white;fill-rule:nonzero;"/>
            </g>
        </g>
        <g transform="matrix(4.16667,0,0,4.16667,0,0)">
            <g transform="matrix(0.590874,-0.806764,-0.806764,-0.590874,332.586,426.029)">
                <path d="M-13.102,25.837L50.948,25.837L34.091,42.636L45.963,28.217L-13.102,25.837Z" style="fill:white;fill-rule:nonzero;"/>
            </g>
        </g>
    </g>
    <defs>
        <linearGradient id="_Linear1" x1="0" y1="0" x2="1" y2="0" gradientUnits="userSpaceOnUse" gradientTransform="matrix(1,0,0,-1,0,0.00275698)"><stop offset="0" style="stop-color:rgb(250,186,46);stop-opacity:1"/><stop offset="1" style="stop-color:rgb(250,169,25);stop-opacity:1"/></linearGradient>
        <linearGradient id="_Linear2" x1="0" y1="0" x2="1" y2="0" gradientUnits="userSpaceOnUse" gradientTransform="matrix(1,0,0,-1,0,-2.39766e-06)"><stop offset="0" style="stop-color:rgb(250,186,46);stop-opacity:1"/><stop offset="1" style="stop-color:rgb(250,169,25);stop-opacity:1"/></linearGradient>
    </defs>
</svg>
