<?xml version="1.0" encoding="UTF-8" standalone="no"?>
<!DOCTYPE svg PUBLIC "-//W3C//DTD SVG 1.1//EN" "http://www.w3.org/Graphics/SVG/1.1/DTD/svg11.dtd">
<svg width="100%" height="100%" viewBox="0 0 2196 2196" version="1.1" xmlns="http://www.w3.org/2000/svg" xmlns:xlink="http://www.w3.org/1999/xlink" xml:space="preserve" xmlns:serif="http://www.serif.com/" style="fill-rule:evenodd;clip-rule:evenodd;stroke-linejoin:round;stroke-miterlimit:2;">
    <g transform="matrix(1,0,0,1,-179.944,-553.908)">
        <g transform="matrix(4.16667,0,0,4.16667,0,0)">
            <g transform="matrix(1,0,0,1,307,220.403)">
                <path d="M0,332.126C-22.417,332.126 -44.166,327.735 -64.64,319.075C-84.415,310.711 -102.174,298.738 -117.424,283.487C-132.675,268.237 -144.648,250.478 -153.012,230.703C-161.672,210.228 -166.063,188.481 -166.063,166.063C-166.063,143.645 -161.672,121.898 -153.012,101.423C-144.648,81.648 -132.675,63.889 -117.424,48.639C-102.174,33.388 -84.415,21.415 -64.64,13.051C-44.166,4.391 -22.417,0 0,0C22.418,0 44.165,4.391 64.64,13.051C84.415,21.415 102.174,33.388 117.424,48.639C132.675,63.889 144.648,81.648 153.012,101.423C161.672,121.898 166.063,143.645 166.063,166.063C166.063,188.481 161.672,210.228 153.012,230.703C144.648,250.478 132.675,268.237 117.424,283.487C102.174,298.738 84.415,310.711 64.64,319.075C44.165,327.735 22.418,332.126 0,332.126" style="fill:rgb(89,130,131);fill-rule:nonzero;"/>
            </g>
        </g>
        <g transform="matrix(4.16667,0,0,4.16667,0,0)">
            <g transform="matrix(0,-1,-1,0,307,222.429)">
                <path d="M-164.037,-164.037C-254.632,-164.037 -328.074,-90.595 -328.074,0C-328.074,90.595 -254.632,164.037 -164.037,164.037C-73.442,164.037 0,90.595 0,0C0,-90.595 -73.442,-164.037 -164.037,-164.037" style="fill:rgb(89,130,131);fill-rule:nonzero;"/>
            </g>
        </g>
        <g transform="matrix(4.16667,0,0,4.16667,0,0)">
            <g transform="matrix(194.142,174.09,174.09,-194.142,210.457,301.134)">
                <path d="M0.025,0.42C0.026,0.418 0.028,0.416 0.029,0.414C0.054,0.384 0.079,0.354 0.104,0.325C0.11,0.318 0.109,0.32 0.104,0.313C0.065,0.264 0.036,0.209 0.018,0.149C0.013,0.135 0.01,0.12 0.006,0.105C-0.038,0.108 -0.081,0.112 -0.124,0.116C-0.135,0.054 -0.137,-0.008 -0.13,-0.071C-0.086,-0.074 -0.042,-0.078 0.003,-0.082C0.003,-0.085 0.004,-0.087 0.004,-0.09C0.014,-0.141 0.031,-0.19 0.057,-0.236C0.065,-0.251 0.074,-0.265 0.083,-0.28C0.085,-0.282 0.086,-0.283 0.083,-0.285C0.075,-0.292 0.067,-0.299 0.059,-0.305C0.035,-0.325 0.012,-0.344 -0.011,-0.364C-0.013,-0.365 -0.014,-0.367 -0.012,-0.369C-0.004,-0.38 0.003,-0.39 0.012,-0.4C0.036,-0.429 0.063,-0.456 0.092,-0.481C0.1,-0.487 0.108,-0.493 0.117,-0.5C0.124,-0.494 0.131,-0.487 0.138,-0.482C0.151,-0.47 0.165,-0.459 0.178,-0.448C0.191,-0.438 0.203,-0.427 0.216,-0.417C0.218,-0.414 0.22,-0.414 0.223,-0.416C0.231,-0.421 0.238,-0.426 0.246,-0.43C0.281,-0.45 0.317,-0.466 0.356,-0.477C0.368,-0.48 0.38,-0.483 0.393,-0.486C0.389,-0.53 0.385,-0.573 0.381,-0.616C0.443,-0.627 0.505,-0.629 0.568,-0.622C0.568,-0.62 0.568,-0.618 0.569,-0.616C0.572,-0.575 0.576,-0.535 0.579,-0.494C0.58,-0.49 0.581,-0.489 0.585,-0.488C0.628,-0.48 0.67,-0.467 0.71,-0.448C0.719,-0.443 0.729,-0.438 0.738,-0.433C0.766,-0.467 0.794,-0.501 0.823,-0.534C0.876,-0.501 0.924,-0.462 0.965,-0.415C0.954,-0.401 0.944,-0.388 0.933,-0.375C0.916,-0.356 0.9,-0.336 0.884,-0.317C0.882,-0.315 0.881,-0.313 0.884,-0.31C0.891,-0.3 0.899,-0.29 0.906,-0.28C0.929,-0.246 0.948,-0.211 0.962,-0.173C0.963,-0.17 0.964,-0.168 0.968,-0.168C1.001,-0.171 1.034,-0.174 1.067,-0.177C1.077,-0.178 1.087,-0.179 1.097,-0.179C1.115,-0.119 1.124,-0.058 1.124,0.005C1.08,0.009 1.037,0.013 0.994,0.017C0.992,0.081 0.978,0.142 0.953,0.2C0.954,0.201 0.955,0.202 0.956,0.202C0.974,0.217 0.992,0.233 1.01,0.248C1.024,0.26 1.039,0.272 1.053,0.284C1.056,0.286 1.056,0.287 1.055,0.29C1.04,0.319 1.023,0.347 1.004,0.373C0.987,0.394 0.97,0.414 0.952,0.435C0.951,0.436 0.949,0.437 0.948,0.439C0.914,0.411 0.882,0.383 0.848,0.355C0.796,0.408 0.735,0.447 0.665,0.472C0.669,0.517 0.673,0.561 0.677,0.605C0.617,0.623 0.556,0.632 0.492,0.632C0.489,0.588 0.485,0.545 0.481,0.502C0.48,0.502 0.479,0.502 0.479,0.502C0.399,0.499 0.325,0.479 0.255,0.441C0.253,0.439 0.251,0.439 0.249,0.442C0.243,0.449 0.237,0.456 0.231,0.463C0.214,0.484 0.197,0.504 0.18,0.524C0.176,0.529 0.171,0.534 0.167,0.539C0.143,0.527 0.101,0.494 0.068,0.465C0.048,0.447 0.032,0.43 0.025,0.42ZM0.108,0.413C0.111,0.432 0.112,0.451 0.104,0.47C0.121,0.459 0.14,0.456 0.16,0.456C0.154,0.436 0.157,0.418 0.164,0.399C0.146,0.408 0.128,0.414 0.108,0.413ZM0.795,-0.344C0.606,-0.508 0.321,-0.49 0.154,-0.305C-0.016,-0.115 -0.002,0.174 0.188,0.344C0.377,0.514 0.662,0.496 0.829,0.317C1.007,0.127 0.991,-0.168 0.801,-0.339C0.799,-0.34 0.797,-0.342 0.795,-0.344ZM-0.09,0.02C-0.093,0.024 -0.097,0.027 -0.099,0.032C-0.102,0.038 -0.099,0.046 -0.094,0.051C-0.088,0.056 -0.08,0.057 -0.074,0.052C-0.064,0.046 -0.055,0.039 -0.046,0.031C-0.041,0.027 -0.037,0.021 -0.033,0.016C-0.047,0.005 -0.061,-0.007 -0.078,-0.013C-0.088,-0.017 -0.098,-0.013 -0.102,-0.004C-0.106,0.006 -0.101,0.015 -0.091,0.02C-0.09,0.02 -0.09,0.02 -0.09,0.02C-0.09,0.02 -0.09,0.02 -0.09,0.02ZM0.576,0.525C0.564,0.539 0.553,0.553 0.547,0.57C0.542,0.584 0.552,0.597 0.566,0.595C0.574,0.593 0.578,0.588 0.58,0.581C0.583,0.584 0.585,0.586 0.587,0.588C0.594,0.593 0.602,0.593 0.609,0.588C0.615,0.583 0.617,0.574 0.613,0.567C0.607,0.558 0.6,0.549 0.593,0.54C0.591,0.538 0.589,0.536 0.587,0.534C0.584,0.531 0.58,0.528 0.576,0.525ZM0.85,0.317C0.845,0.321 0.85,0.325 0.853,0.329C0.85,0.334 0.85,0.334 0.843,0.328C0.843,0.328 0.842,0.329 0.842,0.329C0.844,0.331 0.846,0.334 0.848,0.334C0.85,0.335 0.853,0.333 0.855,0.332C0.858,0.329 0.86,0.326 0.862,0.323C0.861,0.322 0.86,0.321 0.859,0.319C0.859,0.318 0.858,0.317 0.857,0.316C0.855,0.314 0.853,0.314 0.85,0.317ZM0.065,-0.425C0.076,-0.407 0.079,-0.389 0.079,-0.369C0.099,-0.374 0.117,-0.372 0.137,-0.365C0.127,-0.383 0.121,-0.401 0.122,-0.421C0.103,-0.418 0.084,-0.417 0.065,-0.425ZM0.919,0.29C0.929,0.307 0.935,0.325 0.933,0.345C0.953,0.342 0.971,0.341 0.991,0.349C0.979,0.332 0.977,0.313 0.976,0.294C0.957,0.299 0.939,0.296 0.919,0.29ZM0.47,-0.584C0.463,-0.587 0.457,-0.585 0.451,-0.58C0.446,-0.575 0.444,-0.568 0.447,-0.561C0.451,-0.554 0.456,-0.547 0.461,-0.54C0.467,-0.533 0.474,-0.527 0.48,-0.52C0.481,-0.519 0.482,-0.519 0.484,-0.517C0.495,-0.53 0.505,-0.544 0.512,-0.559C0.517,-0.569 0.516,-0.578 0.509,-0.583C0.499,-0.592 0.486,-0.587 0.481,-0.574C0.478,-0.576 0.476,-0.578 0.474,-0.58C0.473,-0.582 0.471,-0.583 0.47,-0.584ZM1.053,-0.121C1.045,-0.117 1.038,-0.111 1.031,-0.105C1.024,-0.1 1.018,-0.093 1.012,-0.087C1.01,-0.085 1.01,-0.083 1.012,-0.081C1.026,-0.071 1.038,-0.06 1.055,-0.054C1.063,-0.051 1.072,-0.054 1.076,-0.06C1.083,-0.069 1.08,-0.081 1.069,-0.086C1.068,-0.087 1.067,-0.087 1.066,-0.088C1.068,-0.089 1.07,-0.09 1.072,-0.092C1.078,-0.097 1.08,-0.106 1.075,-0.114C1.074,-0.115 1.073,-0.117 1.072,-0.118C1.067,-0.123 1.06,-0.124 1.053,-0.121ZM0.855,-0.449C0.846,-0.447 0.836,-0.447 0.827,-0.445C0.832,-0.427 0.829,-0.408 0.823,-0.389C0.855,-0.403 0.855,-0.403 0.878,-0.404C0.875,-0.423 0.874,-0.442 0.881,-0.459C0.873,-0.456 0.864,-0.452 0.855,-0.449Z" style="fill:url(#_Linear1);fill-rule:nonzero;"/>
            </g>
        </g>
        <g transform="matrix(4.16667,0,0,4.16667,0,0)">
            <g transform="matrix(1,0,0,1,245.615,520.972)">
                <path d="M0,4.607C-3.595,3.753 -5.016,2.482 -5.144,0.096C-5.251,-1.891 -4.051,-3.833 -2.13,-4.39C1.309,-5.387 3.222,-3.247 5.044,-0.43C5.693,-3.479 6.283,-6.259 6.901,-9.162C8.246,-8.651 9.603,-8.134 10.977,-7.612C9.464,-5.008 8.014,-2.512 6.612,-0.097C8.246,-0.165 9.76,-0.401 11.232,-0.247C13.272,-0.033 14.698,1.379 15.04,3.235C15.378,5.066 14.864,6.661 13.334,7.777C11.677,8.985 9.912,9.004 8.142,7.963C7.802,7.763 7.465,7.558 7.01,7.285C6.959,10.121 6.422,12.558 3.312,13.336C1.581,13.769 -0.3,13.094 -1.314,11.594C-3.133,8.904 -1.937,6.679 0,4.607" style="fill:white;fill-rule:nonzero;"/>
            </g>
        </g>
        <g transform="matrix(4.16667,0,0,4.16667,0,0)">
            <g transform="matrix(1,0,0,1,371.594,244.643)">
                <path d="M0,22.384C-1.349,21.714 -2.595,21.096 -3.919,20.439C-2.172,17.99 -0.471,15.604 1.196,13.267C-0.263,13.267 -1.61,13.393 -2.923,13.238C-4.996,12.993 -6.485,11.555 -6.875,9.688C-7.267,7.811 -6.447,5.887 -4.837,4.902C-3.107,3.845 -1.168,4.003 0.569,5.348C0.81,5.534 1.044,5.73 1.444,6.052C1.726,3.192 2.492,0.782 5.635,0.3C7.594,0 9.448,0.967 10.247,2.675C11.548,5.454 10.259,7.515 8.101,9.287C11.519,10.313 12.851,11.697 12.842,14.105C12.835,16.132 11.521,17.873 9.588,18.417C6.978,19.152 5.227,18.065 2.631,13.949C1.731,16.834 0.886,19.545 0,22.384" style="fill:white;fill-rule:nonzero;"/>
            </g>
        </g>
        <g transform="matrix(4.16667,0,0,4.16667,0,0)">
            <g transform="matrix(1,0,0,1,432.892,461.133)">
                <path d="M0,-3.844C0.178,-5.454 0.174,-6.816 0.505,-8.091C1.059,-10.221 2.687,-11.485 4.64,-11.59C6.529,-11.691 8.23,-10.682 9.003,-9.003C9.86,-7.141 9.506,-5.301 7.95,-3.696C7.739,-3.479 7.42,-3.365 7.207,-3.06C10.1,-2.316 12.444,-1.243 12.45,2.121C12.453,3.923 11.278,5.617 9.626,6.19C6.718,7.197 4.831,5.713 3.214,3.292C2.36,6.072 0.832,7.847 -2.149,7.545C-4.075,7.351 -5.69,5.819 -5.943,4.027C-6.484,0.191 -3.837,-1.265 -0.682,-2.573C-3.52,-3.783 -6.147,-4.903 -8.901,-6.076C-8.14,-7.284 -7.388,-8.479 -6.559,-9.796C-4.335,-7.778 -2.167,-5.811 0,-3.844" style="fill:white;fill-rule:nonzero;"/>
            </g>
        </g>
        <g transform="matrix(4.16667,0,0,4.16667,0,0)">
            <g transform="matrix(1,0,0,1,178.523,449.41)">
                <path d="M0,-3.039C2.133,-4.543 3.998,-5.858 6.006,-7.274C6.536,-6.229 7.049,-5.219 7.606,-4.121C5.207,-3.369 2.929,-2.654 0.359,-1.848C1.175,-1.474 1.718,-1.287 2.196,-0.995C3.891,0.038 4.665,1.966 4.211,3.909C3.76,5.842 1.991,7.461 -0.253,7.345C-4.058,7.147 -7.848,6.638 -11.636,6.185C-12.91,6.033 -14.158,5.656 -15.579,5.347C-13.428,0.663 -11.39,-3.886 -8.078,-7.698C-6.084,-9.994 -3.998,-10.5 -1.884,-9.359C0.153,-8.259 0.811,-6.283 0,-3.039" style="fill:white;fill-rule:nonzero;"/>
            </g>
        </g>
        <g transform="matrix(4.16667,0,0,4.16667,0,0)">
            <g transform="matrix(1,0,0,1,254.839,245.393)">
                <path d="M0,9.399C1.048,11.421 2.116,13.483 3.256,15.683C2.142,16.063 1.063,16.432 -0.109,16.832C-0.512,14.367 -0.898,12 -1.343,9.278C-2.27,11.028 -3.222,12.215 -4.913,12.555C-7.747,13.125 -10.312,11.132 -10.357,8.245C-10.42,4.199 -8.993,0.473 -7.774,-3.289C-7.334,-4.648 -6.783,-5.972 -6.237,-7.433C-1.782,-4.56 2.566,-1.832 5.94,2.148C7.156,3.583 7.692,5.192 7.01,7.031C6.373,8.75 5.088,9.801 3.28,9.912C2.251,9.975 1.195,9.602 0,9.399" style="fill:white;fill-rule:nonzero;"/>
            </g>
        </g>
        <g transform="matrix(4.16667,0,0,4.16667,0,0)">
            <g transform="matrix(1,0,0,1,444.076,345.77)">
                <path d="M0,2.109C-2.353,3.111 -4.493,4.023 -6.733,4.977C-7.024,3.803 -7.299,2.696 -7.581,1.559C-5.1,1.327 -2.733,1.105 -0.034,0.852C-0.582,0.472 -0.89,0.27 -1.185,0.052C-2.811,-1.147 -3.436,-3.07 -2.827,-4.984C-2.24,-6.83 -0.637,-8.231 1.318,-7.997C3.749,-7.705 6.187,-7.154 8.514,-6.387C11.365,-5.447 14.104,-4.167 17.166,-2.923C15.552,-0.876 14.209,1.079 12.607,2.792C10.646,4.888 8.595,6.941 6.348,8.716C4.291,10.34 2.073,10.086 0.438,8.536C-1.203,6.981 -1.404,4.902 -0.137,2.624C-0.098,2.555 -0.093,2.466 0,2.109" style="fill:white;fill-rule:nonzero;"/>
            </g>
        </g>
        <g transform="matrix(4.16667,0,0,4.16667,0,0)">
            <g transform="matrix(1,0,0,1,361.244,514.994)">
                <path d="M0,23.781C-3.266,21.837 -6.384,20.073 -9.398,18.146C-10.788,17.257 -12.06,16.136 -13.234,14.968C-14.984,13.227 -15.19,10.99 -13.969,9.058C-12.867,7.313 -10.81,6.69 -8.487,7.394C-8.365,7.431 -8.238,7.454 -7.731,7.575C-9.124,5.392 -10.359,3.457 -11.641,1.447C-10.578,0.972 -9.524,0.5 -8.406,0C-7.771,2.409 -7.169,4.695 -6.484,7.295C-6.188,6.731 -6.032,6.444 -5.884,6.152C-4.926,4.258 -2.969,3.26 -0.964,3.646C0.991,4.022 2.449,5.602 2.646,7.677C2.982,11.229 2.186,14.663 1.433,18.091C1.041,19.88 0.542,21.645 0,23.781" style="fill:white;fill-rule:nonzero;"/>
            </g>
        </g>
        <g transform="matrix(4.16667,0,0,4.16667,0,0)">
            <g transform="matrix(1,0,0,1,206.92,274.893)">
                <path d="M0,17.461C-4.752,17.188 -9.435,16.987 -13.869,15.262C-16.626,14.188 -17.838,11.651 -16.901,9.224C-15.919,6.678 -13.568,5.693 -10.684,6.616C-10.562,6.656 -10.438,6.69 -10.519,6.666C-10.415,5.388 -10.529,4.026 -10.152,2.816C-9.608,1.071 -7.734,0 -5.899,0.064C-3.763,0.138 -2.159,1.261 -1.644,3.231C-0.885,6.131 -0.424,9.122 -0.04,12.1C0.181,13.816 0,15.583 0,17.461" style="fill:white;fill-rule:nonzero;"/>
            </g>
        </g>
        <g transform="matrix(4.16667,0,0,4.16667,0,0)">
            <g transform="matrix(1,0,0,1,402.09,500.433)">
                <path d="M0,3.29C0.18,3.939 0.391,4.474 0.47,5.028C0.782,7.233 -0.532,9.298 -2.637,9.978C-4.864,10.699 -7.281,9.817 -8.124,7.541C-8.943,5.331 -9.404,2.959 -9.766,0.618C-10.116,-1.644 -10.112,-3.96 -10.321,-6.247C-10.393,-7.04 -10.056,-7.409 -9.354,-7.336C-4.978,-6.883 -0.521,-6.884 3.645,-5.178C5.889,-4.259 7.177,-2.284 6.895,-0.268C6.48,2.689 3.807,4.419 0.952,3.577C0.667,3.493 0.383,3.406 0,3.29" style="fill:white;fill-rule:nonzero;"/>
            </g>
        </g>
        <g transform="matrix(4.16667,0,0,4.16667,0,0)">
            <g transform="matrix(1,0,0,1,413.572,281.52)">
                <path d="M0,18.029C0.291,13.236 0.553,8.551 2.33,4.155C3.798,0.52 8.075,-0.205 10.341,2.693C11.603,4.308 11.498,6.084 10.7,7.9C11.617,7.794 12.457,7.557 13.269,7.631C15.413,7.825 17.024,9.411 17.373,11.492C17.696,13.412 16.662,15.689 14.672,16.276C11.894,17.095 9.003,17.604 6.125,17.981C4.187,18.234 2.189,18.029 0,18.029" style="fill:white;fill-rule:nonzero;"/>
            </g>
        </g>
        <g transform="matrix(4.16667,0,0,4.16667,0,0)">
            <g transform="matrix(1,0,0,1,214.259,503.002)">
                <path d="M0,-17.211C-0.068,-12.718 -0.357,-8.408 -1.591,-4.229C-2.446,-1.332 -4.197,0.111 -6.467,0.038C-9.92,-0.073 -11.744,-3.283 -10.405,-6.749C-11.67,-6.749 -13.039,-6.48 -14.242,-6.813C-16.026,-7.306 -17.024,-8.75 -17.176,-10.638C-17.338,-12.645 -16.521,-14.314 -14.696,-15.043C-12.673,-15.851 -10.507,-16.407 -8.352,-16.752C-6.004,-17.129 -3.597,-17.144 -1.215,-17.3C-0.868,-17.322 -0.516,-17.252 0,-17.211" style="fill:white;fill-rule:nonzero;"/>
            </g>
        </g>
        <g transform="matrix(4.16667,0,0,4.16667,0,0)">
            <g transform="matrix(-0.999421,-0.0340302,-0.0340302,0.999421,311.197,252.226)">
                <path d="M-0.413,-24.383C-2.067,-19.095 -5.322,-15.438 -9.208,-12.118C-4.881,-9.134 -2.41,-4.914 -0.413,0.007C1.563,-4.922 4.048,-9.13 8.375,-12.096C4.505,-15.45 1.204,-19.075 -0.413,-24.383" style="fill:white;fill-rule:nonzero;"/>
            </g>
        </g>
        <g transform="matrix(4.16667,0,0,4.16667,0,0)">
            <g transform="matrix(0.0338434,-0.999427,-0.999427,-0.0338434,162.084,383.253)">
                <path d="M-12.19,-11.768C-14.142,-6.772 -16.655,-2.583 -20.957,0.442C-17.045,3.742 -13.845,7.393 -12.19,12.609C-10.506,7.422 -7.312,3.709 -3.407,0.426C-7.702,-2.622 -10.251,-6.798 -12.19,-11.768" style="fill:white;fill-rule:nonzero;"/>
            </g>
        </g>
        <g transform="matrix(4.16667,0,0,4.16667,0,0)">
            <g transform="matrix(1,0,0,1,302.459,543.635)">
                <path d="M0,-23.588C3.771,-15.456 3.771,-15.456 8.196,-11.186C4.294,-8.084 0.871,-4.582 -0.786,0C-1.925,-2.126 -2.921,-4.402 -4.292,-6.424C-5.643,-8.417 -7.374,-10.151 -9.008,-12.081C-4.782,-14.777 -2.097,-18.815 0,-23.588" style="fill:white;fill-rule:nonzero;"/>
            </g>
        </g>
        <g transform="matrix(4.16667,0,0,4.16667,0,0)">
            <g transform="matrix(-0.0339732,0.999423,0.999423,0.0339732,452.266,393.274)">
                <path d="M12.118,-12.511C10.163,-7.589 7.708,-3.397 3.372,-0.407C7.238,2.879 10.48,6.548 12.118,11.714C13.76,6.567 16.951,2.922 20.838,-0.375C16.597,-3.389 14.043,-7.549 12.118,-12.511" style="fill:white;fill-rule:nonzero;"/>
            </g>
        </g>
        <g transform="matrix(4.16667,0,0,4.16667,0,0)">
            <g transform="matrix(1,0,0,1,307.247,255.958)">
                <path d="M0,261.614C-34.94,261.614 -67.788,248.008 -92.495,223.301C-117.201,198.595 -130.807,165.747 -130.807,130.807C-130.807,95.867 -117.201,63.018 -92.495,38.312C-67.788,13.606 -34.94,0 0,0C34.94,0 67.788,13.606 92.495,38.312C117.201,63.018 130.807,95.867 130.807,130.807C130.807,165.747 117.201,198.595 92.495,223.301C67.788,248.008 34.94,261.614 0,261.614" style="fill:white;fill-rule:nonzero;"/>
            </g>
        </g>
        <g transform="matrix(4.16667,0,0,4.16667,0,0)">
            <g transform="matrix(1,0,0,1,307.247,494.068)">
                <path d="M0,-214.606C-28.662,-214.606 -55.608,-203.444 -75.875,-183.178C-96.142,-162.911 -107.303,-135.965 -107.303,-107.303C-107.303,-78.641 -96.142,-51.694 -75.875,-31.428C-55.608,-11.161 -28.662,0 0,0C28.661,0 55.607,-11.161 75.875,-31.428C96.142,-51.695 107.303,-78.641 107.303,-107.303C107.303,-135.964 96.142,-162.911 75.875,-183.178C55.608,-203.444 28.662,-214.606 0,-214.606M0,5.268C-30.069,5.268 -58.338,-6.441 -79.6,-27.703C-100.862,-48.965 -112.571,-77.234 -112.571,-107.303C-112.571,-137.372 -100.862,-165.641 -79.6,-186.903C-58.338,-208.165 -30.069,-219.874 0,-219.874C30.069,-219.874 58.338,-208.165 79.6,-186.903C100.862,-165.641 112.571,-137.372 112.571,-107.303C112.571,-77.234 100.862,-48.965 79.6,-27.703C58.338,-6.441 30.069,5.268 0,5.268" style="fill:rgb(237,238,239);fill-rule:nonzero;"/>
            </g>
        </g>
        <g transform="matrix(4.16667,0,0,4.16667,0,0)">
            <g transform="matrix(1,0,0,1,384.555,309.458)">
                <path d="M0,154.614C-20.65,175.264 -48.105,186.636 -77.308,186.636C-106.511,186.636 -133.966,175.264 -154.615,154.614C-175.265,133.965 -186.637,106.51 -186.637,77.307C-186.637,48.104 -175.265,20.649 -154.616,-0.001C-133.966,-20.65 -106.511,-32.023 -77.308,-32.023C-48.105,-32.023 -20.649,-20.65 0,-0.001C20.65,20.649 32.022,48.104 32.022,77.307C32.022,106.509 20.65,133.964 0,154.614M0.86,-0.861C-20.019,-21.74 -47.78,-33.238 -77.308,-33.238C-106.835,-33.238 -134.596,-21.74 -155.475,-0.861C-176.354,20.018 -187.853,47.779 -187.853,77.307C-187.853,106.834 -176.354,134.595 -155.475,155.474C-134.596,176.353 -106.835,187.852 -77.308,187.852C-47.78,187.852 -20.02,176.353 0.86,155.474C21.739,134.595 33.237,106.834 33.237,77.307C33.237,47.779 21.739,20.019 0.86,-0.861" style="fill:rgb(78,117,116);fill-rule:nonzero;"/>
            </g>
        </g>
        <g transform="matrix(4.16667,0,0,4.16667,0,0)">
            <g transform="matrix(251.078,0,0,-251.078,181.708,386.764)">
                <path d="M0.146,0.354C0.052,0.259 -0,0.134 -0,-0C-0,-0.134 0.052,-0.259 0.146,-0.354C0.241,-0.448 0.366,-0.5 0.5,-0.5C0.634,-0.5 0.759,-0.448 0.854,-0.354C0.948,-0.259 1,-0.134 1,-0C1,0.134 0.948,0.259 0.854,0.354C0.759,0.448 0.634,0.5 0.5,0.5C0.366,0.5 0.241,0.448 0.146,0.354ZM0.169,-0.331C0.081,-0.242 0.032,-0.125 0.032,-0C0.032,0.125 0.081,0.242 0.169,0.331C0.258,0.419 0.375,0.468 0.5,0.468C0.625,0.468 0.742,0.419 0.831,0.331C0.919,0.242 0.968,0.125 0.968,-0C0.968,-0.125 0.919,-0.242 0.831,-0.331C0.742,-0.419 0.625,-0.468 0.5,-0.468C0.375,-0.468 0.258,-0.419 0.169,-0.331Z" style="fill:url(#_Linear2);fill-rule:nonzero;"/>
            </g>
        </g>
        <g transform="matrix(4.16667,0,0,4.16667,0,0)">
            <g transform="matrix(1,0,0,1,181.434,334.243)">
                <path d="M0,3.221C-0.516,4.636 -0.992,5.943 -1.498,7.331C-4.125,5.868 -6.686,4.442 -9.194,3.045C-9.032,4.495 -8.757,5.819 -8.765,7.142C-8.778,9.229 -10.042,10.869 -11.854,11.464C-13.675,12.061 -15.679,11.46 -16.836,9.97C-18.08,8.367 -18.137,6.423 -16.994,4.547C-16.835,4.287 -16.667,4.033 -16.391,3.599C-19.265,3.638 -21.745,3.143 -22.573,0.073C-23.089,-1.84 -22.334,-3.79 -20.725,-4.774C-18.108,-6.375 -15.917,-5.323 -13.916,-3.376C-13.275,-6.886 -12.048,-8.363 -9.654,-8.622C-7.638,-8.84 -5.762,-7.728 -5.007,-5.867C-3.987,-3.355 -4.873,-1.494 -8.675,1.543C-5.708,2.117 -2.92,2.656 0,3.221" style="fill:white;fill-rule:nonzero;"/>
            </g>
        </g>
        <g transform="matrix(4.16667,0,0,4.16667,0,0)">
            <g transform="matrix(0.051379,-0.998679,-0.998679,-0.051379,471.262,345.968)">
                <path d="M-2.368,-1.887C-2.641,-0.497 -2.914,0.893 -3.187,2.282C-2.914,2.346 -2.641,2.41 -2.368,2.473C-1.969,1.122 -1.57,-0.23 -1.172,-1.581C-1.57,-1.682 -1.968,-1.785 -2.368,-1.887" style="fill:white;fill-rule:nonzero;"/>
            </g>
        </g>
        <g transform="matrix(4.16667,0,0,4.16667,0,0)">
            <g transform="matrix(1,0,0,1,181.558,333.937)">
                <path d="M0,3.557C-0.525,4.983 -1.002,6.279 -1.502,7.639C-4.101,6.198 -6.619,4.801 -9.126,3.41C-8.998,5.011 -8.717,6.434 -8.808,7.834C-8.974,10.397 -11.107,12.189 -13.569,11.937C-14.012,11.892 -14.63,11.426 -14.781,11.013C-15.488,9.07 -16.079,7.084 -16.665,5.1C-16.767,4.756 -16.644,4.346 -16.62,3.87C-19.327,3.967 -21.763,3.429 -22.578,0.333C-23.091,-1.614 -22.287,-3.587 -20.566,-4.554C-18.017,-5.988 -15.897,-4.978 -13.862,-3.04C-13.778,-3.556 -13.711,-3.925 -13.659,-4.297C-13.379,-6.286 -12.153,-7.712 -10.219,-8.183C-8.375,-8.632 -6.802,-8.072 -5.636,-6.609C-4.39,-5.045 -4.212,-3.228 -5.28,-1.568C-6.102,-0.289 -7.303,0.747 -8.367,1.925C-5.742,2.437 -2.982,2.976 0,3.557" style="fill:white;fill-rule:nonzero;"/>
            </g>
        </g>
        <g transform="matrix(4.16667,0,0,4.16667,0,0)">
            <g transform="matrix(1,0,0,1,399.475,424.384)">
                <path d="M0,-74.273C4.261,-63.587 6.559,-52.483 6.917,-40.972C7.497,-22.273 3.271,-4.739 -5.979,11.51C-15.134,27.591 -27.871,40.134 -44.002,49.219C-52.949,54.257 -62.466,57.786 -72.52,59.805C-88.161,62.946 -103.704,62.432 -119.095,58.186C-135.744,53.594 -150.22,45.172 -162.448,33.014C-177.644,17.906 -187.185,-0.27 -190.576,-21.433C-194.393,-45.261 -190.239,-67.759 -177.876,-88.551C-167.926,-105.286 -154.108,-117.986 -136.68,-126.686C-121.017,-134.506 -104.377,-137.903 -86.932,-136.873C-63.015,-135.461 -42.191,-126.566 -24.582,-110.277C-15.548,-101.92 -8.402,-92.149 -2.991,-81.102C-2.82,-80.753 -2.692,-80.384 -2.52,-79.966C-2.89,-80.006 -0.588,-75.749 0,-74.273M-96.895,75.132C-161.539,72.472 -205.025,18.761 -205.262,-35.176C-203.765,-35.609 -203.753,-35.59 -203.707,-34.074C-203.066,-12.947 -196.862,6.437 -185.131,23.983C-171.823,43.888 -153.885,58.094 -131.487,66.582C-117.217,71.99 -102.4,74.286 -87.177,73.493C-60.927,72.127 -37.84,62.741 -18.265,45.202C0.892,28.038 12.804,6.669 17.163,-18.718C21.391,-43.341 17.73,-66.848 6.243,-89.051C-0.981,-103.015 -10.824,-114.88 -23.13,-124.684C-37.73,-136.314 -54.208,-143.903 -72.578,-147.138C-97.89,-151.597 -122.07,-148.007 -144.781,-135.872C-166.899,-124.054 -183.225,-106.627 -193.77,-83.864C-199.317,-71.891 -202.513,-59.281 -203.463,-46.113C-203.586,-44.408 -203.681,-42.701 -203.797,-40.858C-204.337,-40.816 -204.769,-40.782 -205.206,-40.748C-204.954,-90.958 -165.756,-143.572 -104.022,-149.868C-37.283,-156.674 18.141,-105.469 20.368,-41.761C22.685,24.481 -31.538,77.822 -96.895,75.132M-204.434,-37.958C-204.137,-37.931 -203.874,-37.539 -203.326,-37.095C-203.92,-36.575 -204.285,-36.255 -204.65,-35.936C-204.883,-36.232 -205.251,-36.5 -205.32,-36.83C-205.453,-37.466 -205.188,-38.027 -204.434,-37.958M-204.64,-40.119C-204.372,-40.148 -204.054,-39.717 -203.76,-39.497C-204.144,-39.078 -204.528,-38.658 -204.912,-38.239C-205.035,-38.342 -205.157,-38.445 -205.28,-38.548C-205.277,-39.154 -205.82,-39.991 -204.64,-40.119M27.134,-40.348C25.781,-104.328 -26.29,-157.348 -92.536,-157.28C-159.104,-157.211 -212.154,-103.786 -212.136,-37.322C-212.059,27.743 -159.727,80.863 -94.51,81.949C-26.962,83.075 28.582,28.092 27.134,-40.348" style="fill:white;fill-rule:nonzero;"/>
            </g>
        </g>
        <g transform="matrix(4.16667,0,0,4.16667,0,0)">
            <clipPath id="_clip3">
                <path d="M199.632,386.7C199.632,446.159 247.832,494.36 307.292,494.36C366.75,494.36 414.951,446.159 414.951,386.7C414.951,327.241 366.75,279.04 307.292,279.04C247.832,279.04 199.632,327.241 199.632,386.7Z" clip-rule="nonzero"/>
            </clipPath>
            <g clip-path="url(#_clip3)">
                <g transform="matrix(1,0,0,1,502.325,403.32)">
                    <path d="M0,256.432C-2.946,252.337 -5.843,248.205 -8.846,244.152C-23.905,223.833 -38.98,203.526 -54.07,183.23C-76.806,152.652 -99.536,122.069 -122.31,91.519C-143.348,63.297 -164.44,35.115 -185.511,6.918C-187.162,4.71 -188.831,2.516 -190.214,0C-189.658,0.55 -189.08,1.08 -188.549,1.653C-170.576,21.065 -152.561,40.437 -134.652,59.907C-115.057,81.209 -95.538,102.58 -76.027,123.959C-53.919,148.184 -31.857,172.451 -9.773,196.699C8.081,216.303 25.939,235.905 43.793,255.51C44.065,255.808 44.316,256.124 44.577,256.432L0,256.432Z" style="fill:rgb(237,238,239);fill-rule:nonzero;"/>
                </g>
                <g transform="matrix(1,0,0,1,110.862,388.702)">
                    <path d="M0,-255.764C4.649,-249.395 9.262,-242.999 13.955,-236.662C31.78,-212.589 49.602,-188.514 67.479,-164.48C83.665,-142.72 99.917,-121.01 116.144,-99.281C129.783,-81.017 143.422,-62.752 157.072,-44.495C167.897,-30.018 178.738,-15.552 189.57,-1.08C189.76,-0.825 189.921,-0.549 189.786,0C187.709,-2.183 185.609,-4.345 183.559,-6.553C173.275,-17.633 162.994,-28.714 152.734,-39.815C144.259,-48.982 135.807,-58.171 127.359,-67.363C114.712,-81.123 102.055,-94.874 89.445,-108.668C77.879,-121.319 66.378,-134.029 54.833,-146.699C44.199,-158.37 33.536,-170.014 22.903,-181.686C11.085,-194.659 -0.705,-207.658 -12.522,-220.632C-23.197,-232.352 -33.891,-244.054 -44.577,-255.764L0,-255.764Z" style="fill:rgb(237,238,239);fill-rule:nonzero;"/>
                </g>
                <g transform="matrix(1,0,0,1,43.1866,443.161)">
                    <path d="M0,144.863C2.378,143.246 4.804,141.694 7.127,140.001C39.335,116.523 71.544,93.047 103.721,69.527C139.218,43.58 174.687,17.595 210.159,-8.387C225.824,-19.862 241.465,-31.37 257.119,-42.86C257.48,-43.125 257.863,-43.361 258.532,-43.271C256.109,-41.045 253.701,-38.803 251.261,-36.596C234.345,-21.297 217.455,-5.969 200.495,9.281C175.006,32.198 149.48,55.074 123.946,77.94C101.829,97.747 79.686,117.524 57.541,137.299C38.817,154.018 20.074,170.717 1.329,187.413C0.948,187.753 0.446,187.957 0,188.224L0,144.863" style="fill:rgb(237,238,239);fill-rule:nonzero;"/>
                </g>
                <g transform="matrix(1,0,0,1,570,347.798)">
                    <path d="M0,-143.538C-10.277,-136.109 -20.568,-128.698 -30.829,-121.246C-49.822,-107.453 -68.811,-93.655 -87.776,-79.823C-114.041,-60.668 -140.286,-41.485 -166.533,-22.304C-193.326,-2.724 -220.111,16.866 -246.897,36.456C-250.027,38.745 -253.138,41.059 -256.258,43.361C-256.364,43.236 -256.471,43.11 -256.577,42.985C-254.107,40.691 -251.661,38.371 -249.164,36.108C-233.014,21.468 -216.857,6.835 -200.693,-7.79C-190.738,-16.797 -180.799,-25.822 -170.795,-34.774C-152.187,-51.425 -133.541,-68.033 -114.904,-84.651C-91.232,-105.759 -67.546,-126.851 -43.882,-147.967C-29.784,-160.547 -15.718,-173.161 -1.628,-185.749C-1.136,-186.189 -0.545,-186.518 0,-186.899L0,-143.538Z" style="fill:rgb(237,238,239);fill-rule:nonzero;"/>
                </g>
                <g transform="matrix(1,0,0,1,65.8801,399.866)">
                    <path d="M0,259.886C5.82,253.508 11.641,247.132 17.458,240.751C25.048,232.426 32.623,224.087 40.226,215.772C53.295,201.478 66.396,187.215 79.454,172.91C98.973,151.527 118.479,130.132 137.964,108.717C152.722,92.496 167.413,76.214 182.18,60.002C195.131,45.785 208.151,31.631 221.13,17.44C226.165,11.936 231.161,6.397 236.211,0.906C236.608,0.473 237.284,0.296 237.83,0C237.189,0.684 236.478,1.316 235.918,2.061C227.088,13.812 218.296,25.591 209.458,37.335C194.78,56.839 180.101,76.343 165.375,95.812C148.331,118.346 131.245,140.851 114.16,163.354C95.442,188.007 76.698,212.639 57.979,237.29C52.273,244.805 46.611,252.353 40.929,259.886L0,259.886Z" style="fill:rgb(237,238,239);fill-rule:nonzero;"/>
                </g>
                <g transform="matrix(1,0,0,1,546.902,388.751)">
                    <path d="M0,-255.813C-3.001,-252.445 -5.975,-249.053 -9.008,-245.714C-16.358,-237.621 -23.721,-229.54 -31.104,-221.477C-46.599,-204.554 -62.123,-187.657 -77.611,-170.727C-93.143,-153.749 -108.647,-136.745 -124.162,-119.75C-134.627,-108.286 -145.101,-96.83 -155.548,-85.349C-164.263,-75.771 -172.92,-66.14 -181.648,-56.573C-196.381,-40.423 -211.151,-24.306 -225.901,-8.171C-228.447,-5.386 -230.971,-2.581 -233.815,0C-232.98,-1.185 -232.176,-2.393 -231.306,-3.552C-215.724,-24.326 -200.174,-45.124 -184.536,-65.856C-166.136,-90.252 -147.667,-114.594 -129.215,-138.95C-112.522,-160.985 -95.799,-182.997 -79.113,-205.038C-66.896,-221.174 -54.717,-237.339 -42.528,-253.496C-41.963,-254.244 -41.461,-255.04 -40.929,-255.813L0,-255.813Z" style="fill:rgb(237,238,239);fill-rule:nonzero;"/>
                </g>
                <g transform="matrix(1,0,0,1,43.1866,391.879)">
                    <path d="M0,-230.979C2.907,-228.496 5.864,-226.069 8.714,-223.521C30.797,-203.77 52.859,-183.995 74.93,-164.23C93.229,-147.844 111.525,-131.455 129.836,-115.081C146.788,-99.922 163.757,-84.783 180.719,-69.634C197.119,-54.987 213.514,-40.334 229.921,-25.694C238.932,-17.654 247.962,-9.635 256.982,-1.604C257.464,-1.175 257.929,-0.727 258.181,0C256.035,-1.551 253.877,-3.086 251.744,-4.654C235.114,-16.88 218.468,-29.082 201.869,-41.349C181.096,-56.7 160.357,-72.096 139.617,-87.491C124.345,-98.826 109.093,-110.189 93.835,-121.542C72.2,-137.639 50.572,-153.746 28.932,-169.836C19.3,-176.996 9.645,-184.123 0,-191.265L0,-230.979Z" style="fill:rgb(237,238,239);fill-rule:nonzero;"/>
                </g>
                <g transform="matrix(1,0,0,1,570,400.552)">
                    <path d="M0,231.238C-3.058,228.624 -6.155,226.053 -9.167,223.386C-16.796,216.633 -24.404,209.856 -31.988,203.053C-44.143,192.151 -56.259,181.206 -68.417,170.307C-79.421,160.442 -90.466,150.622 -101.48,140.769C-112.488,130.921 -123.464,121.035 -134.484,111.201C-149.69,97.633 -164.943,84.117 -180.143,70.542C-193.932,58.228 -207.671,45.858 -221.444,33.527C-230.239,25.653 -239.053,17.801 -247.863,9.945C-251.134,7.029 -254.422,4.133 -257.694,1.219C-258.061,0.892 -258.372,0.502 -258.566,0C-252.123,4.725 -245.673,9.44 -239.239,14.178C-220.338,28.095 -201.428,41.999 -182.552,55.949C-166.393,67.891 -150.272,79.886 -134.138,91.863C-114.158,106.695 -94.173,121.522 -74.206,136.372C-51.151,153.517 -28.113,170.686 -5.065,187.84C-3.39,189.086 -1.689,190.297 0,191.524L0,231.238Z" style="fill:rgb(237,238,239);fill-rule:nonzero;"/>
                </g>
                <g transform="matrix(1,0,0,1,146.118,401.562)">
                    <path d="M0,258.19C2.646,253.74 5.251,249.265 7.944,244.844C23.788,218.827 39.666,192.831 55.506,166.813C72.116,139.531 88.693,112.23 105.289,84.94C122.164,57.191 139.044,29.445 155.933,1.705C156.304,1.095 156.807,0.566 157.248,0C155.311,4.283 153.443,8.6 151.426,12.845C135.742,45.854 120.07,78.869 104.312,111.842C92.295,136.985 80.143,162.063 68.077,187.183C56.713,210.843 45.385,234.52 34.04,258.19L0,258.19Z" style="fill:rgb(237,238,239);fill-rule:nonzero;"/>
                </g>
                <g transform="matrix(1,0,0,1,467.069,390.417)">
                    <path d="M0,-257.479C-6.933,-246.15 -13.88,-234.83 -20.795,-223.491C-33.396,-202.829 -45.988,-182.162 -58.564,-161.485C-76.537,-131.933 -94.486,-102.367 -112.457,-72.813C-126.709,-49.375 -140.978,-25.948 -155.243,-2.517C-155.797,-1.606 -156.38,-0.711 -157.333,0C-156.425,-1.979 -155.54,-3.969 -154.604,-5.935C-138.014,-40.774 -121.458,-75.628 -104.811,-110.44C-90.865,-139.602 -76.806,-168.711 -62.808,-197.848C-53.503,-217.216 -44.214,-236.593 -34.928,-255.97C-34.702,-256.442 -34.604,-256.975 -34.446,-257.479L0,-257.479Z" style="fill:rgb(237,238,239);fill-rule:nonzero;"/>
                </g>
                <g transform="matrix(1,0,0,1,570,399.159)">
                    <path d="M0,154.419C-5.853,150.951 -11.717,147.501 -17.556,144.01C-36.477,132.698 -55.378,121.354 -74.307,110.054C-92.3,99.313 -110.31,88.599 -128.328,77.899C-141.716,69.948 -155.15,62.075 -168.524,54.101C-194.115,38.844 -219.677,23.539 -245.251,8.254C-249.644,5.629 -254.037,3.006 -258.278,0C-257.675,0.24 -257.059,0.45 -256.472,0.723C-234.433,10.983 -212.378,21.209 -190.365,31.524C-153.719,48.695 -117.095,65.911 -80.473,83.133C-54.393,95.396 -28.332,107.701 -2.257,119.975C-1.537,120.314 -0.754,120.518 0,120.784L0,154.419Z" style="fill:rgb(237,238,239);fill-rule:nonzero;"/>
                </g>
                <g transform="matrix(1,0,0,1,43.1866,393.084)">
                    <path d="M0,-153.973C5.912,-150.478 11.837,-147.005 17.734,-143.485C37.47,-131.705 57.197,-119.91 76.926,-108.118C96.421,-96.466 115.91,-84.805 135.408,-73.159C146.397,-66.596 157.398,-60.053 168.394,-53.503C195.894,-37.122 223.395,-20.741 250.895,-4.359C253.144,-3.019 255.39,-1.674 257.471,0C254.199,-1.487 250.916,-2.952 247.656,-4.463C225.424,-14.769 203.177,-25.041 180.974,-35.408C156.635,-46.772 132.328,-58.205 108.024,-69.645C81.036,-82.349 54.067,-95.093 27.092,-107.824C18.81,-111.733 10.537,-115.665 2.251,-119.566C1.537,-119.902 0.752,-120.084 0,-120.338L0,-153.973" style="fill:rgb(237,238,239);fill-rule:nonzero;"/>
                </g>
                <g transform="matrix(1,0,0,1,432.623,401.374)">
                    <path d="M0,258.378C-1.102,255.867 -2.133,253.321 -3.317,250.849C-17.252,221.754 -31.186,192.659 -45.168,163.587C-57.893,137.13 -70.715,110.719 -83.422,84.253C-96.188,57.664 -108.866,31.031 -121.58,4.416C-122.257,2.998 -122.906,1.566 -123.267,0C-118.987,7.09 -114.693,14.171 -110.431,21.271C-98.253,41.557 -86.074,61.843 -73.92,82.144C-62.049,101.971 -50.216,121.82 -38.35,141.65C-30.252,155.183 -22.091,168.68 -14.018,182.228C1.059,207.533 16.094,232.864 31.144,258.186C31.177,258.242 31.184,258.314 31.204,258.378L0,258.378Z" style="fill:rgb(237,238,239);fill-rule:nonzero;"/>
                </g>
                <g transform="matrix(1,0,0,1,180.563,389.223)">
                    <path d="M0,-256.285C1.089,-253.772 2.098,-251.22 3.278,-248.751C16.09,-221.953 28.919,-195.163 41.765,-168.38C50.182,-150.833 58.635,-133.303 67.07,-115.764C80.817,-87.178 94.561,-58.59 108.309,-30.003C112.89,-20.477 117.476,-10.953 122.06,-1.427C122.26,-1.012 122.454,-0.593 122.375,0C121.752,-1.008 121.122,-2.012 120.508,-3.026C107.304,-24.82 94.05,-46.584 80.913,-68.418C64.478,-95.733 48.111,-123.089 31.766,-150.459C15.662,-177.425 -0.381,-204.427 -16.444,-231.417C-21.374,-239.701 -26.284,-247.995 -31.204,-256.285L0,-256.285Z" style="fill:rgb(237,238,239);fill-rule:nonzero;"/>
                </g>
                <g transform="matrix(1,0,0,1,43.1866,430.096)">
                    <path d="M0,89.847C7.451,86.392 14.915,82.965 22.352,79.478C55.708,63.838 89.064,48.199 122.405,32.525C146.418,21.236 170.41,9.901 194.404,-1.43C214.685,-11.007 234.954,-20.609 255.229,-30.198C255.46,-30.307 255.702,-30.393 256.111,-30.197C254.118,-28.973 252.143,-27.72 250.13,-26.529C220.074,-8.746 190.043,9.077 159.946,26.79C132.464,42.962 104.912,59.014 77.388,75.116C52.425,89.719 27.46,104.318 2.492,118.914C1.68,119.388 0.831,119.799 0,120.24L0,89.847" style="fill:rgb(237,238,239);fill-rule:nonzero;"/>
                </g>
                <g transform="matrix(1,0,0,1,570,360.949)">
                    <path d="M0,-88.203C-3.5,-86.675 -7.037,-85.226 -10.495,-83.606C-32.082,-73.497 -53.654,-63.353 -75.227,-53.213C-104.657,-39.379 -134.081,-25.529 -163.515,-11.703C-183.805,-2.171 -204.105,7.34 -224.407,16.847C-233.917,21.3 -243.441,25.722 -252.959,30.155C-253.242,30.287 -253.536,30.393 -253.968,30.199C-249.895,27.769 -245.832,25.32 -241.745,22.912C-219.626,9.874 -197.513,-3.175 -175.372,-16.177C-151.838,-29.998 -128.27,-43.76 -104.729,-57.568C-94.907,-63.329 -85.137,-69.176 -75.31,-74.927C-50.653,-89.357 -25.978,-103.756 -1.303,-118.155C-0.915,-118.381 -0.436,-118.452 0,-118.596L0,-88.203Z" style="fill:rgb(237,238,239);fill-rule:nonzero;"/>
                </g>
                <g transform="matrix(1,0,0,1,372.243,403.654)">
                    <path d="M0,256.098C-1.185,251.066 -2.317,246.021 -3.564,241.004C-8.153,222.543 -12.763,204.087 -17.397,185.638C-24.606,156.937 -31.878,128.252 -39.055,99.543C-46.151,71.159 -53.167,42.755 -60.208,14.356C-61.384,9.611 -62.504,4.852 -63.314,0C-61.711,4.336 -60.085,8.665 -58.51,13.011C-50.531,35.021 -42.541,57.027 -34.603,79.051C-26.666,101.073 -18.8,123.12 -10.875,145.146C-4.498,162.87 1.934,180.574 8.318,198.296C15.114,217.162 21.883,236.038 28.65,254.914C28.78,255.277 28.735,255.702 28.772,256.098L0,256.098Z" style="fill:rgb(237,238,239);fill-rule:nonzero;"/>
                </g>
                <g transform="matrix(1,0,0,1,240.944,389.397)">
                    <path d="M0,-256.459C0.926,-252.402 1.785,-248.329 2.789,-244.292C8.036,-223.208 13.315,-202.131 18.591,-181.054C24.454,-157.633 30.328,-134.215 36.192,-110.794C42.431,-85.879 48.673,-60.964 54.896,-36.044C57.812,-24.366 60.687,-12.678 63.575,-0.993C63.605,-0.871 63.558,-0.73 63.499,0C62.395,-2.914 61.454,-5.317 60.571,-7.741C54.7,-23.86 48.815,-39.973 42.985,-56.107C34.686,-79.075 26.43,-102.059 18.156,-125.037C11.362,-143.903 4.567,-162.768 -2.224,-181.636C-7.282,-195.691 -12.33,-209.751 -17.392,-223.805C-21.313,-234.692 -25.248,-245.575 -29.177,-256.459L0,-256.459Z" style="fill:rgb(237,238,239);fill-rule:nonzero;"/>
                </g>
                <g transform="matrix(1,0,0,1,570,366.286)">
                    <path d="M0,-34.375C-4.319,-33.375 -8.647,-32.409 -12.957,-31.369C-25.052,-28.448 -37.145,-25.52 -49.229,-22.553C-67.32,-18.11 -85.401,-13.625 -103.49,-9.172C-116.745,-5.909 -130.006,-2.672 -143.263,0.581C-161.473,5.05 -179.676,9.544 -197.891,13.99C-217.489,18.775 -237.098,23.518 -256.703,28.275C-257.016,28.351 -257.343,28.367 -257.736,28.132C-251.943,26.059 -246.154,23.977 -240.357,21.914C-221.602,15.242 -202.853,8.55 -184.085,1.915C-161.705,-5.997 -139.31,-13.863 -116.918,-21.738C-92.296,-30.397 -67.669,-39.041 -43.046,-47.698C-29.147,-52.586 -15.253,-57.488 -1.355,-62.378C-0.915,-62.533 -0.452,-62.622 0,-62.742L0,-34.375Z" style="fill:rgb(237,238,239);fill-rule:nonzero;"/>
                </g>
                <g transform="matrix(1,0,0,1,43.1866,426.373)">
                    <path d="M0,34.405C11.305,31.651 22.617,28.926 33.913,26.139C59.759,19.76 85.596,13.341 111.441,6.958C135.402,1.041 159.365,-4.871 183.337,-10.745C207.305,-16.618 231.285,-22.44 255.262,-28.276C255.637,-28.367 256.039,-28.346 256.542,-27.961C171.028,2.283 85.514,32.528 0,62.772L0,34.405" style="fill:rgb(237,238,239);fill-rule:nonzero;"/>
                </g>
                <g transform="matrix(1,0,0,1,266.475,401.036)">
                    <path d="M0,258.716C1.012,252.128 2.031,245.541 3.036,238.952C4.995,226.106 6.95,213.26 8.901,200.412C10.456,190.171 12.018,179.93 13.551,169.685C15.405,157.302 17.219,144.913 19.074,132.531C20.749,121.346 22.468,110.168 24.143,98.984C25.699,88.595 27.209,78.2 28.765,67.811C30.728,54.697 32.723,41.588 34.694,28.475C35.965,20.018 37.215,11.558 38.484,3.101C38.641,2.053 38.857,1.014 38.89,0C38.89,3.56 39.017,7.126 38.868,10.681C38.295,24.368 37.63,38.052 37.008,51.737C36.551,61.783 36.139,71.83 35.652,81.874C35.06,94.074 34.405,106.271 33.786,118.47C33.325,127.565 32.895,136.662 32.422,145.757C31.801,157.681 31.143,169.602 30.519,181.525C30.06,190.286 29.639,199.049 29.183,207.81C28.566,219.671 27.929,231.53 27.304,243.39C27.113,247.029 26.948,250.669 26.737,254.307C26.651,255.779 26.475,257.246 26.341,258.716L0,258.716Z" style="fill:rgb(237,238,239);fill-rule:nonzero;"/>
                </g>
                <g transform="matrix(1,0,0,1,346.712,388.66)">
                    <path d="M0,-255.722C-1.418,-246.539 -2.837,-237.357 -4.253,-228.174C-5.803,-218.125 -7.35,-208.075 -8.899,-198.026C-10.458,-187.912 -12.028,-177.799 -13.574,-167.683C-15.537,-154.842 -17.481,-141.997 -19.432,-129.153C-20.98,-118.972 -22.528,-108.791 -24.072,-98.609C-25.636,-88.292 -27.196,-77.975 -28.754,-67.658C-30.725,-54.611 -32.697,-41.565 -34.658,-28.517C-35.939,-19.993 -37.198,-11.466 -38.478,-2.942C-38.627,-1.952 -38.845,-0.972 -38.786,0C-38.786,-4.175 -38.902,-8.354 -38.762,-12.524C-38.481,-20.888 -38.073,-29.248 -37.693,-37.608C-37.077,-51.158 -36.447,-64.708 -35.813,-78.258C-35.368,-87.762 -34.923,-97.267 -34.45,-106.77C-33.856,-118.696 -33.235,-130.62 -32.624,-142.545C-32.155,-151.7 -31.693,-160.855 -31.21,-170.009C-30.583,-181.869 -29.933,-193.727 -29.304,-205.586C-28.714,-216.704 -28.13,-227.823 -27.559,-238.942C-27.271,-244.535 -27.016,-250.129 -26.746,-255.722L0,-255.722Z" style="fill:rgb(237,238,239);fill-rule:nonzero;"/>
                </g>
                <g transform="matrix(1,0,0,1,401.015,388.581)">
                    <path d="M0,-255.643C-1.368,-251.645 -2.69,-247.63 -4.112,-243.652C-8.415,-231.617 -12.748,-219.594 -17.085,-207.572C-24.46,-187.132 -31.88,-166.709 -39.222,-146.257C-47.154,-124.162 -55.004,-102.038 -62.915,-79.936C-69.013,-62.899 -75.148,-45.875 -81.269,-28.847C-84.569,-19.668 -87.872,-10.491 -91.178,-1.315C-91.35,-0.838 -91.564,-0.377 -92.063,0C-91.351,-2.915 -90.662,-5.835 -89.921,-8.743C-83.378,-34.417 -76.873,-60.101 -70.266,-85.759C-61.565,-119.548 -52.8,-153.321 -44.027,-187.092C-38.193,-209.55 -32.297,-231.992 -26.439,-254.445C-26.339,-254.827 -26.371,-255.243 -26.341,-255.643L0,-255.643Z" style="fill:rgb(237,238,239);fill-rule:nonzero;"/>
                </g>
                <g transform="matrix(1,0,0,1,211.767,404.884)">
                    <path d="M0,254.868C3.492,245.256 7.009,235.654 10.47,226.031C22.515,192.544 34.555,159.053 46.57,125.555C54.607,103.148 62.584,80.72 70.617,58.312C77.473,39.187 84.37,20.077 91.254,0.962C91.384,0.6 91.579,0.262 92.02,0C90.593,5.651 89.173,11.305 87.738,16.955C83.155,35.01 78.605,53.073 73.973,71.115C66.314,100.944 58.609,130.761 50.906,160.578C48.048,171.645 45.133,182.696 42.26,193.759C37.021,213.939 31.795,234.121 26.561,254.302C26.51,254.496 26.415,254.679 26.341,254.868L0,254.868Z" style="fill:rgb(237,238,239);fill-rule:nonzero;"/>
                </g>
                <g transform="matrix(1,0,0,1,570,397.558)">
                    <path d="M0,38.095C-5.062,37.374 -10.129,36.69 -15.184,35.926C-25.434,34.376 -35.677,32.774 -45.925,31.21C-58.105,29.35 -70.285,27.493 -82.469,25.663C-91.853,24.254 -101.244,22.889 -110.631,21.502C-121.217,19.937 -131.801,18.358 -142.388,16.804C-153.049,15.239 -163.714,13.709 -174.374,12.141C-184.831,10.603 -195.281,9.025 -205.737,7.487C-216.396,5.919 -227.06,4.385 -237.72,2.824C-244.3,1.861 -250.877,0.875 -255.899,0.131C-251.816,0.131 -246.193,0 -240.579,0.162C-232.282,0.401 -223.99,0.827 -215.697,1.211C-202.349,1.828 -189.003,2.475 -175.657,3.112C-166.354,3.556 -157.051,3.989 -147.75,4.456C-135.76,5.059 -123.771,5.693 -111.782,6.312C-102.824,6.774 -93.866,7.228 -84.909,7.694C-72.847,8.323 -60.785,8.972 -48.722,9.588C-36.928,10.19 -25.133,10.784 -13.336,11.335C-8.894,11.543 -4.445,11.618 0,11.754L0,38.095Z" style="fill:rgb(237,238,239);fill-rule:nonzero;"/>
                </g>
                <g transform="matrix(1,0,0,1,43.1866,395.112)">
                    <path d="M0,-38.076C5.127,-37.341 10.259,-36.633 15.382,-35.866C25.704,-34.321 36.021,-32.737 46.342,-31.181C60.388,-29.063 74.435,-26.939 88.486,-24.849C100.742,-23.025 113.005,-21.243 125.265,-19.443C135.726,-17.907 146.186,-16.365 156.648,-14.836C167.51,-13.249 178.377,-11.695 189.236,-10.088C201.627,-8.254 214.009,-6.361 226.399,-4.524C235.857,-3.121 245.322,-1.767 254.783,-0.388C255.029,-0.352 255.27,-0.279 256.104,-0.087C252.694,-0.087 249.897,0 247.108,-0.104C238.474,-0.426 229.841,-0.805 221.209,-1.193C207.384,-1.814 193.561,-2.455 179.737,-3.096C170.297,-3.534 160.857,-3.968 151.418,-4.434C138.885,-5.052 126.354,-5.705 113.822,-6.331C104.663,-6.788 95.502,-7.214 86.343,-7.677C74.008,-8.299 61.673,-8.947 49.338,-9.578C40.574,-10.026 31.811,-10.488 23.046,-10.902C15.966,-11.236 8.883,-11.511 1.8,-11.8C1.202,-11.824 0.6,-11.759 0,-11.735L0,-38.076Z" style="fill:rgb(237,238,239);fill-rule:nonzero;"/>
                </g>
                <g transform="matrix(1,0,0,1,43.1866,394.331)">
                    <path d="M0,-90.786C8.568,-87.791 17.138,-84.802 25.703,-81.799C37.2,-77.768 48.699,-73.744 60.186,-69.687C82.632,-61.758 105.061,-53.778 127.517,-45.875C151.876,-37.302 176.26,-28.802 200.627,-20.25C218.898,-13.836 237.158,-7.392 255.422,-0.956C255.959,-0.766 256.474,-0.512 256.906,0C250.854,-1.492 244.798,-2.969 238.751,-4.479C218.786,-9.462 198.816,-14.426 178.863,-19.458C156.319,-25.143 133.787,-30.882 111.256,-36.621C89.883,-42.065 68.519,-47.544 47.148,-52.998C31.898,-56.889 16.644,-60.766 1.389,-64.641C0.937,-64.756 0.464,-64.783 0,-64.851L0,-90.786Z" style="fill:rgb(237,238,239);fill-rule:nonzero;"/>
                </g>
                <g transform="matrix(1,0,0,1,570,399.191)">
                    <path d="M0,89.954C-10.845,86.119 -21.69,82.282 -32.536,78.449C-40.023,75.803 -47.512,73.161 -55.002,70.521C-67.113,66.251 -79.219,61.966 -91.339,57.721C-111.393,50.697 -131.464,43.722 -151.513,36.684C-165.402,31.808 -179.256,26.831 -193.143,21.948C-211.732,15.412 -230.339,8.925 -248.935,2.409C-250.894,1.723 -252.835,0.989 -254.714,0C-250.143,1.104 -245.564,2.178 -241.001,3.315C-210.79,10.842 -180.573,18.344 -150.378,25.93C-121.949,33.072 -93.546,40.312 -65.129,47.5C-52.347,50.733 -39.557,53.934 -26.777,57.172C-17.846,59.435 -8.925,61.735 0,64.019L0,89.954Z" style="fill:rgb(237,238,239);fill-rule:nonzero;"/>
                </g>
                <g transform="matrix(1,0,0,1,319.966,401.148)">
                    <path d="M0,258.604C-0.494,248.899 -0.989,239.193 -1.482,229.488C-1.937,220.523 -2.376,211.558 -2.847,202.594C-3.453,191.07 -4.102,179.549 -4.698,168.025C-5.196,158.397 -5.621,148.766 -6.12,139.139C-6.564,130.58 -7.079,122.025 -7.536,113.467C-7.877,107.065 -8.168,100.659 -8.497,94.256C-9.124,82.057 -9.769,69.86 -10.392,57.661C-10.812,49.437 -11.213,41.213 -11.616,32.989C-12.154,22.006 -12.685,11.022 -12.95,0C-12.288,4.361 -11.613,8.721 -10.967,13.084C-9.411,23.61 -7.858,34.136 -6.323,44.665C-4.741,55.525 -3.189,66.39 -1.611,77.251C0.239,89.981 2.122,102.705 3.953,115.437C5.362,125.23 6.698,135.035 8.095,144.83C9.653,155.759 11.254,166.682 12.814,177.61C14.098,186.61 15.331,195.618 16.619,204.617C18.156,215.347 19.744,226.07 21.279,236.801C22.318,244.065 23.304,251.336 24.314,258.604L0,258.604Z" style="fill:rgb(237,238,239);fill-rule:nonzero;"/>
                </g>
                <g transform="matrix(1,0,0,1,293.22,390.356)">
                    <path d="M0,-257.418C0.18,-252.5 0.317,-247.579 0.549,-242.664C1.016,-232.752 1.522,-222.842 2.037,-212.933C2.65,-201.137 3.303,-189.343 3.913,-177.547C4.389,-168.312 4.806,-159.073 5.284,-149.838C5.894,-138.054 6.552,-126.272 7.163,-114.488C7.635,-105.388 8.05,-96.285 8.518,-87.184C9.134,-75.185 9.785,-63.188 10.408,-51.189C10.845,-42.763 11.253,-34.335 11.685,-25.909C12.088,-18.022 12.508,-10.135 12.911,-2.248C12.949,-1.512 12.916,-0.771 12.671,0C12.101,-3.759 11.521,-7.517 10.963,-11.278C9.412,-21.734 7.863,-32.191 6.327,-42.65C5.025,-51.512 3.738,-60.376 2.453,-69.24C0.898,-79.97 -0.656,-90.701 -2.197,-101.434C-3.498,-110.499 -4.771,-119.568 -6.072,-128.633C-7.632,-139.498 -9.22,-150.358 -10.774,-161.224C-12.327,-172.082 -13.845,-182.945 -15.393,-193.804C-16.933,-204.605 -18.491,-215.403 -20.043,-226.202C-21.461,-236.07 -22.884,-245.936 -24.29,-255.806C-24.365,-256.334 -24.309,-256.88 -24.314,-257.418L0,-257.418Z" style="fill:rgb(237,238,239);fill-rule:nonzero;"/>
                </g>
                <g transform="matrix(1,0,0,1,43.1866,420.693)">
                    <path d="M0,-11.381C5.726,-11.566 11.455,-11.68 17.177,-11.952C29.311,-12.529 41.44,-13.181 53.571,-13.816C65.431,-14.437 77.291,-15.08 89.151,-15.704C95.351,-16.03 101.552,-16.328 107.752,-16.655C119.672,-17.284 131.591,-17.933 143.511,-18.557C152.339,-19.018 161.17,-19.443 169.998,-19.9C182.129,-20.529 194.257,-21.19 206.388,-21.806C215.622,-22.275 224.859,-22.698 234.094,-23.137C241.633,-23.495 249.173,-23.845 256.752,-23.909C252.302,-23.252 247.853,-22.586 243.401,-21.94C232.604,-20.371 221.808,-18.8 211.008,-17.252C201.944,-15.953 192.873,-14.696 183.808,-13.401C173.079,-11.868 162.354,-10.305 151.625,-8.77C140.694,-7.205 129.76,-5.664 118.829,-4.102C105.83,-2.245 92.835,-0.361 79.835,1.482C69.9,2.89 59.957,4.241 50.021,5.639C39.084,7.177 28.154,8.762 17.215,10.283C11.484,11.08 5.739,11.783 0,12.528L0,-11.381" style="fill:rgb(237,238,239);fill-rule:nonzero;"/>
                </g>
                <g transform="matrix(1,0,0,1,570,371.688)">
                    <path d="M0,11.689C-5.592,11.862 -11.188,11.965 -16.776,12.224C-29.785,12.825 -42.792,13.484 -55.798,14.151C-70.22,14.891 -84.639,15.679 -99.061,16.42C-108.35,16.897 -117.643,17.306 -126.933,17.784C-138.591,18.384 -150.246,19.039 -161.903,19.642C-173.696,20.253 -185.491,20.829 -197.285,21.423C-209.887,22.057 -222.489,22.703 -235.092,23.324C-241.826,23.655 -248.562,23.943 -255.329,23.965C-250.546,23.251 -245.764,22.525 -240.979,21.825C-231.187,20.392 -221.394,18.961 -211.598,17.552C-200.734,15.988 -189.866,14.452 -179,12.899C-170.137,11.632 -161.275,10.352 -152.411,9.087C-143.348,7.794 -134.283,6.517 -125.219,5.224C-115.02,3.769 -104.824,2.286 -94.622,0.847C-82.757,-0.825 -70.886,-2.45 -59.021,-4.118C-48.151,-5.647 -37.286,-7.204 -26.418,-8.752C-18.416,-9.892 -10.416,-11.044 -2.411,-12.165C-1.621,-12.276 -0.804,-12.206 0,-12.22L0,11.689Z" style="fill:rgb(237,238,239);fill-rule:nonzero;"/>
                </g>
            </g>
        </g>
        <g transform="matrix(4.16667,0,0,4.16667,0,0)">
            <g transform="matrix(1,0,0,1,355.07,320.605)">
                <path d="M0,129.178C-1.974,130.507 -3.93,131.961 -6.013,133.2C-14.104,138.012 -22.848,140.969 -32.152,142.391C-37.613,143.225 -43.1,143.325 -48.571,143.029C-62.599,142.271 -75.884,138.801 -88.038,131.535C-101.092,123.731 -110.606,112.816 -116.748,98.922C-119.924,91.738 -121.867,84.218 -122.83,76.448C-123.576,70.426 -123.686,64.357 -123.315,58.312C-122.36,42.794 -117.712,28.53 -108.339,15.98C-99.692,4.401 -88.338,-3.532 -74.901,-8.617C-68.491,-11.042 -61.875,-12.671 -55.056,-13.256C-49.924,-13.696 -44.742,-14.147 -39.612,-13.921C-26.562,-13.346 -14.32,-9.918 -3.443,-2.388C-2.376,-1.649 -1.4,-0.778 -0.378,0.028C-0.189,0.177 0.014,0.308 0.262,0.484C-0.063,0.862 -0.252,1.114 -0.473,1.335C-7.523,8.388 -14.589,15.424 -21.608,22.507C-22.383,23.288 -22.872,23.413 -23.808,22.737C-28.755,19.167 -34.301,17.206 -40.372,16.518C-50.583,15.359 -60.119,17.179 -68.791,22.775C-79.077,29.413 -85.242,38.967 -88.128,50.746C-89.351,55.737 -89.927,60.812 -89.803,65.948C-89.5,78.455 -85.767,89.745 -77.573,99.345C-71.61,106.331 -64.01,110.684 -55.019,112.459C-47.073,114.028 -39.225,113.527 -31.753,110.233C-29.251,109.13 -27.017,107.418 -24.667,105.974C-24.329,105.766 -24.027,105.502 -23.764,105.305C-15.864,113.241 -8.034,121.107 0,129.178" style="fill:rgb(89,130,131);fill-rule:nonzero;"/>
            </g>
        </g>
        <g transform="matrix(4.16667,0,0,4.16667,0,0)">
            <g transform="matrix(1,0,0,1,276.261,309.6)">
                <path d="M0,147.629L24.246,88.115L-13.53,93.128L51.108,-2.204L54.289,-0.803L31.589,61.07L76.264,53.902L3.243,149.833L0,147.629Z" style="fill:white;fill-rule:nonzero;"/>
            </g>
        </g>
        <g transform="matrix(4.16667,0,0,4.16667,0,0)">
            <g transform="matrix(1,0,0,1,278.723,310.155)">
                <path d="M0,146.33C8.249,126.082 16.499,105.833 24.936,85.124C12.549,86.767 0.531,88.362 -11.834,90.003C8.689,59.733 29.017,29.752 49.345,-0.229L49.683,-0.072C41.864,20.805 34.045,41.681 26.048,63.034C40.539,60.709 54.618,58.45 69.183,56.113C46.019,86.545 23.178,116.552 0.336,146.559C0.224,146.483 0.112,146.406 0,146.33" style="fill:rgb(89,130,131);fill-rule:nonzero;"/>
            </g>
        </g>
        <g transform="matrix(4.16667,0,0,4.16667,0,0)">
            <g transform="matrix(1,0,0,1,384.295,307.897)">
                <path d="M0,154.615C-20.65,175.265 -48.105,186.637 -77.308,186.637C-106.511,186.637 -133.966,175.265 -154.615,154.615C-175.265,133.966 -186.637,106.511 -186.637,77.308C-186.637,48.105 -175.265,20.65 -154.616,0C-133.966,-20.649 -106.511,-32.022 -77.308,-32.022C-48.105,-32.022 -20.649,-20.649 0,0C20.65,20.65 32.022,48.105 32.022,77.308C32.022,106.51 20.65,133.965 0,154.615M0.86,-0.86C-20.019,-21.739 -47.78,-33.238 -77.308,-33.238C-106.835,-33.238 -134.596,-21.739 -155.475,-0.86C-176.354,20.019 -187.853,47.78 -187.853,77.308C-187.853,106.835 -176.354,134.596 -155.475,155.475C-134.596,176.354 -106.835,187.853 -77.308,187.853C-47.78,187.853 -20.02,176.354 0.86,155.475C21.739,134.596 33.237,106.835 33.237,77.308C33.237,47.78 21.739,20.02 0.86,-0.86" style="fill:rgb(78,117,116);fill-rule:nonzero;"/>
            </g>
        </g>
        <g transform="matrix(4.16667,0,0,4.16667,0,0)">
            <g transform="matrix(-0.556806,0.830643,0.830643,0.556806,301.022,400.654)">
                <path d="M-49.347,-26.329L14.048,-26.33L-1.792,-9.154L8.966,-24.162L-49.347,-26.329Z" style="fill:white;fill-rule:nonzero;"/>
            </g>
        </g>
        <g transform="matrix(4.16667,0,0,4.16667,0,0)">
            <g transform="matrix(0.590874,-0.806764,-0.806764,-0.590874,332.586,426.029)">
                <path d="M-13.102,25.837L50.948,25.837L34.091,42.636L45.963,28.217L-13.102,25.837Z" style="fill:white;fill-rule:nonzero;"/>
            </g>
        </g>
    </g>
    <defs>
        <linearGradient id="_Linear1" x1="0" y1="0" x2="1" y2="0" gradientUnits="userSpaceOnUse" gradientTransform="matrix(1,0,0,-1,0,0.0027541)"><stop offset="0" style="stop-color:rgb(250,186,46);stop-opacity:1"/><stop offset="1" style="stop-color:rgb(250,169,25);stop-opacity:1"/></linearGradient>
        <linearGradient id="_Linear2" x1="0" y1="0" x2="1" y2="0" gradientUnits="userSpaceOnUse" gradientTransform="matrix(1,0,0,-1,0,-2.39766e-06)"><stop offset="0" style="stop-color:rgb(250,186,46);stop-opacity:1"/><stop offset="1" style="stop-color:rgb(250,169,25);stop-opacity:1"/></linearGradient>
    </defs>
</svg>
