<?xml version="1.0" encoding="UTF-8" standalone="no"?>
<!DOCTYPE svg PUBLIC "-//W3C//DTD SVG 1.1//EN" "http://www.w3.org/Graphics/SVG/1.1/DTD/svg11.dtd">
<svg width="100%" height="100%" viewBox="0 0 800 200" version="1.1" xmlns="http://www.w3.org/2000/svg" xmlns:xlink="http://www.w3.org/1999/xlink" xml:space="preserve" xmlns:serif="http://www.serif.com/" style="fill-rule:evenodd;clip-rule:evenodd;stroke-linejoin:round;stroke-miterlimit:2;">
    <g transform="matrix(1,0,0,1,-250,-550)">
        <g transform="matrix(0.364583,0,0,0.364583,350,354.167)">
            <g transform="matrix(1.27389,0,0,1.27389,-7967.83,259.318)">
                <path d="M6793.01,648.718L6685.41,648.718L6685.41,473.323L6550.33,473.323L6550.33,648.718L6443.42,648.718L6443.42,218.471L6550.33,218.471L6550.33,377.974L6685.41,377.974L6685.41,218.471L6793.01,218.471L6793.01,648.718Z" style="fill:white;fill-rule:nonzero;"/>
            </g>
        </g>
        <g transform="matrix(0.364583,0,0,0.364583,350,354.167)">
            <g transform="matrix(1.17385,0,0,1.27389,-7249.9,258.832)">
                <rect x="6877.15" y="218.471" width="116.832" height="430.246" style="fill:white;fill-rule:nonzero;"/>
            </g>
        </g>
        <g transform="matrix(0.364583,0,0,0.364583,350,354.167)">
            <g transform="matrix(1.27389,0,0,1.27389,-7919.46,258.832)">
                <path d="M7381.13,355.314C7381.13,403.381 7366.96,440.51 7338.61,466.702C7310.26,492.893 7269.99,505.989 7217.81,505.989L7185.14,505.989L7185.14,648.718L7078.02,648.718L7078.02,218.471L7217.81,218.471C7272.15,218.471 7312.96,230.341 7340.23,254.08C7367.5,277.819 7381.13,311.564 7381.13,355.314ZM7185.14,411.229L7206.33,411.229C7223.79,411.229 7237.67,406.324 7247.97,396.514C7258.27,386.705 7263.42,373.168 7263.42,355.903C7263.42,326.867 7247.33,312.349 7215.16,312.349L7185.14,312.349L7185.14,411.229Z" style="fill:white;fill-rule:nonzero;"/>
            </g>
        </g>
        <g transform="matrix(0.364583,0,0,0.364583,350,354.167)">
            <g transform="matrix(1.23914,0,0,1.23914,-7637.43,274.568)">
                <path d="M7712.96,518.055C7712.96,544.736 7706.19,568.426 7692.65,589.125C7679.12,609.823 7659.6,625.91 7634.09,637.388C7608.59,648.865 7578.67,654.603 7544.33,654.603C7515.69,654.603 7491.65,652.592 7472.23,648.57C7452.81,644.548 7432.6,637.535 7411.61,627.529L7411.61,523.94C7433.78,535.319 7456.83,544.197 7480.77,550.573C7504.7,556.949 7526.68,560.137 7546.69,560.137C7563.95,560.137 7576.61,557.146 7584.65,551.162C7592.69,545.178 7596.72,537.477 7596.72,528.06C7596.72,522.175 7595.1,517.025 7591.86,512.61C7588.62,508.196 7583.42,503.733 7576.26,499.22C7569.1,494.708 7550.02,485.487 7519.02,471.557C7490.97,458.805 7469.93,446.445 7455.9,434.477C7441.87,422.51 7431.47,408.776 7424.7,393.277C7417.94,377.778 7414.55,359.434 7414.55,338.246C7414.55,298.615 7428.97,267.715 7457.81,245.546C7486.65,223.376 7526.28,212.291 7576.7,212.291C7621.24,212.291 7666.66,222.591 7712.96,243.191L7677.35,332.949C7637.13,314.507 7602.4,305.286 7573.17,305.286C7558.07,305.286 7547.08,307.934 7540.21,313.232C7533.35,318.529 7529.91,325.101 7529.91,332.949C7529.91,341.385 7534.28,348.938 7543.01,355.609C7551.74,362.279 7575.43,374.443 7614.08,392.1C7651.16,408.776 7676.91,426.679 7691.33,445.807C7705.75,464.936 7712.96,489.018 7712.96,518.055Z" style="fill:white;fill-rule:nonzero;"/>
            </g>
        </g>
        <g transform="matrix(0.364583,0,0,0.364583,350,354.167)">
            <g transform="matrix(2.1661,0,0,2.141,-44577.5,-2720.98)">
                <path d="M20514.4,1717.94C20516.4,1717.62 20518.7,1718.3 20520.4,1719.96C20523,1722.61 20523.2,1726.74 20520.7,1729.18C20518.3,1731.63 20514.1,1731.46 20511.5,1728.82C20511.2,1728.51 20510.9,1728.19 20510.7,1727.86C20510.5,1729.14 20510,1730.35 20509,1731.3C20506.6,1733.74 20502.4,1733.58 20499.8,1730.93C20497.1,1728.29 20497,1724.15 20499.4,1721.71C20500.4,1720.76 20501.6,1720.2 20502.9,1720.03C20502.5,1719.8 20502.2,1719.53 20501.9,1719.23C20499.3,1716.58 20499.1,1712.45 20501.5,1710.01C20504,1707.56 20508.1,1707.73 20510.8,1710.37C20512.4,1712.03 20513.1,1714.28 20512.8,1716.32L20517.3,1710.09L20520.6,1713.42L20514.4,1717.94Z" style="fill:white;"/>
            </g>
        </g>
        <g transform="matrix(0.364583,0,0,0.364583,350,354.167)">
            <g transform="matrix(2.1661,0,0,2.141,-44577.5,-2720.98)">
                <path d="M20629.9,1698.88L20671.5,1740.51C20647.5,1764.51 20614.9,1778 20581,1778C20572.5,1778 20564.3,1777.18 20556.3,1775.61L20601.6,1716.03C20612.4,1712.65 20622.1,1706.7 20629.9,1698.88Z" style="fill:white;"/>
            </g>
        </g>
        <g transform="matrix(0.364583,0,0,0.364583,350,354.167)">
            <g transform="matrix(2.1661,0,0,2.141,-44577.5,-2720.98)">
                <path d="M20619.4,1592.48L20640.8,1536.84C20652,1542.76 20662.4,1550.36 20671.5,1559.49L20629.9,1601.12C20626.7,1597.9 20623.1,1595.01 20619.4,1592.48Z" style="fill:white;"/>
            </g>
        </g>
        <g transform="matrix(0.364583,0,0,0.364583,350,354.167)">
            <g transform="matrix(2.1661,0,0,2.141,-44577.5,-2720.98)">
                <path d="M20531.1,1767.87C20500.5,1754.91 20476.1,1730.5 20463.1,1699.91L20463.1,1699.91L20463.1,1699.84L20463.1,1699.84L20463.1,1699.84C20462.5,1698.31 20453,1673.02 20453,1650C20453,1626.26 20463.1,1600.09 20463.1,1600.09L20463.4,1599.37C20476.4,1569.19 20500.9,1545.04 20531.1,1532.14L20531.1,1532.13L20531.4,1532.02C20534.4,1530.89 20558.8,1522 20581,1522C20594.9,1522 20608.5,1524.25 20621.4,1528.56L20585.8,1581.02C20584.2,1580.91 20582.6,1580.86 20581,1580.86C20542.8,1580.86 20511.9,1611.84 20511.9,1650C20511.9,1680.34 20531.4,1706.13 20558.6,1715.44L20536,1769.84C20532.9,1768.68 20531.1,1767.87 20531.1,1767.87ZM20469.8,1702.53L20507.8,1686.44C20515.7,1702.38 20528.6,1715.3 20544.6,1723.24C20544.6,1723.24 20528.5,1761.22 20528.5,1761.22C20502.7,1749.05 20482,1728.3 20469.8,1702.53L20469.8,1702.53ZM20487.6,1650.28C20490.3,1653.32 20489.9,1657.72 20488,1660.12C20485.7,1662.97 20481.1,1662.97 20476.6,1660.12C20473.1,1658.12 20469.7,1652.98 20467.4,1648.7C20469.7,1644.41 20473.1,1639.28 20476.6,1637.28C20481.1,1634.42 20485.7,1634.42 20488,1637.28C20490,1639.71 20490.3,1644.2 20487.5,1647.25L20494.5,1645.98L20494.5,1651.52L20487.6,1650.28ZM20528.5,1538.78L20544.6,1576.77C20528.6,1584.7 20515.7,1597.62 20507.8,1613.56C20507.8,1613.56 20469.8,1597.47 20469.8,1597.47C20482,1571.7 20502.7,1550.95 20528.5,1538.78L20528.5,1538.78ZM20578,1538.05L20591.6,1551.61L20578,1565.17L20564.5,1551.61L20578,1538.05Z" style="fill:white;"/>
            </g>
        </g>
        <g transform="matrix(0.364583,0,0,0.364583,350,354.167)">
            <g transform="matrix(3.53224,0,0,3.4913,-62.6714,559.648)">
                <path d="M-3.137,147.957L24.936,85.124L-11.834,90.003L49.456,0.516L26.048,63.034L69.183,56.113L-3.137,147.957Z" style="fill:white;fill-rule:nonzero;"/>
            </g>
        </g>
        <g transform="matrix(0.364583,0,0,0.364583,350,354.167)">
            <g transform="matrix(2.1661,0,0,2.141,-44577.5,-2720.98)">
                <path d="M20503.6,1574.3C20501.8,1568.44 20505.8,1564.4 20509.8,1564.3C20513.7,1564.2 20517.6,1568.04 20519.4,1573.89C20520.8,1578.18 20520.1,1584.69 20519,1589.64C20514,1590.75 20507.5,1591.51 20503.2,1590.04C20497.4,1588.23 20493.5,1584.39 20493.6,1580.45C20493.7,1576.52 20497.8,1572.48 20503.6,1574.3Z" style="fill:white;"/>
            </g>
        </g>
    </g>
</svg>
