<?xml version="1.0" encoding="UTF-8" standalone="no"?>
<!DOCTYPE svg PUBLIC "-//W3C//DTD SVG 1.1//EN" "http://www.w3.org/Graphics/SVG/1.1/DTD/svg11.dtd">
<svg width="100%" height="100%" viewBox="0 0 800 700" version="1.1" xmlns="http://www.w3.org/2000/svg" xmlns:xlink="http://www.w3.org/1999/xlink" xml:space="preserve" xmlns:serif="http://www.serif.com/" style="fill-rule:evenodd;clip-rule:evenodd;stroke-linejoin:round;stroke-miterlimit:2;">
    <g transform="matrix(1,0,0,1,-250,-300)">
        <g transform="matrix(0.677083,0,0,1.2037,0,0)">
            <g id="white" transform="matrix(0.834216,0,0,0.469246,154.326,249.231)">
                <g id="emblem" transform="matrix(1.0125,0,0,1.0125,-6.21191,4.23483e-12)">
                    <g transform="matrix(-0.419259,-0.419259,0.38718,-0.38718,790.618,1229.9)">
                        <path d="M843.796,820.788C839.653,826.97 832.601,831.044 824.605,831.044C811.863,831.044 801.518,820.699 801.518,807.957C801.518,795.215 811.863,784.87 824.605,784.87C826.056,784.87 827.477,785.004 828.853,785.26C826.178,781.492 824.605,776.888 824.605,771.918C824.605,759.176 834.95,748.831 847.692,748.831C860.434,748.831 870.779,759.176 870.779,771.918C870.779,776.888 869.206,781.492 866.531,785.26C867.908,785.004 869.328,784.87 870.779,784.87C883.521,784.87 893.866,795.215 893.866,807.957C893.866,820.699 883.521,831.044 870.779,831.044C862.784,831.044 855.732,826.97 851.588,820.788L855.692,848.831L839.692,848.831L843.796,820.788Z" style="fill:white;"/>
                    </g>
                    <g transform="matrix(0.3585,-0.3585,0.345696,0.345696,50.1308,265.114)">
                        <path d="M1151,781.4C1162.37,759 1185.11,759 1196.47,770.2C1207.84,781.4 1207.84,803.8 1196.47,826.2C1188.52,843 1168.05,859.8 1151,871C1133.95,859.8 1113.48,843 1105.53,826.2C1094.16,803.8 1094.16,781.4 1105.53,770.2C1116.89,759 1139.63,759 1151,781.4Z" style="fill:white;"/>
                    </g>
                    <g transform="matrix(-0.3585,0.3585,-0.345696,-0.345696,1869.87,434.318)">
                        <path d="M1151,781.4C1162.37,759 1185.11,759 1196.47,770.2C1207.84,781.4 1207.84,803.8 1196.47,826.2C1188.52,843 1168.05,859.8 1151,871C1133.95,859.8 1113.48,843 1105.53,826.2C1094.16,803.8 1094.16,781.4 1105.53,770.2C1116.89,759 1139.63,759 1151,781.4Z" style="fill:white;"/>
                    </g>
                    <g transform="matrix(1.97396,0,0,1.97396,-39666,-2907.31)">
                        <path d="M20513.2,1486.32L20511.9,1486.86C20469.5,1504.8 20435.8,1538.54 20417.9,1580.92L20417.3,1582.2C20399.3,1625.61 20399.3,1674.39 20417.3,1717.8L20417.9,1719.08C20435.8,1761.46 20469.5,1795.2 20511.9,1813.14L20513.2,1813.68C20556.6,1831.66 20605.4,1831.66 20648.8,1813.68L20650.1,1813.14C20692.5,1795.2 20726.2,1761.46 20744.1,1719.08L20744.7,1717.8C20762.7,1674.39 20762.7,1625.61 20744.7,1582.2L20744.1,1580.92C20726.2,1538.54 20692.5,1504.8 20650.1,1486.86L20648.8,1486.32C20605.4,1468.34 20556.6,1468.34 20513.2,1486.32ZM20581,1814.21L20567.5,1800.67L20581,1787.14L20594.5,1800.67L20581,1814.21ZM20704.2,1704.34C20690.6,1735.08 20666.1,1759.63 20635.3,1773.19L20650.4,1809.66C20690.8,1792.09 20723.1,1759.85 20740.7,1719.44L20704.2,1704.34ZM20457.8,1704.34L20421.3,1719.44C20438.9,1759.85 20471.2,1792.09 20511.6,1809.66L20526.7,1773.19C20495.9,1759.64 20471.4,1735.08 20457.8,1704.34ZM20629,1533.7L20629.3,1533.84C20659.9,1546.6 20684.4,1571.09 20697.2,1601.68L20697.3,1602.04C20709.9,1632.68 20709.9,1667.32 20697.3,1697.97L20697.2,1698.32C20684.4,1728.91 20659.9,1753.4 20629.3,1766.16L20629,1766.3C20598.3,1778.91 20563.7,1778.91 20533,1766.3L20532.7,1766.16C20502.1,1753.4 20477.6,1728.91 20464.8,1698.32L20464.7,1697.97C20452.1,1667.32 20452.1,1632.68 20464.7,1602.04L20464.8,1601.68C20477.6,1571.09 20502.1,1546.6 20532.7,1533.84L20533,1533.7C20563.7,1521.09 20598.3,1521.09 20629,1533.7ZM20725,1648.42C20722.4,1645.38 20722.7,1640.99 20724.6,1638.6C20726.9,1635.75 20731.5,1635.75 20736,1638.6C20739.5,1640.6 20742.9,1645.73 20745.2,1650C20742.9,1654.27 20739.5,1659.4 20736,1661.4C20731.5,1664.25 20726.9,1664.25 20724.6,1661.4C20722.7,1658.97 20722.4,1654.49 20725.1,1651.45L20718.1,1652.71L20718.1,1647.18L20725,1648.42ZM20437,1651.58C20439.6,1654.62 20439.3,1659.01 20437.4,1661.4C20435.1,1664.25 20430.5,1664.25 20426,1661.4C20422.5,1659.4 20419.1,1654.27 20416.8,1650C20419.1,1645.73 20422.5,1640.6 20426,1638.6C20430.5,1635.75 20435.1,1635.75 20437.4,1638.6C20439.3,1641.03 20439.6,1645.51 20436.9,1648.55L20443.9,1647.29L20443.9,1652.82L20437,1651.58ZM20526.7,1526.81L20511.6,1490.34C20471.2,1507.91 20438.9,1540.15 20421.3,1580.56L20457.8,1595.66C20471.4,1564.92 20495.9,1540.37 20526.7,1526.81ZM20635.3,1526.81C20666.1,1540.36 20690.6,1564.92 20704.2,1595.66L20740.7,1580.56C20723.1,1540.15 20690.8,1507.91 20650.4,1490.34L20635.3,1526.81ZM20581,1485.79L20594.5,1499.33L20581,1512.86L20567.5,1499.33L20581,1485.79Z" style="fill:white;"/>
                    </g>
                    <g transform="matrix(0.423811,0.423811,-0.391384,0.391384,1131.22,-540.028)">
                        <path d="M843.796,820.788C839.653,826.97 832.601,831.044 824.605,831.044C811.863,831.044 801.518,820.699 801.518,807.957C801.518,795.215 811.863,784.87 824.605,784.87C826.056,784.87 827.477,785.004 828.853,785.26C826.178,781.492 824.605,776.888 824.605,771.918C824.605,759.176 834.95,748.831 847.692,748.831C860.434,748.831 870.779,759.176 870.779,771.918C870.779,776.888 869.206,781.492 866.531,785.26C867.908,785.004 869.328,784.87 870.779,784.87C883.521,784.87 893.866,795.215 893.866,807.957C893.866,820.699 883.521,831.044 870.779,831.044C862.784,831.044 855.732,826.97 851.588,820.788L855.692,848.831L839.692,848.831L843.796,820.788Z" style="fill:white;"/>
                    </g>
                    <g transform="matrix(2.48251,0,0,2.48251,903.807,168.699)">
                        <path d="M-3.553,151.783L24.936,85.124L-11.834,90.003L51.46,-3.239L26.048,63.034L69.183,56.113L-3.553,151.783Z" style="fill:white;fill-rule:nonzero;"/>
                    </g>
                    <g transform="matrix(1.97396,0,0,1.97396,-34942.3,-2892.03)">
                        <path d="M18207.5,1691.24C18212.5,1688.89 18217.2,1685.77 18221.3,1681.95C18221.3,1681.95 18255.1,1715.69 18255.1,1715.69C18236.1,1733.84 18210.9,1744.01 18184.6,1744.01C18179.1,1744.01 18173.7,1743.56 18168.4,1742.71L18207.5,1691.24ZM18145.9,1736.36C18108.9,1721.11 18082.9,1684.7 18082.9,1642.26C18082.9,1586.1 18128.5,1540.51 18184.6,1540.51C18194.7,1540.51 18204.6,1542.01 18214.1,1544.87C18214.1,1544.87 18184.7,1588.21 18184.7,1588.21C18184.7,1588.21 18184.7,1588.21 18184.6,1588.21C18154.8,1588.21 18130.6,1612.43 18130.6,1642.26C18130.6,1664.89 18144.5,1684.29 18164.3,1692.34L18145.9,1736.36ZM18231.8,1552.09C18240.2,1556.5 18248.1,1562.12 18255.1,1568.83C18255.1,1568.83 18221.3,1602.57 18221.3,1602.57C18219.3,1600.68 18217.1,1598.96 18214.8,1597.42C18214.8,1597.42 18231.8,1552.09 18231.8,1552.09L18231.8,1552.09Z" style="fill:white;"/>
                    </g>
                </g>
                <g id="type" transform="matrix(1.31229,0,0,1.31229,-294.015,-177.973)">
                    <g transform="matrix(0.626581,0,0,0.626581,-3363.83,673.526)">
                        <path d="M6793.01,648.718L6685.41,648.718L6685.41,473.323L6550.33,473.323L6550.33,648.718L6443.42,648.718L6443.42,218.471L6550.33,218.471L6550.33,377.974L6685.41,377.974L6685.41,218.471L6793.01,218.471L6793.01,648.718Z" style="fill:white;fill-rule:nonzero;"/>
                    </g>
                    <g transform="matrix(0.577376,0,0,0.626581,-3010.7,673.287)">
                        <rect x="6877.15" y="218.471" width="116.832" height="430.246" style="fill:white;fill-rule:nonzero;"/>
                    </g>
                    <g transform="matrix(0.626581,0,0,0.626581,-3340.04,673.287)">
                        <path d="M7381.13,355.314C7381.13,403.381 7366.96,440.51 7338.61,466.702C7310.26,492.893 7269.99,505.989 7217.81,505.989L7185.14,505.989L7185.14,648.718L7078.02,648.718L7078.02,218.471L7217.81,218.471C7272.15,218.471 7312.96,230.341 7340.23,254.08C7367.5,277.819 7381.13,311.564 7381.13,355.314ZM7185.14,411.229L7206.33,411.229C7223.79,411.229 7237.67,406.324 7247.97,396.514C7258.27,386.705 7263.42,373.168 7263.42,355.903C7263.42,326.867 7247.33,312.349 7215.16,312.349L7185.14,312.349L7185.14,411.229Z" style="fill:white;fill-rule:nonzero;"/>
                    </g>
                    <g transform="matrix(0.609489,0,0,0.609489,-3201.31,681.027)">
                        <path d="M7712.96,518.055C7712.96,544.736 7706.19,568.426 7692.65,589.125C7679.12,609.823 7659.6,625.91 7634.09,637.388C7608.59,648.865 7578.67,654.603 7544.33,654.603C7515.69,654.603 7491.65,652.592 7472.23,648.57C7452.81,644.548 7432.6,637.535 7411.61,627.529L7411.61,523.94C7433.78,535.319 7456.83,544.197 7480.77,550.573C7504.7,556.949 7526.68,560.137 7546.69,560.137C7563.95,560.137 7576.61,557.146 7584.65,551.162C7592.69,545.178 7596.72,537.477 7596.72,528.06C7596.72,522.175 7595.1,517.025 7591.86,512.61C7588.62,508.196 7583.42,503.733 7576.26,499.22C7569.1,494.708 7550.02,485.487 7519.02,471.557C7490.97,458.805 7469.93,446.445 7455.9,434.477C7441.87,422.51 7431.47,408.776 7424.7,393.277C7417.94,377.778 7414.55,359.434 7414.55,338.246C7414.55,298.615 7428.97,267.715 7457.81,245.546C7486.65,223.376 7526.28,212.291 7576.7,212.291C7621.24,212.291 7666.66,222.591 7712.96,243.191L7677.35,332.949C7637.13,314.507 7602.4,305.286 7573.17,305.286C7558.07,305.286 7547.08,307.934 7540.21,313.232C7533.35,318.529 7529.91,325.101 7529.91,332.949C7529.91,341.385 7534.28,348.938 7543.01,355.609C7551.74,362.279 7575.43,374.443 7614.08,392.1C7651.16,408.776 7676.91,426.679 7691.33,445.807C7705.75,464.936 7712.96,489.018 7712.96,518.055Z" style="fill:white;fill-rule:nonzero;"/>
                    </g>
                    <g transform="matrix(0.405749,0,0,0.405389,-2092.45,-177.113)">
                        <path d="M6760.61,2533.39C6698.26,2471.03 6613.68,2436 6525.5,2436C6341.99,2436 6193,2584.99 6193,2768.5C6193,2952.01 6341.99,3101 6525.5,3101C6613.68,3101 6698.26,3065.97 6760.61,3003.61L6643.06,2886.06C6611.88,2917.23 6569.59,2934.75 6525.5,2934.75C6433.74,2934.75 6359.25,2860.26 6359.25,2768.5C6359.25,2676.74 6433.74,2602.25 6525.5,2602.25C6569.59,2602.25 6611.88,2619.77 6643.06,2650.94L6760.61,2533.39Z" style="fill:white;"/>
                    </g>
                </g>
            </g>
        </g>
    </g>
</svg>
