<?xml version="1.0" encoding="UTF-8" standalone="no"?>
<!DOCTYPE svg PUBLIC "-//W3C//DTD SVG 1.1//EN" "http://www.w3.org/Graphics/SVG/1.1/DTD/svg11.dtd">
<svg width="100%" height="100%" viewBox="0 0 800 700" version="1.1" xmlns="http://www.w3.org/2000/svg" xmlns:xlink="http://www.w3.org/1999/xlink" xml:space="preserve" xmlns:serif="http://www.serif.com/" style="fill-rule:evenodd;clip-rule:evenodd;stroke-linejoin:round;stroke-miterlimit:2;">
    <g transform="matrix(1,0,0,1,-250,-300)">
        <g transform="matrix(0.677083,0,0,1.2037,0,0)">
            <g id="color" transform="matrix(0.866665,0,0,0.487499,118.155,312.578)">
                <g id="emblem" transform="matrix(0.974588,0,0,0.974588,35.7568,-129.943)">
                    <g transform="matrix(1.97395,0,0,1.97395,-39665.9,-2907.31)">
                        <path d="M20650.1,1486.86C20605.9,1468.16 20556.1,1468.16 20511.9,1486.86L20528.5,1526.01C20496.3,1539.65 20470.7,1565.29 20457,1597.5L20417.9,1580.92C20399.2,1625.08 20399.2,1674.92 20417.9,1719.08L20457,1702.5C20470.7,1734.71 20496.3,1760.35 20528.5,1773.99L20511.9,1813.14C20556.1,1831.84 20605.9,1831.84 20650.1,1813.14L20633.5,1773.99C20665.7,1760.35 20691.3,1734.71 20705,1702.5L20744.1,1719.08C20762.8,1674.92 20762.8,1625.08 20744.1,1580.92L20705,1597.5C20691.3,1565.29 20665.7,1539.65 20633.5,1526.01L20650.1,1486.86ZM20581,1814.21L20567.5,1800.67L20581,1787.14L20594.5,1800.67L20581,1814.21ZM20581,1524.21C20650.4,1524.21 20706.8,1580.58 20706.8,1650C20706.8,1719.42 20650.4,1775.79 20581,1775.79C20511.6,1775.79 20455.2,1719.42 20455.2,1650C20455.2,1580.58 20511.6,1524.21 20581,1524.21ZM20725,1648.42C20722.4,1645.38 20722.7,1640.99 20724.6,1638.6C20726.9,1635.75 20731.5,1635.75 20736,1638.6C20739.5,1640.6 20742.9,1645.73 20745.2,1650C20742.9,1654.27 20739.5,1659.4 20736,1661.4C20731.5,1664.25 20726.9,1664.25 20724.6,1661.4C20722.7,1658.97 20722.4,1654.49 20725.1,1651.45L20718.1,1652.71L20718.1,1647.18L20725,1648.42ZM20437,1651.58C20439.6,1654.62 20439.3,1659.01 20437.4,1661.4C20435.1,1664.25 20430.5,1664.25 20426,1661.4C20422.5,1659.4 20419.1,1654.27 20416.8,1650C20419.1,1645.73 20422.5,1640.6 20426,1638.6C20430.5,1635.75 20435.1,1635.75 20437.4,1638.6C20439.3,1641.03 20439.6,1645.51 20436.9,1648.55L20443.9,1647.29L20443.9,1652.82L20437,1651.58ZM20581,1485.79L20594.5,1499.33L20581,1512.86L20567.5,1499.33L20581,1485.79Z" style="fill:rgb(0,135,141);"/>
                    </g>
                    <g transform="matrix(1.97395,0,0,1.97395,-39665.9,-2907.31)">
                        <path d="M20457,1702.5L20417.9,1719.08C20435.8,1761.46 20469.5,1795.2 20511.9,1813.14L20528.5,1773.99C20496.3,1760.35 20470.7,1734.71 20457,1702.5ZM20744.1,1719.08L20705,1702.5C20691.3,1734.71 20665.7,1760.35 20633.5,1773.99L20650.1,1813.14C20692.5,1795.2 20726.2,1761.46 20744.1,1719.08ZM20697.3,1766.3C20699.2,1772.35 20695,1776.53 20690.9,1776.63C20686.9,1776.74 20682.9,1772.77 20681,1766.72C20679.5,1762.28 20680.3,1755.55 20681.4,1750.44C20686.6,1749.29 20693.3,1748.51 20697.7,1750.02C20703.8,1751.9 20707.7,1755.87 20707.6,1759.94C20707.5,1764.01 20703.4,1768.18 20697.3,1766.3ZM20475.8,1756.84C20478,1756.5 20480.3,1757.21 20482,1758.92C20484.7,1761.66 20484.9,1765.93 20482.4,1768.46C20479.8,1770.98 20475.6,1770.81 20472.8,1768.08C20472.5,1767.77 20472.2,1767.43 20472,1767.09C20471.8,1768.41 20471.3,1769.66 20470.3,1770.65C20467.7,1773.17 20463.5,1773 20460.7,1770.27C20458,1767.53 20457.8,1763.26 20460.4,1760.73C20461.3,1759.75 20462.6,1759.17 20463.9,1759C20463.6,1758.76 20463.2,1758.48 20462.9,1758.16C20460.2,1755.43 20460,1751.16 20462.5,1748.63C20465.1,1746.1 20469.3,1746.27 20472.1,1749.01C20473.8,1750.73 20474.5,1753.05 20474.2,1755.16L20478.8,1748.72L20482.3,1752.16L20475.8,1756.84ZM20528.5,1526.01L20511.9,1486.86C20469.5,1504.8 20435.8,1538.54 20417.9,1580.92C20417.9,1580.92 20457,1597.5 20457,1597.5C20470.7,1565.29 20496.3,1539.65 20528.5,1526.01ZM20650.1,1486.86L20633.5,1526.01C20665.7,1539.65 20691.3,1565.29 20705,1597.5L20744.1,1580.92C20726.2,1538.54 20692.5,1504.8 20650.1,1486.86ZM20686.2,1543.16C20684,1543.5 20681.7,1542.79 20680,1541.08C20677.3,1538.34 20677.1,1534.07 20679.6,1531.54C20682.2,1529.02 20686.4,1529.19 20689.2,1531.92C20689.5,1532.23 20689.8,1532.57 20690,1532.91C20690.2,1531.59 20690.7,1530.34 20691.7,1529.35C20694.3,1526.83 20698.5,1527 20701.3,1529.73C20704,1532.47 20704.2,1536.74 20701.6,1539.27C20700.7,1540.25 20699.4,1540.83 20698.1,1541C20698.4,1541.25 20698.8,1541.52 20699.1,1541.84C20701.8,1544.57 20702,1548.84 20699.5,1551.37C20696.9,1553.9 20692.7,1553.73 20689.9,1550.99C20688.2,1549.27 20687.5,1546.95 20687.8,1544.84L20683.2,1551.28L20679.7,1547.84L20686.2,1543.16ZM20464.7,1533.7C20462.8,1527.65 20467,1523.47 20471.1,1523.37C20475.1,1523.26 20479.1,1527.23 20481,1533.28C20482.5,1537.72 20481.7,1544.45 20480.6,1549.56C20475.4,1550.71 20468.7,1551.49 20464.3,1549.98C20458.2,1548.1 20454.3,1544.13 20454.4,1540.06C20454.5,1535.99 20458.6,1531.82 20464.7,1533.7Z" style="fill:rgb(251,174,23);"/>
                    </g>
                    <g transform="matrix(2.48251,0,0,2.48251,903.807,168.7)">
                        <path d="M-3.553,151.783L24.936,85.124L-11.834,90.003L51.46,-3.239L26.048,63.034L69.183,56.113L-3.553,151.783Z" style="fill:rgb(251,174,23);fill-rule:nonzero;"/>
                    </g>
                    <g transform="matrix(1.97395,0,0,1.97395,-34942.2,-2892.03)">
                        <path d="M18207.5,1691.24C18212.5,1688.89 18217.2,1685.77 18221.3,1681.95C18221.3,1681.95 18255.1,1715.69 18255.1,1715.69C18236.1,1733.84 18210.9,1744.01 18184.6,1744.01C18179.1,1744.01 18173.7,1743.56 18168.4,1742.71L18207.5,1691.24ZM18145.9,1736.36C18108.9,1721.11 18082.9,1684.7 18082.9,1642.26C18082.9,1586.1 18128.5,1540.51 18184.6,1540.51C18194.7,1540.51 18204.6,1542.01 18214.1,1544.87C18214.1,1544.87 18184.7,1588.21 18184.7,1588.21C18184.7,1588.21 18184.7,1588.21 18184.6,1588.21C18154.8,1588.21 18130.6,1612.43 18130.6,1642.26C18130.6,1664.89 18144.5,1684.29 18164.3,1692.34L18145.9,1736.36ZM18231.8,1552.09C18240.2,1556.5 18248.1,1562.12 18255.1,1568.83C18255.1,1568.83 18221.3,1602.57 18221.3,1602.57C18219.3,1600.68 18217.1,1598.96 18214.8,1597.42C18214.8,1597.42 18231.8,1552.09 18231.8,1552.09L18231.8,1552.09Z" style="fill:rgb(0,135,141);"/>
                    </g>
                </g>
                <g id="type" transform="matrix(1.26316,0,0,1.26316,-241.271,-301.252)">
                    <g transform="matrix(0.626581,0,0,0.626581,-3363.83,673.526)">
                        <path d="M6793.01,648.718L6685.41,648.718L6685.41,473.323L6550.33,473.323L6550.33,648.718L6443.42,648.718L6443.42,218.471L6550.33,218.471L6550.33,377.974L6685.41,377.974L6685.41,218.471L6793.01,218.471L6793.01,648.718Z" style="fill:rgb(0,135,141);fill-rule:nonzero;"/>
                    </g>
                    <g transform="matrix(0.577376,0,0,0.626581,-3010.7,673.287)">
                        <rect x="6877.15" y="218.471" width="116.832" height="430.246" style="fill:rgb(0,135,141);fill-rule:nonzero;"/>
                    </g>
                    <g transform="matrix(0.626581,0,0,0.626581,-3340.04,673.287)">
                        <path d="M7381.13,355.314C7381.13,403.381 7366.96,440.51 7338.61,466.702C7310.26,492.893 7269.99,505.989 7217.81,505.989L7185.14,505.989L7185.14,648.718L7078.02,648.718L7078.02,218.471L7217.81,218.471C7272.15,218.471 7312.96,230.341 7340.23,254.08C7367.5,277.819 7381.13,311.564 7381.13,355.314ZM7185.14,411.229L7206.33,411.229C7223.79,411.229 7237.67,406.324 7247.97,396.514C7258.27,386.705 7263.42,373.168 7263.42,355.903C7263.42,326.867 7247.33,312.349 7215.16,312.349L7185.14,312.349L7185.14,411.229Z" style="fill:rgb(0,135,141);fill-rule:nonzero;"/>
                    </g>
                    <g transform="matrix(0.609489,0,0,0.609489,-3201.31,681.027)">
                        <path d="M7712.96,518.055C7712.96,544.736 7706.19,568.426 7692.65,589.125C7679.12,609.823 7659.6,625.91 7634.09,637.388C7608.59,648.865 7578.67,654.603 7544.33,654.603C7515.69,654.603 7491.65,652.592 7472.23,648.57C7452.81,644.548 7432.6,637.535 7411.61,627.529L7411.61,523.94C7433.78,535.319 7456.83,544.197 7480.77,550.573C7504.7,556.949 7526.68,560.137 7546.69,560.137C7563.95,560.137 7576.61,557.146 7584.65,551.162C7592.69,545.178 7596.72,537.477 7596.72,528.06C7596.72,522.175 7595.1,517.025 7591.86,512.61C7588.62,508.196 7583.42,503.733 7576.26,499.22C7569.1,494.708 7550.02,485.487 7519.02,471.557C7490.97,458.805 7469.93,446.445 7455.9,434.477C7441.87,422.51 7431.47,408.776 7424.7,393.277C7417.94,377.778 7414.55,359.434 7414.55,338.246C7414.55,298.615 7428.97,267.715 7457.81,245.546C7486.65,223.376 7526.28,212.291 7576.7,212.291C7621.24,212.291 7666.66,222.591 7712.96,243.191L7677.35,332.949C7637.13,314.507 7602.4,305.286 7573.17,305.286C7558.07,305.286 7547.08,307.934 7540.21,313.232C7533.35,318.529 7529.91,325.101 7529.91,332.949C7529.91,341.385 7534.28,348.938 7543.01,355.609C7551.74,362.279 7575.43,374.443 7614.08,392.1C7651.16,408.776 7676.91,426.679 7691.33,445.807C7705.75,464.936 7712.96,489.018 7712.96,518.055Z" style="fill:rgb(0,135,141);fill-rule:nonzero;"/>
                    </g>
                    <g transform="matrix(0.405749,0,0,0.405389,-2092.45,-177.113)">
                        <path d="M6760.61,2533.39C6698.26,2471.03 6613.68,2436 6525.5,2436C6341.99,2436 6193,2584.99 6193,2768.5C6193,2952.01 6341.99,3101 6525.5,3101C6613.68,3101 6698.26,3065.97 6760.61,3003.61L6643.06,2886.06C6611.88,2917.23 6569.59,2934.75 6525.5,2934.75C6433.74,2934.75 6359.25,2860.26 6359.25,2768.5C6359.25,2676.74 6433.74,2602.25 6525.5,2602.25C6569.59,2602.25 6611.88,2619.77 6643.06,2650.94L6760.61,2533.39Z" style="fill:rgb(0,135,141);"/>
                    </g>
                </g>
            </g>
        </g>
    </g>
</svg>
