<?xml version="1.0" encoding="UTF-8" standalone="no"?>
<!DOCTYPE svg PUBLIC "-//W3C//DTD SVG 1.1//EN" "http://www.w3.org/Graphics/SVG/1.1/DTD/svg11.dtd">
<svg width="100%" height="100%" viewBox="0 0 1920 558" version="1.1" xmlns="http://www.w3.org/2000/svg" xmlns:xlink="http://www.w3.org/1999/xlink" xml:space="preserve" xmlns:serif="http://www.serif.com/" style="fill-rule:evenodd;clip-rule:evenodd;stroke-linejoin:round;stroke-miterlimit:2;">
    <g transform="matrix(1,0,0,1,0,-261.319)">
        <g transform="matrix(2.1772,0,0,2.1772,-44530.2,-3052.37)">
            <path d="M20514.4,1717.94C20516.4,1717.62 20518.7,1718.3 20520.4,1719.96C20523,1722.61 20523.2,1726.74 20520.7,1729.18C20518.3,1731.63 20514.1,1731.46 20511.5,1728.82C20511.2,1728.51 20510.9,1728.19 20510.7,1727.86C20510.5,1729.14 20510,1730.35 20509,1731.3C20506.6,1733.74 20502.4,1733.58 20499.8,1730.93C20497.1,1728.29 20497,1724.15 20499.4,1721.71C20500.4,1720.76 20501.6,1720.2 20502.9,1720.03C20502.5,1719.8 20502.2,1719.53 20501.9,1719.23C20499.3,1716.58 20499.1,1712.45 20501.5,1710.01C20504,1707.56 20508.1,1707.73 20510.8,1710.37C20512.4,1712.03 20513.1,1714.28 20512.8,1716.32L20517.3,1710.09L20520.6,1713.42L20514.4,1717.94Z" style="fill:white;"/>
        </g>
        <g transform="matrix(2.1772,0,0,2.1772,-44530.2,-3052.37)">
            <path d="M20629.9,1698.88L20671.5,1740.51C20647.5,1764.51 20614.9,1778 20581,1778C20572.5,1778 20564.3,1777.18 20556.3,1775.61L20601.6,1716.03C20612.4,1712.65 20622.1,1706.7 20629.9,1698.88Z" style="fill:white;"/>
        </g>
        <g transform="matrix(2.1772,0,0,2.1772,-44530.2,-3052.37)">
            <path d="M20619.4,1592.48L20640.8,1536.84C20652,1542.76 20662.4,1550.36 20671.5,1559.49L20629.9,1601.12C20626.7,1597.9 20623.1,1595.01 20619.4,1592.48Z" style="fill:white;"/>
        </g>
        <g transform="matrix(2.1772,0,0,2.1772,-44530.2,-3052.37)">
            <path d="M20531.1,1767.87C20500.5,1754.91 20476.1,1730.5 20463.1,1699.91L20463.1,1699.91L20463.1,1699.84L20463.1,1699.84L20463.1,1699.84C20462.5,1698.31 20453,1673.02 20453,1650C20453,1626.26 20463.1,1600.09 20463.1,1600.09L20463.4,1599.37C20476.4,1569.19 20500.9,1545.04 20531.1,1532.14L20531.1,1532.13L20531.4,1532.02C20534.4,1530.89 20558.8,1522 20581,1522C20594.9,1522 20608.5,1524.25 20621.4,1528.56L20585.8,1581.02C20584.2,1580.91 20582.6,1580.86 20581,1580.86C20542.8,1580.86 20511.9,1611.84 20511.9,1650C20511.9,1680.34 20531.4,1706.13 20558.6,1715.44L20536,1769.84C20532.9,1768.68 20531.1,1767.87 20531.1,1767.87ZM20469.8,1702.53L20507.8,1686.44C20515.7,1702.38 20528.6,1715.3 20544.6,1723.24C20544.6,1723.24 20528.5,1761.22 20528.5,1761.22C20502.7,1749.05 20482,1728.3 20469.8,1702.53L20469.8,1702.53ZM20487.6,1650.28C20490.3,1653.32 20489.9,1657.72 20488,1660.12C20485.7,1662.97 20481.1,1662.97 20476.6,1660.12C20473.1,1658.12 20469.7,1652.98 20467.4,1648.7C20469.7,1644.41 20473.1,1639.28 20476.6,1637.28C20481.1,1634.42 20485.7,1634.42 20488,1637.28C20490,1639.71 20490.3,1644.2 20487.5,1647.25L20494.5,1645.98L20494.5,1651.52L20487.6,1650.28ZM20528.5,1538.78L20544.6,1576.77C20528.6,1584.7 20515.7,1597.62 20507.8,1613.56C20507.8,1613.56 20469.8,1597.47 20469.8,1597.47C20482,1571.7 20502.7,1550.95 20528.5,1538.78L20528.5,1538.78ZM20578,1538.05L20591.6,1551.61L20578,1565.17L20564.5,1551.61L20578,1538.05Z" style="fill:white;"/>
        </g>
        <g transform="matrix(3.55033,0,0,3.55033,212.698,283.723)">
            <path d="M-3.137,147.957L24.936,85.124L-11.834,90.003L49.456,0.516L26.048,63.034L69.183,56.113L-3.137,147.957Z" style="fill:white;fill-rule:nonzero;"/>
        </g>
        <g transform="matrix(2.1772,0,0,2.1772,-44530.2,-3052.37)">
            <path d="M20503.6,1574.3C20501.8,1568.44 20505.8,1564.4 20509.8,1564.3C20513.7,1564.2 20517.6,1568.04 20519.4,1573.89C20520.8,1578.18 20520.1,1584.69 20519,1589.64C20514,1590.75 20507.5,1591.51 20503.2,1590.04C20497.4,1588.23 20493.5,1584.39 20493.6,1580.45C20493.7,1576.52 20497.8,1572.48 20503.6,1574.3Z" style="fill:white;"/>
        </g>
        <g transform="matrix(2.92562,0,0,2.92562,-59189.8,-7859.36)">
            <path d="M20547.5,2950.91L20511.2,2950.91C20511.2,2950.91 20511.2,2881.36 20511.2,2881.36L20447.6,2881.36L20447.6,2950.91C20447.6,2950.91 20411.3,2950.91 20411.3,2950.91C20411.3,2950.91 20411.3,2790.3 20411.3,2790.3C20411.3,2790.3 20447.6,2790.3 20447.6,2790.3C20447.6,2790.3 20447.6,2853.55 20447.6,2853.55L20511.2,2853.55L20511.2,2790.3C20511.2,2790.3 20547.5,2790.3 20547.5,2790.3L20547.5,2950.91Z" style="fill:white;fill-rule:nonzero;"/>
        </g>
        <g transform="matrix(2.92562,0,0,2.92562,-59209.4,-7859.36)">
            <path d="M20587.2,2950.91L20587.2,2790.3C20587.2,2790.3 20623.5,2790.3 20623.5,2790.3C20623.5,2790.3 20623.5,2950.91 20623.5,2950.91L20587.2,2950.91Z" style="fill:white;fill-rule:nonzero;"/>
        </g>
        <g transform="matrix(2.92562,0,0,2.92562,-59220.3,-7859.36)">
            <path d="M20777.1,2839.56C20777.1,2857.01 20772.1,2870.55 20761.8,2880.06C20751.4,2889.7 20736.5,2894.31 20717.3,2894.31C20717.3,2894.31 20699.3,2894.31 20699.3,2894.31L20699.3,2950.91C20699.3,2950.91 20663.2,2950.91 20663.2,2950.91C20663.2,2925.97 20663.2,2815.24 20663.2,2790.3C20663.2,2790.3 20717.3,2790.3 20717.3,2790.3C20737.4,2790.3 20752.5,2794.43 20762.6,2803.19C20772.3,2811.7 20777.1,2823.87 20777.1,2839.56ZM20699.3,2817.53L20699.3,2866.74L20712.7,2866.74C20721.1,2866.74 20727.8,2864.24 20732.7,2859.52C20737.7,2854.74 20740.4,2848.21 20740.4,2839.8C20740.4,2832.35 20738.1,2826.86 20734,2823.13C20730,2819.56 20724.2,2817.53 20716.2,2817.53C20716.2,2817.53 20699.3,2817.53 20699.3,2817.53Z" style="fill:white;fill-rule:nonzero;"/>
        </g>
        <g transform="matrix(2.92562,0,0,2.92562,-59250.7,-7859.36)">
            <path d="M20908.7,2904.1C20908.7,2913.65 20906.3,2922.14 20901.4,2929.55C20896.6,2936.99 20889.5,2942.74 20880.3,2946.86C20870.8,2951.15 20859.6,2953.25 20846.8,2953.25C20835.8,2953.25 20826.6,2952.5 20819.2,2950.96C20812.8,2949.62 20806.1,2947.4 20799.2,2944.31C20799.2,2944.31 20799.2,2914.37 20799.2,2914.37C20806,2917.41 20813,2919.9 20820.3,2921.83C20830.2,2924.48 20839.4,2925.79 20847.7,2925.79C20856,2925.79 20861.9,2924.09 20865.8,2921.24C20870.3,2917.84 20872.6,2913.42 20872.6,2908.07C20872.6,2904.6 20871.6,2901.58 20869.7,2898.98C20868.1,2896.83 20865.6,2894.6 20862.1,2892.4C20859.2,2890.56 20851.4,2886.78 20838.8,2881.11C20828.2,2876.29 20820.3,2871.67 20815,2867.15C20810,2862.93 20806.3,2858.09 20803.9,2852.62C20801.5,2847.04 20800.3,2840.42 20800.3,2832.79C20800.3,2818.79 20805.3,2807.83 20815.5,2800C20826.2,2791.78 20840.9,2787.85 20859.6,2787.85C20875.2,2787.85 20891.1,2791.17 20907.2,2797.78C20907.2,2797.78 20896.8,2824.02 20896.8,2824.02C20882.1,2817.78 20869.2,2814.72 20858.2,2814.72C20850.8,2814.72 20845.5,2816.31 20842.1,2818.92L20842.1,2818.92C20838,2822.07 20836.1,2826.03 20836.1,2830.69C20836.1,2835.47 20838.3,2839.88 20843.2,2843.65C20846.8,2846.39 20856.5,2851.45 20872.4,2858.7L20872.4,2858.7C20886.1,2864.89 20895.7,2871.38 20901.1,2878.46C20906.2,2885.24 20908.7,2893.81 20908.7,2904.1Z" style="fill:white;fill-rule:nonzero;"/>
        </g>
    </g>
</svg>
