<?xml version="1.0" encoding="UTF-8" standalone="no"?>
<!DOCTYPE svg PUBLIC "-//W3C//DTD SVG 1.1//EN" "http://www.w3.org/Graphics/SVG/1.1/DTD/svg11.dtd">
<svg width="100%" height="100%" viewBox="0 0 1090 1071" version="1.1" xmlns="http://www.w3.org/2000/svg" xmlns:xlink="http://www.w3.org/1999/xlink" xml:space="preserve" xmlns:serif="http://www.serif.com/" style="fill-rule:evenodd;clip-rule:evenodd;stroke-linejoin:round;stroke-miterlimit:2;">
    <g transform="matrix(1,0,0,1,-411.162,-1.73642e-10)">
        <g transform="matrix(-0.379977,-0.379977,0.350903,-0.350903,785.091,1170.79)">
            <path d="M843.796,820.788C839.653,826.97 832.601,831.044 824.605,831.044C811.863,831.044 801.518,820.699 801.518,807.957C801.518,795.215 811.863,784.87 824.605,784.87C826.056,784.87 827.477,785.004 828.853,785.26C826.178,781.492 824.605,776.888 824.605,771.918C824.605,759.176 834.95,748.831 847.692,748.831C860.434,748.831 870.779,759.176 870.779,771.918C870.779,776.888 869.206,781.492 866.531,785.26C867.908,785.004 869.328,784.87 870.779,784.87C883.521,784.87 893.866,795.215 893.866,807.957C893.866,820.699 883.521,831.044 870.779,831.044C862.784,831.044 855.732,826.97 851.588,820.788L855.692,848.831L839.692,848.831L843.796,820.788Z" style="fill:white;"/>
        </g>
        <g transform="matrix(0.32491,-0.32491,0.313306,0.313306,113.984,253.601)">
            <path d="M1151,781.4C1162.37,759 1185.11,759 1196.47,770.2C1207.84,781.4 1207.84,803.8 1196.47,826.2C1188.52,843 1168.05,859.8 1151,871C1133.95,859.8 1113.48,843 1105.53,826.2C1094.16,803.8 1094.16,781.4 1105.53,770.2C1116.89,759 1139.63,759 1151,781.4Z" style="fill:white;"/>
        </g>
        <g transform="matrix(-0.32491,0.32491,-0.313306,-0.313306,1806.02,449.746)">
            <path d="M1151,781.4C1162.37,759 1185.11,759 1196.47,770.2C1207.84,781.4 1207.84,803.8 1196.47,826.2C1188.52,843 1168.05,859.8 1151,871C1133.95,859.8 1113.48,843 1105.53,826.2C1094.16,803.8 1094.16,781.4 1105.53,770.2C1116.89,759 1139.63,759 1151,781.4Z" style="fill:white;"/>
        </g>
        <g transform="matrix(1.98501,0,0,1.98501,-39893.4,-2923.59)">
            <path d="M20513.2,1486.32L20511.9,1486.86C20469.5,1504.8 20435.8,1538.54 20417.9,1580.92L20417.3,1582.2C20399.3,1625.61 20399.3,1674.39 20417.3,1717.8L20417.9,1719.08C20435.8,1761.46 20469.5,1795.2 20511.9,1813.14L20513.2,1813.68C20556.6,1831.66 20605.4,1831.66 20648.8,1813.68L20650.1,1813.14C20692.5,1795.2 20726.2,1761.46 20744.1,1719.08L20744.7,1717.8C20762.7,1674.39 20762.7,1625.61 20744.7,1582.2L20744.1,1580.92C20726.2,1538.54 20692.5,1504.8 20650.1,1486.86L20648.8,1486.32C20605.4,1468.34 20556.6,1468.34 20513.2,1486.32ZM20581,1814.21L20567.5,1800.67L20581,1787.14L20594.5,1800.67L20581,1814.21ZM20704.2,1704.34C20690.6,1735.08 20666.1,1759.63 20635.3,1773.19L20650.4,1809.66C20690.8,1792.09 20723.1,1759.85 20740.7,1719.44L20704.2,1704.34ZM20457.8,1704.34L20421.3,1719.44C20438.9,1759.85 20471.2,1792.09 20511.6,1809.66L20526.7,1773.19C20495.9,1759.64 20471.4,1735.08 20457.8,1704.34ZM20629,1533.7L20629.3,1533.84C20659.9,1546.6 20684.4,1571.09 20697.2,1601.68L20697.3,1602.04C20709.9,1632.68 20709.9,1667.32 20697.3,1697.97L20697.2,1698.32C20684.4,1728.91 20659.9,1753.4 20629.3,1766.16L20629,1766.3C20598.3,1778.91 20563.7,1778.91 20533,1766.3L20532.7,1766.16C20502.1,1753.4 20477.6,1728.91 20464.8,1698.32L20464.7,1697.97C20452.1,1667.32 20452.1,1632.68 20464.7,1602.04L20464.8,1601.68C20477.6,1571.09 20502.1,1546.6 20532.7,1533.84L20533,1533.7C20563.7,1521.09 20598.3,1521.09 20629,1533.7ZM20725,1648.42C20722.4,1645.38 20722.7,1640.99 20724.6,1638.6C20726.9,1635.75 20731.5,1635.75 20736,1638.6C20739.5,1640.6 20742.9,1645.73 20745.2,1650C20742.9,1654.27 20739.5,1659.4 20736,1661.4C20731.5,1664.25 20726.9,1664.25 20724.6,1661.4C20722.7,1658.97 20722.4,1654.49 20725.1,1651.45L20718.1,1652.71L20718.1,1647.18L20725,1648.42ZM20437,1651.58C20439.6,1654.62 20439.3,1659.01 20437.4,1661.4C20435.1,1664.25 20430.5,1664.25 20426,1661.4C20422.5,1659.4 20419.1,1654.27 20416.8,1650C20419.1,1645.73 20422.5,1640.6 20426,1638.6C20430.5,1635.75 20435.1,1635.75 20437.4,1638.6C20439.3,1641.03 20439.6,1645.51 20436.9,1648.55L20443.9,1647.29L20443.9,1652.82L20437,1651.58ZM20526.7,1526.81L20511.6,1490.34C20471.2,1507.91 20438.9,1540.15 20421.3,1580.56L20457.8,1595.66C20471.4,1564.92 20495.9,1540.37 20526.7,1526.81ZM20635.3,1526.81C20666.1,1540.36 20690.6,1564.92 20704.2,1595.66L20740.7,1580.56C20723.1,1540.15 20690.8,1507.91 20650.4,1490.34L20635.3,1526.81ZM20581,1485.79L20594.5,1499.33L20581,1512.86L20567.5,1499.33L20581,1485.79Z" style="fill:white;"/>
        </g>
        <g transform="matrix(0.379977,0.379977,-0.350903,0.350903,1134.91,-467.441)">
            <path d="M843.796,820.788C839.653,826.97 832.601,831.044 824.605,831.044C811.863,831.044 801.518,820.699 801.518,807.957C801.518,795.215 811.863,784.87 824.605,784.87C826.056,784.87 827.477,785.004 828.853,785.26C826.178,781.492 824.605,776.888 824.605,771.918C824.605,759.176 834.95,748.831 847.692,748.831C860.434,748.831 870.779,759.176 870.779,771.918C870.779,776.888 869.206,781.492 866.531,785.26C867.908,785.004 869.328,784.87 870.779,784.87C883.521,784.87 893.866,795.215 893.866,807.957C893.866,820.699 883.521,831.044 870.779,831.044C862.784,831.044 855.732,826.97 851.588,820.788L855.692,848.831L839.692,848.831L843.796,820.788Z" style="fill:white;"/>
        </g>
        <g transform="matrix(2.49641,0,0,2.49641,903.493,169.644)">
            <path d="M-0.53,147.807L24.936,85.124L-11.834,90.003L49.936,0.737L26.048,63.034L69.183,56.113L-0.53,147.807Z" style="fill:white;fill-rule:nonzero;"/>
        </g>
        <g transform="matrix(1.98501,0,0,1.98501,-39893.4,-4715.1)">
            <path d="M20614.1,2597.66L20642.3,2625.83C20624.5,2641.53 20601.5,2650.27 20577.6,2650.27C20574.6,2650.27 20571.7,2650.13 20568.7,2649.87L20603.1,2604.69C20607,2602.78 20610.7,2600.43 20614.1,2597.66ZM20600.7,2457.52L20575.5,2494.51C20544.5,2495.61 20519.6,2521.18 20519.6,2552.52C20519.6,2575.39 20532.8,2595.2 20552.1,2604.65L20536.8,2641.33C20503.2,2625.84 20479.9,2591.88 20479.9,2552.52C20479.9,2498.57 20523.7,2454.77 20577.6,2454.77C20585.5,2454.77 20593.2,2455.71 20600.7,2457.52ZM20626.9,2468.09C20632.3,2471.27 20637.5,2474.99 20642.3,2479.21L20614.1,2507.38C20613.6,2506.98 20613.1,2506.59 20612.6,2506.21L20626.9,2468.09Z" style="fill:white;"/>
        </g>
        <g transform="matrix(1.67189,0,0,1.67189,-33445.2,-3871.99)">
            <path d="M20547.5,2950.91L20511.2,2950.91C20511.2,2950.91 20511.2,2881.36 20511.2,2881.36L20447.6,2881.36L20447.6,2950.91C20447.6,2950.91 20411.3,2950.91 20411.3,2950.91C20411.3,2950.91 20411.3,2790.3 20411.3,2790.3C20411.3,2790.3 20447.6,2790.3 20447.6,2790.3C20447.6,2790.3 20447.6,2853.55 20447.6,2853.55L20511.2,2853.55L20511.2,2790.3C20511.2,2790.3 20547.5,2790.3 20547.5,2790.3L20547.5,2950.91Z" style="fill:white;fill-rule:nonzero;"/>
        </g>
        <g transform="matrix(1.67189,0,0,1.67189,-33447.2,-3871.99)">
            <path d="M20587.2,2950.91L20587.2,2790.3C20587.2,2790.3 20623.5,2790.3 20623.5,2790.3C20623.5,2790.3 20623.5,2950.91 20623.5,2950.91L20587.2,2950.91Z" style="fill:white;fill-rule:nonzero;"/>
        </g>
        <g transform="matrix(1.67189,0,0,1.67189,-33449.2,-3871.99)">
            <path d="M20777.1,2839.56C20777.1,2857.01 20772.1,2870.55 20761.8,2880.06C20751.4,2889.7 20736.5,2894.31 20717.3,2894.31C20717.3,2894.31 20699.3,2894.31 20699.3,2894.31L20699.3,2950.91C20699.3,2950.91 20663.2,2950.91 20663.2,2950.91C20663.2,2925.97 20663.2,2815.24 20663.2,2790.3C20663.2,2790.3 20717.3,2790.3 20717.3,2790.3C20737.4,2790.3 20752.5,2794.43 20762.6,2803.19C20772.3,2811.7 20777.1,2823.87 20777.1,2839.56ZM20699.3,2817.53L20699.3,2866.74L20712.7,2866.74C20721.1,2866.74 20727.8,2864.24 20732.7,2859.52C20737.7,2854.74 20740.4,2848.21 20740.4,2839.8C20740.4,2832.35 20738.1,2826.86 20734,2823.13C20730,2819.56 20724.2,2817.53 20716.2,2817.53C20716.2,2817.53 20699.3,2817.53 20699.3,2817.53Z" style="fill:white;fill-rule:nonzero;"/>
        </g>
        <g transform="matrix(1.67189,0,0,1.67189,-33456.2,-3871.99)">
            <path d="M20908.7,2904.1C20908.7,2913.65 20906.3,2922.14 20901.4,2929.55C20896.6,2936.99 20889.5,2942.74 20880.3,2946.86C20870.8,2951.15 20859.6,2953.25 20846.8,2953.25C20835.8,2953.25 20826.6,2952.5 20819.2,2950.96C20812.8,2949.62 20806.1,2947.4 20799.2,2944.31C20799.2,2944.31 20799.2,2914.37 20799.2,2914.37C20806,2917.41 20813,2919.9 20820.3,2921.83C20830.2,2924.48 20839.4,2925.79 20847.7,2925.79C20856,2925.79 20861.9,2924.09 20865.8,2921.24C20870.3,2917.84 20872.6,2913.42 20872.6,2908.07C20872.6,2904.6 20871.6,2901.58 20869.7,2898.98C20868.1,2896.83 20865.6,2894.6 20862.1,2892.4C20859.2,2890.56 20851.4,2886.78 20838.8,2881.11C20828.2,2876.29 20820.3,2871.67 20815,2867.15C20810,2862.93 20806.3,2858.09 20803.9,2852.62C20801.5,2847.04 20800.3,2840.42 20800.3,2832.79C20800.3,2818.79 20805.3,2807.83 20815.5,2800C20826.2,2791.78 20840.9,2787.85 20859.6,2787.85C20875.2,2787.85 20891.1,2791.17 20907.2,2797.78C20907.2,2797.78 20896.8,2824.02 20896.8,2824.02C20882.1,2817.78 20869.2,2814.72 20858.2,2814.72C20850.8,2814.72 20845.5,2816.31 20842.1,2818.92L20842.1,2818.92C20838,2822.07 20836.1,2826.03 20836.1,2830.69C20836.1,2835.47 20838.3,2839.88 20843.2,2843.65C20846.8,2846.39 20856.5,2851.45 20872.4,2858.7L20872.4,2858.7C20886.1,2864.89 20895.7,2871.38 20901.1,2878.46C20906.2,2885.24 20908.7,2893.81 20908.7,2904.1Z" style="fill:white;fill-rule:nonzero;"/>
        </g>
        <g transform="matrix(1.67189,0,0,1.67189,-33445.2,-3871.99)">
            <path d="M20387.8,2806.4L20360.6,2834.65C20352.8,2828.21 20343,2824.66 20332.9,2824.66C20308.4,2824.66 20288.5,2845.17 20288.5,2870.55C20288.5,2895.92 20308.4,2916.43 20332.9,2916.43C20343,2916.43 20352.8,2912.89 20360.6,2906.45C20360.6,2906.45 20387.8,2934.7 20387.8,2934.7C20372.7,2948.64 20353.2,2956.41 20332.9,2956.41C20287.3,2956.41 20250.3,2917.89 20250.3,2870.55C20250.3,2823.21 20287.3,2784.69 20332.9,2784.69C20353.2,2784.69 20372.7,2792.46 20387.8,2806.4Z" style="fill:white;"/>
        </g>
    </g>
</svg>
