<?xml version="1.0" encoding="UTF-8" standalone="no"?>
<!DOCTYPE svg PUBLIC "-//W3C//DTD SVG 1.1//EN" "http://www.w3.org/Graphics/SVG/1.1/DTD/svg11.dtd">
<svg width="100%" height="100%" viewBox="0 0 401 401" version="1.1" xmlns="http://www.w3.org/2000/svg" xmlns:xlink="http://www.w3.org/1999/xlink" xml:space="preserve" xmlns:serif="http://www.serif.com/" style="fill-rule:evenodd;clip-rule:evenodd;stroke-linejoin:round;stroke-miterlimit:2;">
    <g transform="matrix(1,0,0,1,-449.583,-551.171)">
        <g transform="matrix(0.538323,0,0,0.538323,300.102,347.155)">
            <g transform="matrix(2.24205,0,0,2.24205,650,378.985)">
                <path d="M0,332.126C-22.417,332.126 -44.166,327.735 -64.64,319.075C-84.415,310.711 -102.174,298.738 -117.424,283.487C-132.675,268.237 -144.648,250.478 -153.012,230.703C-161.672,210.228 -166.063,188.481 -166.063,166.063C-166.063,143.645 -161.672,121.898 -153.012,101.423C-144.648,81.648 -132.675,63.889 -117.424,48.639C-102.174,33.388 -84.415,21.415 -64.64,13.051C-44.166,4.391 -22.417,0 0,0C22.418,0 44.165,4.391 64.64,13.051C84.415,21.415 102.174,33.388 117.424,48.639C132.675,63.889 144.648,81.648 153.012,101.423C161.672,121.898 166.063,143.645 166.063,166.063C166.063,188.481 161.672,210.228 153.012,230.703C144.648,250.478 132.675,268.237 117.424,283.487C102.174,298.738 84.415,310.711 64.64,319.075C44.165,327.735 22.418,332.126 0,332.126" style="fill:rgb(89,130,131);fill-rule:nonzero;"/>
            </g>
        </g>
        <g transform="matrix(0.538323,0,0,0.538323,300.102,347.155)">
            <g transform="matrix(0,-2.24205,-2.24205,0,650,383.527)">
                <path d="M-164.037,-164.037C-254.632,-164.037 -328.074,-90.595 -328.074,0C-328.074,90.595 -254.632,164.037 -164.037,164.037C-73.442,164.037 0,90.595 0,0C0,-90.595 -73.442,-164.037 -164.037,-164.037" style="fill:rgb(89,130,131);fill-rule:nonzero;"/>
            </g>
        </g>
        <g transform="matrix(0.538323,0,0,0.538323,300.102,347.155)">
            <g transform="matrix(435.275,390.317,390.317,-435.275,433.545,559.987)">
                <path d="M0.025,0.42C0.026,0.418 0.028,0.416 0.029,0.414C0.054,0.384 0.079,0.354 0.104,0.325C0.11,0.318 0.109,0.32 0.104,0.313C0.065,0.264 0.036,0.209 0.018,0.149C0.013,0.135 0.01,0.12 0.006,0.105C-0.038,0.108 -0.081,0.112 -0.124,0.116C-0.135,0.054 -0.137,-0.008 -0.13,-0.071C-0.086,-0.074 -0.042,-0.078 0.003,-0.082C0.003,-0.085 0.004,-0.087 0.004,-0.09C0.014,-0.141 0.031,-0.19 0.057,-0.236C0.065,-0.251 0.074,-0.265 0.083,-0.28C0.085,-0.282 0.086,-0.283 0.083,-0.285C0.075,-0.292 0.067,-0.299 0.059,-0.305C0.035,-0.325 0.012,-0.344 -0.011,-0.364C-0.013,-0.365 -0.014,-0.367 -0.012,-0.369C-0.004,-0.38 0.003,-0.39 0.012,-0.4C0.036,-0.429 0.063,-0.456 0.092,-0.481C0.1,-0.487 0.108,-0.493 0.117,-0.5C0.124,-0.494 0.131,-0.487 0.138,-0.482C0.151,-0.47 0.165,-0.459 0.178,-0.448C0.191,-0.438 0.203,-0.427 0.216,-0.417C0.218,-0.414 0.22,-0.414 0.223,-0.416C0.231,-0.421 0.238,-0.426 0.246,-0.43C0.281,-0.45 0.317,-0.466 0.356,-0.477C0.368,-0.48 0.38,-0.483 0.393,-0.486C0.389,-0.53 0.385,-0.573 0.381,-0.616C0.443,-0.627 0.505,-0.629 0.568,-0.622C0.568,-0.62 0.568,-0.618 0.569,-0.616C0.572,-0.575 0.576,-0.535 0.579,-0.494C0.58,-0.49 0.581,-0.489 0.585,-0.488C0.628,-0.48 0.67,-0.467 0.71,-0.448C0.719,-0.443 0.729,-0.438 0.738,-0.433C0.766,-0.467 0.794,-0.501 0.823,-0.534C0.876,-0.501 0.924,-0.462 0.965,-0.415C0.954,-0.401 0.944,-0.388 0.933,-0.375C0.916,-0.356 0.9,-0.336 0.884,-0.317C0.882,-0.315 0.881,-0.313 0.884,-0.31C0.891,-0.3 0.899,-0.29 0.906,-0.28C0.929,-0.246 0.948,-0.211 0.962,-0.173C0.963,-0.17 0.964,-0.168 0.968,-0.168C1.001,-0.171 1.034,-0.174 1.067,-0.177C1.077,-0.178 1.087,-0.179 1.097,-0.179C1.115,-0.119 1.124,-0.058 1.124,0.005C1.08,0.009 1.037,0.013 0.994,0.017C0.992,0.081 0.978,0.142 0.953,0.2C0.954,0.201 0.955,0.202 0.956,0.202C0.974,0.217 0.992,0.233 1.01,0.248C1.024,0.26 1.039,0.272 1.053,0.284C1.056,0.286 1.056,0.287 1.055,0.29C1.04,0.319 1.023,0.347 1.004,0.373C0.987,0.394 0.97,0.414 0.952,0.435C0.951,0.436 0.949,0.437 0.948,0.439C0.914,0.411 0.882,0.383 0.848,0.355C0.796,0.408 0.735,0.447 0.665,0.472C0.669,0.517 0.673,0.561 0.677,0.605C0.617,0.623 0.556,0.632 0.492,0.632C0.489,0.588 0.485,0.545 0.481,0.502C0.48,0.502 0.479,0.502 0.479,0.502C0.399,0.499 0.325,0.479 0.255,0.441C0.253,0.439 0.251,0.439 0.249,0.442C0.243,0.449 0.237,0.456 0.231,0.463C0.214,0.484 0.197,0.504 0.18,0.524C0.176,0.529 0.171,0.534 0.167,0.539C0.143,0.527 0.101,0.494 0.068,0.465C0.048,0.447 0.032,0.43 0.025,0.42ZM0.108,0.413C0.111,0.432 0.112,0.451 0.104,0.47C0.121,0.459 0.14,0.456 0.16,0.456C0.154,0.436 0.157,0.418 0.164,0.399C0.146,0.408 0.128,0.414 0.108,0.413ZM0.795,-0.344C0.606,-0.508 0.321,-0.49 0.154,-0.305C-0.016,-0.115 -0.002,0.174 0.188,0.344C0.377,0.514 0.662,0.496 0.829,0.317C1.007,0.127 0.991,-0.168 0.801,-0.339C0.799,-0.34 0.797,-0.342 0.795,-0.344ZM-0.09,0.02C-0.093,0.024 -0.097,0.027 -0.099,0.032C-0.102,0.038 -0.099,0.046 -0.094,0.051C-0.088,0.056 -0.08,0.057 -0.074,0.052C-0.064,0.046 -0.055,0.039 -0.046,0.031C-0.041,0.027 -0.037,0.021 -0.033,0.016C-0.047,0.005 -0.061,-0.007 -0.078,-0.013C-0.088,-0.017 -0.098,-0.013 -0.102,-0.004C-0.106,0.006 -0.101,0.015 -0.091,0.02C-0.09,0.02 -0.09,0.02 -0.09,0.02C-0.09,0.02 -0.09,0.02 -0.09,0.02ZM0.576,0.525C0.564,0.539 0.553,0.553 0.547,0.57C0.542,0.584 0.552,0.597 0.566,0.595C0.574,0.593 0.578,0.588 0.58,0.581C0.583,0.584 0.585,0.586 0.587,0.588C0.594,0.593 0.602,0.593 0.609,0.588C0.615,0.583 0.617,0.574 0.613,0.567C0.607,0.558 0.6,0.549 0.593,0.54C0.591,0.538 0.589,0.536 0.587,0.534C0.584,0.531 0.58,0.528 0.576,0.525ZM0.85,0.317C0.845,0.321 0.85,0.325 0.853,0.329C0.85,0.334 0.85,0.334 0.843,0.328C0.843,0.328 0.842,0.329 0.842,0.329C0.844,0.331 0.846,0.334 0.848,0.334C0.85,0.335 0.853,0.333 0.855,0.332C0.858,0.329 0.86,0.326 0.862,0.323C0.861,0.322 0.86,0.321 0.859,0.319C0.859,0.318 0.858,0.317 0.857,0.316C0.855,0.314 0.853,0.314 0.85,0.317ZM0.065,-0.425C0.076,-0.407 0.079,-0.389 0.079,-0.369C0.099,-0.374 0.117,-0.372 0.137,-0.365C0.127,-0.383 0.121,-0.401 0.122,-0.421C0.103,-0.418 0.084,-0.417 0.065,-0.425ZM0.919,0.29C0.929,0.307 0.935,0.325 0.933,0.345C0.953,0.342 0.971,0.341 0.991,0.349C0.979,0.332 0.977,0.313 0.976,0.294C0.957,0.299 0.939,0.296 0.919,0.29ZM0.47,-0.584C0.463,-0.587 0.457,-0.585 0.451,-0.58C0.446,-0.575 0.444,-0.568 0.447,-0.561C0.451,-0.554 0.456,-0.547 0.461,-0.54C0.467,-0.533 0.474,-0.527 0.48,-0.52C0.481,-0.519 0.482,-0.519 0.484,-0.517C0.495,-0.53 0.505,-0.544 0.512,-0.559C0.517,-0.569 0.516,-0.578 0.509,-0.583C0.499,-0.592 0.486,-0.587 0.481,-0.574C0.478,-0.576 0.476,-0.578 0.474,-0.58C0.473,-0.582 0.471,-0.583 0.47,-0.584ZM1.053,-0.121C1.045,-0.117 1.038,-0.111 1.031,-0.105C1.024,-0.1 1.018,-0.093 1.012,-0.087C1.01,-0.085 1.01,-0.083 1.012,-0.081C1.026,-0.071 1.038,-0.06 1.055,-0.054C1.063,-0.051 1.072,-0.054 1.076,-0.06C1.083,-0.069 1.08,-0.081 1.069,-0.086C1.068,-0.087 1.067,-0.087 1.066,-0.088C1.068,-0.089 1.07,-0.09 1.072,-0.092C1.078,-0.097 1.08,-0.106 1.075,-0.114C1.074,-0.115 1.073,-0.117 1.072,-0.118C1.067,-0.123 1.06,-0.124 1.053,-0.121ZM0.855,-0.449C0.846,-0.447 0.836,-0.447 0.827,-0.445C0.832,-0.427 0.829,-0.408 0.823,-0.389C0.855,-0.403 0.855,-0.403 0.878,-0.404C0.875,-0.423 0.874,-0.442 0.881,-0.459C0.873,-0.456 0.864,-0.452 0.855,-0.449Z" style="fill:url(#_Linear1);fill-rule:nonzero;"/>
            </g>
        </g>
        <g transform="matrix(0.538323,0,0,0.538323,300.102,347.155)">
            <g transform="matrix(2.24205,0,0,2.24205,512.371,1052.88)">
                <path d="M0,4.607C-3.595,3.753 -5.016,2.482 -5.144,0.096C-5.251,-1.891 -4.051,-3.833 -2.13,-4.39C1.309,-5.387 3.222,-3.247 5.044,-0.43C5.693,-3.479 6.283,-6.259 6.901,-9.162C8.246,-8.651 9.603,-8.134 10.977,-7.612C9.464,-5.008 8.014,-2.512 6.612,-0.097C8.246,-0.165 9.76,-0.401 11.232,-0.247C13.272,-0.033 14.698,1.379 15.04,3.235C15.378,5.066 14.864,6.661 13.334,7.777C11.677,8.985 9.912,9.004 8.142,7.963C7.802,7.763 7.465,7.558 7.01,7.285C6.959,10.121 6.422,12.558 3.312,13.336C1.581,13.769 -0.3,13.094 -1.314,11.594C-3.133,8.904 -1.937,6.679 0,4.607" style="fill:white;fill-rule:nonzero;"/>
            </g>
        </g>
        <g transform="matrix(0.538323,0,0,0.538323,300.102,347.155)">
            <g transform="matrix(2.24205,0,0,2.24205,794.823,433.332)">
                <path d="M0,22.384C-1.349,21.714 -2.595,21.096 -3.919,20.439C-2.172,17.99 -0.471,15.604 1.196,13.267C-0.263,13.267 -1.61,13.393 -2.923,13.238C-4.996,12.993 -6.485,11.555 -6.875,9.688C-7.267,7.811 -6.447,5.887 -4.837,4.902C-3.107,3.845 -1.168,4.003 0.569,5.348C0.81,5.534 1.044,5.73 1.444,6.052C1.726,3.192 2.492,0.782 5.635,0.3C7.594,0 9.448,0.967 10.247,2.675C11.548,5.454 10.259,7.515 8.101,9.287C11.519,10.313 12.851,11.697 12.842,14.105C12.835,16.132 11.521,17.873 9.588,18.417C6.978,19.152 5.227,18.065 2.631,13.949C1.731,16.834 0.886,19.545 0,22.384" style="fill:white;fill-rule:nonzero;"/>
            </g>
        </g>
        <g transform="matrix(0.538323,0,0,0.538323,300.102,347.155)">
            <g transform="matrix(2.24205,0,0,2.24205,932.256,918.714)">
                <path d="M0,-3.844C0.178,-5.454 0.174,-6.816 0.505,-8.091C1.059,-10.221 2.687,-11.485 4.64,-11.59C6.529,-11.691 8.23,-10.682 9.003,-9.003C9.86,-7.141 9.506,-5.301 7.95,-3.696C7.739,-3.479 7.42,-3.365 7.207,-3.06C10.1,-2.316 12.444,-1.243 12.45,2.121C12.453,3.923 11.278,5.617 9.626,6.19C6.718,7.197 4.831,5.713 3.214,3.292C2.36,6.072 0.832,7.847 -2.149,7.545C-4.075,7.351 -5.69,5.819 -5.943,4.027C-6.484,0.191 -3.837,-1.265 -0.682,-2.573C-3.52,-3.783 -6.147,-4.903 -8.901,-6.076C-8.14,-7.284 -7.388,-8.479 -6.559,-9.796C-4.335,-7.778 -2.167,-5.811 0,-3.844" style="fill:white;fill-rule:nonzero;"/>
            </g>
        </g>
        <g transform="matrix(0.538323,0,0,0.538323,300.102,347.155)">
            <g transform="matrix(2.24205,0,0,2.24205,361.948,892.429)">
                <path d="M0,-3.039C2.133,-4.543 3.998,-5.858 6.006,-7.274C6.536,-6.229 7.049,-5.219 7.606,-4.121C5.207,-3.369 2.929,-2.654 0.359,-1.848C1.175,-1.474 1.718,-1.287 2.196,-0.995C3.891,0.038 4.665,1.966 4.211,3.909C3.76,5.842 1.991,7.461 -0.253,7.345C-4.058,7.147 -7.848,6.638 -11.636,6.185C-12.91,6.033 -14.158,5.656 -15.579,5.347C-13.428,0.663 -11.39,-3.886 -8.078,-7.698C-6.084,-9.994 -3.998,-10.5 -1.884,-9.359C0.153,-8.259 0.811,-6.283 0,-3.039" style="fill:white;fill-rule:nonzero;"/>
            </g>
        </g>
        <g transform="matrix(0.538323,0,0,0.538323,300.102,347.155)">
            <g transform="matrix(2.24205,0,0,2.24205,533.052,435.015)">
                <path d="M0,9.399C1.048,11.421 2.116,13.483 3.256,15.683C2.142,16.063 1.063,16.432 -0.109,16.832C-0.512,14.367 -0.898,12 -1.343,9.278C-2.27,11.028 -3.222,12.215 -4.913,12.555C-7.747,13.125 -10.312,11.132 -10.357,8.245C-10.42,4.199 -8.993,0.473 -7.774,-3.289C-7.334,-4.648 -6.783,-5.972 -6.237,-7.433C-1.782,-4.56 2.566,-1.832 5.94,2.148C7.156,3.583 7.692,5.192 7.01,7.031C6.373,8.75 5.088,9.801 3.28,9.912C2.251,9.975 1.195,9.602 0,9.399" style="fill:white;fill-rule:nonzero;"/>
            </g>
        </g>
        <g transform="matrix(0.538323,0,0,0.538323,300.102,347.155)">
            <g transform="matrix(2.24205,0,0,2.24205,957.331,660.065)">
                <path d="M0,2.109C-2.353,3.111 -4.493,4.023 -6.733,4.977C-7.024,3.803 -7.299,2.696 -7.581,1.559C-5.1,1.327 -2.733,1.105 -0.034,0.852C-0.582,0.472 -0.89,0.27 -1.185,0.052C-2.811,-1.147 -3.436,-3.07 -2.827,-4.984C-2.24,-6.83 -0.637,-8.231 1.318,-7.997C3.749,-7.705 6.187,-7.154 8.514,-6.387C11.365,-5.447 14.104,-4.167 17.166,-2.923C15.552,-0.876 14.209,1.079 12.607,2.792C10.646,4.888 8.595,6.941 6.348,8.716C4.291,10.34 2.073,10.086 0.438,8.536C-1.203,6.981 -1.404,4.902 -0.137,2.624C-0.098,2.555 -0.093,2.466 0,2.109" style="fill:white;fill-rule:nonzero;"/>
            </g>
        </g>
        <g transform="matrix(0.538323,0,0,0.538323,300.102,347.155)">
            <g transform="matrix(2.24205,0,0,2.24205,771.617,1039.47)">
                <path d="M0,23.781C-3.266,21.837 -6.384,20.073 -9.398,18.146C-10.788,17.257 -12.06,16.136 -13.234,14.968C-14.984,13.227 -15.19,10.99 -13.969,9.058C-12.867,7.313 -10.81,6.69 -8.487,7.394C-8.365,7.431 -8.238,7.454 -7.731,7.575C-9.124,5.392 -10.359,3.457 -11.641,1.447C-10.578,0.972 -9.524,0.5 -8.406,0C-7.771,2.409 -7.169,4.695 -6.484,7.295C-6.188,6.731 -6.032,6.444 -5.884,6.152C-4.926,4.258 -2.969,3.26 -0.964,3.646C0.991,4.022 2.449,5.602 2.646,7.677C2.982,11.229 2.186,14.663 1.433,18.091C1.041,19.88 0.542,21.645 0,23.781" style="fill:white;fill-rule:nonzero;"/>
            </g>
        </g>
        <g transform="matrix(0.538323,0,0,0.538323,300.102,347.155)">
            <g transform="matrix(2.24205,0,0,2.24205,425.616,501.155)">
                <path d="M0,17.461C-4.752,17.188 -9.435,16.987 -13.869,15.262C-16.626,14.188 -17.838,11.651 -16.901,9.224C-15.919,6.678 -13.568,5.693 -10.684,6.616C-10.562,6.656 -10.438,6.69 -10.519,6.666C-10.415,5.388 -10.529,4.026 -10.152,2.816C-9.608,1.071 -7.734,0 -5.899,0.064C-3.763,0.138 -2.159,1.261 -1.644,3.231C-0.885,6.131 -0.424,9.122 -0.04,12.1C0.181,13.816 0,15.583 0,17.461" style="fill:white;fill-rule:nonzero;"/>
            </g>
        </g>
        <g transform="matrix(0.538323,0,0,0.538323,300.102,347.155)">
            <g transform="matrix(2.24205,0,0,2.24205,863.195,1006.83)">
                <path d="M0,3.29C0.18,3.939 0.391,4.474 0.47,5.028C0.782,7.233 -0.532,9.298 -2.637,9.978C-4.864,10.699 -7.281,9.817 -8.124,7.541C-8.943,5.331 -9.404,2.959 -9.766,0.618C-10.116,-1.644 -10.112,-3.96 -10.321,-6.247C-10.393,-7.04 -10.056,-7.409 -9.354,-7.336C-4.978,-6.883 -0.521,-6.884 3.645,-5.178C5.889,-4.259 7.177,-2.284 6.895,-0.268C6.48,2.689 3.807,4.419 0.952,3.577C0.667,3.493 0.383,3.406 0,3.29" style="fill:white;fill-rule:nonzero;"/>
            </g>
        </g>
        <g transform="matrix(0.538323,0,0,0.538323,300.102,347.155)">
            <g transform="matrix(2.24205,0,0,2.24205,888.94,516.013)">
                <path d="M0,18.029C0.291,13.236 0.553,8.551 2.33,4.155C3.798,0.52 8.075,-0.205 10.341,2.693C11.603,4.308 11.498,6.084 10.7,7.9C11.617,7.794 12.457,7.557 13.269,7.631C15.413,7.825 17.024,9.411 17.373,11.492C17.696,13.412 16.662,15.689 14.672,16.276C11.894,17.095 9.003,17.604 6.125,17.981C4.187,18.234 2.189,18.029 0,18.029" style="fill:white;fill-rule:nonzero;"/>
            </g>
        </g>
        <g transform="matrix(0.538323,0,0,0.538323,300.102,347.155)">
            <g transform="matrix(2.24205,0,0,2.24205,442.07,1012.59)">
                <path d="M0,-17.211C-0.068,-12.718 -0.357,-8.408 -1.591,-4.229C-2.446,-1.332 -4.197,0.111 -6.467,0.038C-9.92,-0.073 -11.744,-3.283 -10.405,-6.749C-11.67,-6.749 -13.039,-6.48 -14.242,-6.813C-16.026,-7.306 -17.024,-8.75 -17.176,-10.638C-17.338,-12.645 -16.521,-14.314 -14.696,-15.043C-12.673,-15.851 -10.507,-16.407 -8.352,-16.752C-6.004,-17.129 -3.597,-17.144 -1.215,-17.3C-0.868,-17.322 -0.516,-17.252 0,-17.211" style="fill:white;fill-rule:nonzero;"/>
            </g>
        </g>
        <g transform="matrix(0.538323,0,0,0.538323,300.102,347.155)">
            <g transform="matrix(-2.24075,-0.0762973,-0.0762973,2.24075,659.41,450.333)">
                <path d="M-0.413,-24.383C-2.067,-19.095 -5.322,-15.438 -9.208,-12.118C-4.881,-9.134 -2.41,-4.914 -0.413,0.007C1.563,-4.922 4.048,-9.13 8.375,-12.096C4.505,-15.45 1.204,-19.075 -0.413,-24.383" style="fill:white;fill-rule:nonzero;"/>
            </g>
        </g>
        <g transform="matrix(0.538323,0,0,0.538323,300.102,347.155)">
            <g transform="matrix(0.0758786,-2.24076,-2.24076,-0.0758786,325.09,744.103)">
                <path d="M-12.19,-11.768C-14.142,-6.772 -16.655,-2.583 -20.957,0.442C-17.045,3.742 -13.845,7.393 -12.19,12.609C-10.506,7.422 -7.312,3.709 -3.407,0.426C-7.702,-2.622 -10.251,-6.798 -12.19,-11.768" style="fill:white;fill-rule:nonzero;"/>
            </g>
        </g>
        <g transform="matrix(0.538323,0,0,0.538323,300.102,347.155)">
            <g transform="matrix(2.24205,0,0,2.24205,639.818,1103.69)">
                <path d="M0,-23.588C3.771,-15.456 3.771,-15.456 8.196,-11.186C4.294,-8.084 0.871,-4.582 -0.786,0C-1.925,-2.126 -2.921,-4.402 -4.292,-6.424C-5.643,-8.417 -7.374,-10.151 -9.008,-12.081C-4.782,-14.777 -2.097,-18.815 0,-23.588" style="fill:white;fill-rule:nonzero;"/>
            </g>
        </g>
        <g transform="matrix(0.538323,0,0,0.538323,300.102,347.155)">
            <g transform="matrix(-0.0761695,2.24075,2.24075,0.0761695,975.692,766.571)">
                <path d="M12.118,-12.511C10.163,-7.589 7.708,-3.397 3.372,-0.407C7.238,2.879 10.48,6.548 12.118,11.714C13.76,6.567 16.951,2.922 20.838,-0.375C16.597,-3.389 14.043,-7.549 12.118,-12.511" style="fill:white;fill-rule:nonzero;"/>
            </g>
        </g>
        <g transform="matrix(0.538323,0,0,0.538323,300.102,347.155)">
            <g transform="matrix(2.24205,0,0,2.24205,650.554,458.701)">
                <path d="M0,261.614C-34.94,261.614 -67.788,248.008 -92.495,223.301C-117.201,198.595 -130.807,165.747 -130.807,130.807C-130.807,95.867 -117.201,63.018 -92.495,38.312C-67.788,13.606 -34.94,0 0,0C34.94,0 67.788,13.606 92.495,38.312C117.201,63.018 130.807,95.867 130.807,130.807C130.807,165.747 117.201,198.595 92.495,223.301C67.788,248.008 34.94,261.614 0,261.614" style="fill:white;fill-rule:nonzero;"/>
            </g>
        </g>
        <g transform="matrix(0.538323,0,0,0.538323,300.102,347.155)">
            <g transform="matrix(2.24205,0,0,2.24205,650.554,992.554)">
                <path d="M0,-214.606C-28.662,-214.606 -55.608,-203.444 -75.875,-183.178C-96.142,-162.911 -107.303,-135.965 -107.303,-107.303C-107.303,-78.641 -96.142,-51.694 -75.875,-31.428C-55.608,-11.161 -28.662,0 0,0C28.661,0 55.607,-11.161 75.875,-31.428C96.142,-51.695 107.303,-78.641 107.303,-107.303C107.303,-135.964 96.142,-162.911 75.875,-183.178C55.608,-203.444 28.662,-214.606 0,-214.606M0,5.268C-30.069,5.268 -58.338,-6.441 -79.6,-27.703C-100.862,-48.965 -112.571,-77.234 -112.571,-107.303C-112.571,-137.372 -100.862,-165.641 -79.6,-186.903C-58.338,-208.165 -30.069,-219.874 0,-219.874C30.069,-219.874 58.338,-208.165 79.6,-186.903C100.862,-165.641 112.571,-137.372 112.571,-107.303C112.571,-77.234 100.862,-48.965 79.6,-27.703C58.338,-6.441 30.069,5.268 0,5.268" style="fill:rgb(237,238,239);fill-rule:nonzero;"/>
            </g>
        </g>
        <g transform="matrix(0.538323,0,0,0.538323,300.102,347.155)">
            <g transform="matrix(2.24205,0,0,2.24205,823.882,578.651)">
                <path d="M0,154.614C-20.65,175.264 -48.105,186.636 -77.308,186.636C-106.511,186.636 -133.966,175.264 -154.615,154.614C-175.265,133.965 -186.637,106.51 -186.637,77.307C-186.637,48.104 -175.265,20.649 -154.616,-0.001C-133.966,-20.65 -106.511,-32.023 -77.308,-32.023C-48.105,-32.023 -20.649,-20.65 0,-0.001C20.65,20.649 32.022,48.104 32.022,77.307C32.022,106.509 20.65,133.964 0,154.614M0.86,-0.861C-20.019,-21.74 -47.78,-33.238 -77.308,-33.238C-106.835,-33.238 -134.596,-21.74 -155.475,-0.861C-176.354,20.018 -187.853,47.779 -187.853,77.307C-187.853,106.834 -176.354,134.595 -155.475,155.474C-134.596,176.353 -106.835,187.852 -77.308,187.852C-47.78,187.852 -20.02,176.353 0.86,155.474C21.739,134.595 33.237,106.834 33.237,77.307C33.237,47.779 21.739,20.019 0.86,-0.861" style="fill:rgb(78,117,116);fill-rule:nonzero;"/>
            </g>
        </g>
        <g transform="matrix(0.538323,0,0,0.538323,300.102,347.155)">
            <g transform="matrix(562.929,0,0,-562.929,369.09,751.975)">
                <path d="M0.146,0.354C0.052,0.259 -0,0.134 -0,-0C-0,-0.134 0.052,-0.259 0.146,-0.354C0.241,-0.448 0.366,-0.5 0.5,-0.5C0.634,-0.5 0.759,-0.448 0.854,-0.354C0.948,-0.259 1,-0.134 1,-0C1,0.134 0.948,0.259 0.854,0.354C0.759,0.448 0.634,0.5 0.5,0.5C0.366,0.5 0.241,0.448 0.146,0.354ZM0.169,-0.331C0.081,-0.242 0.032,-0.125 0.032,-0C0.032,0.125 0.081,0.242 0.169,0.331C0.258,0.419 0.375,0.468 0.5,0.468C0.625,0.468 0.742,0.419 0.831,0.331C0.919,0.242 0.968,0.125 0.968,-0C0.968,-0.125 0.919,-0.242 0.831,-0.331C0.742,-0.419 0.625,-0.468 0.5,-0.468C0.375,-0.468 0.258,-0.419 0.169,-0.331Z" style="fill:url(#_Linear2);fill-rule:nonzero;"/>
            </g>
        </g>
        <g transform="matrix(0.538323,0,0,0.538323,300.102,347.155)">
            <g transform="matrix(2.24205,0,0,2.24205,368.475,634.221)">
                <path d="M0,3.221C-0.516,4.636 -0.992,5.943 -1.498,7.331C-4.125,5.868 -6.686,4.442 -9.194,3.045C-9.032,4.495 -8.757,5.819 -8.765,7.142C-8.778,9.229 -10.042,10.869 -11.854,11.464C-13.675,12.061 -15.679,11.46 -16.836,9.97C-18.08,8.367 -18.137,6.423 -16.994,4.547C-16.835,4.287 -16.667,4.033 -16.391,3.599C-19.265,3.638 -21.745,3.143 -22.573,0.073C-23.089,-1.84 -22.334,-3.79 -20.725,-4.774C-18.108,-6.375 -15.917,-5.323 -13.916,-3.376C-13.275,-6.886 -12.048,-8.363 -9.654,-8.622C-7.638,-8.84 -5.762,-7.728 -5.007,-5.867C-3.987,-3.355 -4.873,-1.494 -8.675,1.543C-5.708,2.117 -2.92,2.656 0,3.221" style="fill:white;fill-rule:nonzero;"/>
            </g>
        </g>
        <g transform="matrix(0.538323,0,0,0.538323,300.102,347.155)">
            <g transform="matrix(2.24205,0,0,2.24205,368.752,633.535)">
                <path d="M0,3.557C-0.525,4.983 -1.002,6.279 -1.502,7.639C-4.101,6.198 -6.619,4.801 -9.126,3.41C-8.998,5.011 -8.717,6.434 -8.808,7.834C-8.974,10.397 -11.107,12.189 -13.569,11.937C-14.012,11.892 -14.63,11.426 -14.781,11.013C-15.488,9.07 -16.079,7.084 -16.665,5.1C-16.767,4.756 -16.644,4.346 -16.62,3.87C-19.327,3.967 -21.763,3.429 -22.578,0.333C-23.091,-1.614 -22.287,-3.587 -20.566,-4.554C-18.017,-5.988 -15.897,-4.978 -13.862,-3.04C-13.778,-3.556 -13.711,-3.925 -13.659,-4.297C-13.379,-6.286 -12.153,-7.712 -10.219,-8.183C-8.375,-8.632 -6.802,-8.072 -5.636,-6.609C-4.39,-5.045 -4.212,-3.228 -5.28,-1.568C-6.102,-0.289 -7.303,0.747 -8.367,1.925C-5.742,2.437 -2.982,2.976 0,3.557" style="fill:white;fill-rule:nonzero;"/>
            </g>
        </g>
        <g transform="matrix(0.538323,0,0,0.538323,300.102,347.155)">
            <g transform="matrix(2.24205,0,0,2.24205,857.333,836.32)">
                <path d="M0,-74.273C4.261,-63.587 6.559,-52.483 6.917,-40.972C7.497,-22.273 3.271,-4.739 -5.979,11.51C-15.134,27.591 -27.871,40.134 -44.002,49.219C-52.949,54.257 -62.466,57.786 -72.52,59.805C-88.161,62.946 -103.704,62.432 -119.095,58.186C-135.744,53.594 -150.22,45.172 -162.448,33.014C-177.644,17.906 -187.185,-0.27 -190.576,-21.433C-194.393,-45.261 -190.239,-67.759 -177.876,-88.551C-167.926,-105.286 -154.108,-117.986 -136.68,-126.686C-121.017,-134.506 -104.377,-137.903 -86.932,-136.873C-63.015,-135.461 -42.191,-126.566 -24.582,-110.277C-15.548,-101.92 -8.402,-92.149 -2.991,-81.102C-2.82,-80.753 -2.692,-80.384 -2.52,-79.966C-2.89,-80.006 -0.588,-75.749 0,-74.273M-96.895,75.132C-161.539,72.472 -205.025,18.761 -205.262,-35.176C-203.765,-35.609 -203.753,-35.59 -203.707,-34.074C-203.066,-12.947 -196.862,6.437 -185.131,23.983C-171.823,43.888 -153.885,58.094 -131.487,66.582C-117.217,71.99 -102.4,74.286 -87.177,73.493C-60.927,72.127 -37.84,62.741 -18.265,45.202C0.892,28.038 12.804,6.669 17.163,-18.718C21.391,-43.341 17.73,-66.848 6.243,-89.051C-0.981,-103.015 -10.824,-114.88 -23.13,-124.684C-37.73,-136.314 -54.208,-143.903 -72.578,-147.138C-97.89,-151.597 -122.07,-148.007 -144.781,-135.872C-166.899,-124.054 -183.225,-106.627 -193.77,-83.864C-199.317,-71.891 -202.513,-59.281 -203.463,-46.113C-203.586,-44.408 -203.681,-42.701 -203.797,-40.858C-204.337,-40.816 -204.769,-40.782 -205.206,-40.748C-204.954,-90.958 -165.756,-143.572 -104.022,-149.868C-37.283,-156.674 18.141,-105.469 20.368,-41.761C22.685,24.481 -31.538,77.822 -96.895,75.132M-204.434,-37.958C-204.137,-37.931 -203.874,-37.539 -203.326,-37.095C-203.92,-36.575 -204.285,-36.255 -204.65,-35.936C-204.883,-36.232 -205.251,-36.5 -205.32,-36.83C-205.453,-37.466 -205.188,-38.027 -204.434,-37.958M-204.64,-40.119C-204.372,-40.148 -204.054,-39.717 -203.76,-39.497C-204.144,-39.078 -204.528,-38.658 -204.912,-38.239C-205.035,-38.342 -205.157,-38.445 -205.28,-38.548C-205.277,-39.154 -205.82,-39.991 -204.64,-40.119M27.134,-40.348C25.781,-104.328 -26.29,-157.348 -92.536,-157.28C-159.104,-157.211 -212.154,-103.786 -212.136,-37.322C-212.059,27.743 -159.727,80.863 -94.51,81.949C-26.962,83.075 28.582,28.092 27.134,-40.348" style="fill:white;fill-rule:nonzero;"/>
            </g>
        </g>
        <g transform="matrix(0.538323,0,0,0.538323,300.102,347.155)">
            <g transform="matrix(1.85762,0,0,1.85762,-557.476,-644.883)">
                <path d="M642.235,622.194C644.93,622.027 647.637,621.943 650.364,621.943C652.431,621.943 654.486,621.991 656.528,622.087L656.363,625.383C655.792,636.853 655.255,648.325 654.718,659.795C653.953,676.149 653.192,692.504 652.449,708.858C651.99,718.948 651.498,729.038 651.159,739.133C650.999,743.897 651.116,748.671 651.129,753.441C651.115,753.711 651.113,753.98 651.13,754.248C651.13,753.979 651.129,753.71 651.129,753.441C651.175,752.533 651.363,751.619 651.501,750.698C653.046,740.41 654.566,730.118 656.112,719.83C658.479,704.082 660.859,688.336 663.238,672.589C665.118,660.137 667.001,647.685 668.889,635.233C669.481,631.329 670.073,627.424 670.666,623.521C675.499,624.278 680.243,625.303 684.882,626.579C682.809,634.604 680.741,642.625 678.675,650.647C670.701,681.614 662.85,712.614 654.953,743.601C654.058,747.111 653.227,750.635 652.367,754.153C652.97,753.698 653.228,753.142 653.436,752.566C657.426,741.491 661.412,730.415 665.395,719.336C672.783,698.785 680.187,678.237 687.547,657.675C690.772,648.666 693.988,639.655 697.202,630.641C701.685,632.374 706.047,634.348 710.268,636.546C692.34,674.084 674.49,711.652 656.608,749.206C655.478,751.579 654.41,753.981 653.314,756.369C654.464,755.511 655.168,754.431 655.836,753.331C673.054,725.051 690.275,696.776 707.477,668.488C712.483,660.255 717.488,652.022 722.493,643.785C726.442,646.426 730.239,649.278 733.866,652.323C728.184,659.838 722.507,667.354 716.835,674.874C697.961,699.896 679.193,724.998 660.386,750.071C659.336,751.47 658.366,752.928 657.358,754.358C660.791,751.243 663.837,747.858 666.91,744.496C684.712,725.022 702.539,705.57 720.321,686.078C727.954,677.711 735.542,669.304 743.144,660.91C746.332,664.161 749.35,667.579 752.182,671.146C743.175,679.256 734.199,687.398 725.213,695.529C705.704,713.18 686.204,730.842 666.711,748.511C663.698,751.243 660.745,754.043 657.764,756.811C657.892,756.962 658.021,757.114 658.149,757.265C661.915,754.487 665.67,751.694 669.448,748.931C699.717,726.793 729.986,704.655 760.265,682.527C762.737,686.435 765.006,690.485 767.055,694.658C763.297,696.862 759.535,699.07 755.774,701.278C729.051,716.971 702.362,732.721 675.666,748.457C670.733,751.363 665.829,754.319 660.913,757.252C661.435,757.486 661.789,757.358 662.131,757.199C673.619,751.848 685.114,746.511 696.592,741.137C721.095,729.662 745.596,718.183 770.085,706.678L771.903,705.824C773.493,710.017 774.872,714.314 776.027,718.701C765.768,722.314 755.512,725.931 745.258,729.556C722.606,737.564 699.977,745.641 677.341,753.694C670.344,756.184 663.357,758.697 656.365,761.199C656.84,761.482 657.234,761.463 657.612,761.371C681.274,755.63 704.941,749.905 728.595,744.13C745.323,740.047 762.043,735.93 778.763,731.819C779.444,736.213 779.905,740.681 780.134,745.212C770.553,746.581 760.975,747.963 751.396,749.333C738.281,751.207 725.164,753.061 712.052,754.949C700.228,756.649 688.409,758.376 676.59,760.106C670.815,760.951 665.043,761.827 659.271,762.689C667.438,762.662 675.568,762.315 683.696,761.915C698.907,761.166 714.117,760.386 729.327,759.621C743.561,758.904 757.797,758.209 772.031,757.471C774.755,757.33 777.478,757.187 780.202,757.042C780.032,761.378 779.651,765.659 779.067,769.872C771.188,769.49 763.309,769.12 755.43,768.744C739.322,767.975 723.215,767.195 707.104,766.45C697.095,765.986 687.087,765.472 677.073,765.184C670.297,764.988 663.511,765.146 658.583,765.146C664.644,766.044 672.582,767.234 680.524,768.397C693.39,770.281 706.261,772.132 719.125,774.025C731.745,775.881 744.358,777.785 756.979,779.642C763.542,780.607 770.106,781.561 776.671,782.514C775.644,786.764 774.408,790.934 772.977,795.003C740.846,786.951 708.702,778.967 676.564,770.96C671.056,769.588 665.53,768.291 660.013,766.959C662.281,768.153 664.623,769.039 666.988,769.866C689.432,777.731 711.89,785.56 734.326,793.449C745.793,797.481 757.243,801.567 768.7,805.63C766.959,809.459 765.036,813.189 762.941,816.813C754.52,812.862 746.1,808.914 737.679,804.969C711.11,792.519 684.491,780.177 657.891,767.793C657.183,767.464 656.439,767.21 655.711,766.921C660.83,770.549 666.132,773.715 671.434,776.883C699.646,793.745 727.846,810.626 756.071,827.465C753.679,830.805 751.132,834.027 748.444,837.117L747.108,836.129C724.326,819.292 701.503,802.511 678.69,785.714C670.925,779.995 663.14,774.304 655.364,768.601C655.598,769.207 655.973,769.678 656.416,770.073C660.365,773.59 664.334,777.085 668.282,780.605C678.915,790.086 689.553,799.563 700.168,809.067C713.664,821.15 727.134,833.265 740.631,845.349C737.74,848.143 734.72,850.803 731.58,853.319C728.802,850.295 726.022,847.27 723.241,844.246C701.626,820.747 679.882,797.366 658.19,773.937C657.549,773.245 656.852,772.606 656.18,771.942C657.85,774.979 659.864,777.627 661.857,780.292C681.826,807.014 701.81,833.725 721.769,860.461C718.359,862.708 714.837,864.799 711.21,866.725C696.94,842.893 682.644,819.079 668.348,795.266C663.204,786.697 658.022,778.15 652.856,769.593C653.292,771.483 654.075,773.212 654.892,774.923C670.237,807.046 685.539,839.191 700.947,871.282L701.077,871.554C697.419,873.106 693.676,874.495 689.857,875.712C688.903,873.061 687.948,870.408 686.992,867.755C677.411,841.174 667.768,814.613 658.138,788.049C656.237,782.803 654.274,777.578 652.339,772.345C653.317,778.201 654.669,783.945 656.088,789.672C663.457,819.393 670.803,849.118 678.21,878.832C674.332,879.679 670.388,880.352 666.387,880.844C665.495,874.75 664.603,868.655 663.717,862.558C661.813,849.45 659.939,836.336 658.03,823.229C656.177,810.521 654.303,797.816 652.425,785.112C651.645,779.846 650.831,774.584 650.032,769.32C650.351,782.623 650.992,795.88 651.642,809.136C652.128,819.062 652.612,828.988 653.119,838.914C653.848,853.187 654.602,867.458 655.336,881.729C653.687,881.791 652.029,881.823 650.364,881.823C648.046,881.823 645.742,881.762 643.449,881.641C643.681,877.096 643.909,872.55 644.13,868.003C644.718,855.88 645.215,843.754 645.766,831.629C646.517,815.112 647.32,798.596 648.011,782.077C648.191,777.786 648.038,773.482 648.038,769.185C647.998,770.409 647.737,771.663 647.548,772.928C646.016,783.135 644.508,793.346 642.974,803.553C640.595,819.38 638.187,835.202 635.818,851.029C634.349,860.836 632.914,870.647 631.459,880.457C627.44,879.871 623.48,879.101 619.597,878.158C621.183,871.995 622.769,865.829 624.352,859.662C629.943,837.886 635.434,816.085 640.966,794.293C642.698,787.474 644.412,780.65 646.134,773.83C645.602,774.146 645.366,774.554 645.209,774.991C636.901,798.061 628.576,821.126 620.302,844.209C616.602,854.529 612.912,864.853 609.225,875.175C605.386,873.895 601.627,872.441 597.95,870.818C611.522,842.33 625.056,813.825 638.599,785.323C641.033,780.2 643.288,774.989 645.626,769.82C645.093,770.503 644.486,771.142 644.038,771.878C625.059,803.052 606.089,834.232 587.121,865.421C583.628,863.471 580.234,861.364 576.947,859.109C588.576,843.691 600.187,828.263 611.798,812.834C622.465,798.66 633.076,784.443 643.733,770.261C644.409,769.361 645.267,768.599 646.041,767.773C645.382,768.13 644.566,768.344 644.087,768.867C637.992,775.494 631.962,782.179 625.885,788.822C610.22,805.95 594.506,823.033 578.875,840.192C575.205,844.221 571.539,848.254 567.876,852.287C564.808,849.764 561.858,847.103 559.033,844.311C563.886,839.952 568.738,835.592 573.59,831.23C594.06,812.824 614.445,794.324 634.862,775.859C637.807,773.195 640.713,770.489 643.637,767.802C642.83,767.694 642.368,767.979 641.932,768.299C623.038,782.166 604.161,796.056 585.254,809.906C573.729,818.347 562.204,826.789 550.675,835.233C548.082,832.135 545.631,828.914 543.333,825.583C573.408,807.839 603.442,790.023 633.497,772.241C635.926,770.804 638.31,769.291 640.715,767.814C640.222,767.577 639.93,767.681 639.651,767.813C615.18,779.386 590.716,790.975 566.238,802.534C556.627,807.073 547.015,811.613 537.405,816.15C535.305,812.468 533.381,808.674 531.643,804.779L641.236,766.019C640.628,765.554 640.143,765.529 639.691,765.639C610.752,772.682 581.809,779.709 552.881,786.798C544.288,788.903 535.696,791.013 527.107,793.125C525.784,789.171 524.646,785.132 523.704,781.02C533.619,779.592 543.533,778.154 553.45,776.737C564.391,775.174 575.339,773.657 586.279,772.089C599.314,770.221 612.344,768.325 625.375,766.431C630.748,765.651 636.118,764.847 641.489,764.054C632.342,764.132 623.241,764.554 614.142,764.986C602.996,765.516 591.847,766.027 580.702,766.593C566.061,767.336 551.423,768.134 536.782,768.893C531.732,769.154 526.682,769.407 521.631,769.66C521.061,765.492 520.688,761.264 520.523,756.985C529.86,757.436 539.198,757.866 548.536,758.299C565.221,759.073 581.905,759.847 598.591,760.596C609.009,761.065 619.428,761.522 629.849,761.911C633.215,762.036 636.591,761.931 640.707,761.931C639.7,761.699 639.409,761.611 639.113,761.568C627.694,759.903 616.27,758.269 604.855,756.576C589.901,754.359 574.956,752.074 560.001,749.861C546.895,747.921 533.779,746.045 520.669,744.13L520.653,744.128C520.91,739.752 521.384,735.435 522.065,731.18C530.537,733.328 539.008,735.471 547.481,737.608C571.563,743.681 595.666,749.672 619.763,755.687C627.061,757.509 634.37,759.292 641.675,761.093C641.154,760.475 640.532,760.168 639.884,759.939C617.84,752.171 595.801,744.393 573.749,736.652C557.342,730.893 540.928,725.154 524.515,719.408C525.623,715.103 526.946,710.885 528.47,706.77C535.655,710.135 542.841,713.496 550.029,716.853C576.827,729.365 603.678,741.763 630.511,754.202C634.445,756.025 638.408,757.794 642.357,759.588C639.845,757.568 637.134,755.944 634.42,754.327C601.229,734.555 568.037,714.784 534.846,695.013L533.803,694.392C535.826,690.297 538.059,686.324 540.485,682.491C552.066,691.077 563.653,699.658 575.248,708.227C595.282,723.033 615.373,737.76 635.445,752.516C638.019,754.409 640.624,756.261 643.214,758.133C642.91,757.256 642.348,756.715 641.767,756.197C630.88,746.504 619.981,736.826 609.105,727.122C589.303,709.452 569.515,691.767 549.721,674.089L547.671,672.258C550.5,668.615 553.519,665.126 556.713,661.806L566.999,672.996C577.195,684.09 587.397,695.181 597.625,706.245C610.009,719.643 622.417,733.017 634.829,746.39C637.304,749.055 639.838,751.664 642.345,754.299C642.508,753.637 642.314,753.303 642.084,752.996C629.011,735.529 615.926,718.069 602.861,700.596C590.841,684.519 578.828,668.437 566.82,652.357C570.389,649.358 574.121,646.548 578,643.942C583.684,653.417 589.372,662.886 595.067,672.351C610.923,698.704 626.92,724.972 642.856,751.276C643.597,752.5 644.358,753.711 645.11,754.928C645.205,754.212 644.971,753.707 644.729,753.206C639.197,741.708 633.662,730.213 628.133,718.716C615.084,691.583 602.038,664.449 588.993,637.321C593.175,635.076 597.494,633.053 601.933,631.269C608.668,649.988 615.406,668.708 622.167,687.42C629.203,706.893 636.306,726.34 643.392,745.795C644.458,748.721 645.594,751.621 646.926,755.138C646.997,754.257 647.054,754.087 647.018,753.939C643.532,739.836 640.062,725.73 636.543,711.635C629.474,683.329 622.386,655.029 615.299,626.73C619.86,625.455 624.523,624.422 629.27,623.647C629.754,627.056 630.24,630.463 630.729,633.87C632.589,646.824 634.464,659.776 636.341,672.727C637.892,683.425 639.446,694.123 641.017,704.819C642.871,717.443 644.74,730.064 646.612,742.684C647.286,747.223 647.986,751.759 648.674,756.295C648.97,755.365 649.009,754.471 648.964,753.582C648.477,744.063 647.97,734.544 647.484,725.025C646.962,714.855 646.47,704.683 645.943,694.513C645.191,680.031 644.405,665.551 643.661,651.069C643.166,641.445 642.721,631.818 642.235,622.194Z" style="fill:rgb(237,238,239);fill-rule:nonzero;"/>
            </g>
        </g>
        <g transform="matrix(0.538323,0,0,0.538323,300.102,347.155)">
            <g transform="matrix(2.24205,0,0,2.24205,757.774,603.642)">
                <path d="M0,129.178C-1.974,130.507 -3.93,131.961 -6.013,133.2C-14.104,138.012 -22.848,140.969 -32.152,142.391C-37.613,143.225 -43.1,143.325 -48.571,143.029C-62.599,142.271 -75.884,138.801 -88.038,131.535C-101.092,123.731 -110.606,112.816 -116.748,98.922C-119.924,91.738 -121.867,84.218 -122.83,76.448C-123.576,70.426 -123.686,64.357 -123.315,58.312C-122.36,42.794 -117.712,28.53 -108.339,15.98C-99.692,4.401 -88.338,-3.532 -74.901,-8.617C-68.491,-11.042 -61.875,-12.671 -55.056,-13.256C-49.924,-13.696 -44.742,-14.147 -39.612,-13.921C-26.562,-13.346 -14.32,-9.918 -3.443,-2.388C-2.376,-1.649 -1.4,-0.778 -0.378,0.028C-0.189,0.177 0.014,0.308 0.262,0.484C-0.063,0.862 -0.252,1.114 -0.473,1.335C-7.523,8.388 -14.589,15.424 -21.608,22.507C-22.383,23.288 -22.872,23.413 -23.808,22.737C-28.755,19.167 -34.301,17.206 -40.372,16.518C-50.583,15.359 -60.119,17.179 -68.791,22.775C-79.077,29.413 -85.242,38.967 -88.128,50.746C-89.351,55.737 -89.927,60.812 -89.803,65.948C-89.5,78.455 -85.767,89.745 -77.573,99.345C-71.61,106.331 -64.01,110.684 -55.019,112.459C-47.073,114.028 -39.225,113.527 -31.753,110.233C-29.251,109.13 -27.017,107.418 -24.667,105.974C-24.329,105.766 -24.027,105.502 -23.764,105.305C-15.864,113.241 -8.034,121.107 0,129.178" style="fill:rgb(89,130,131);fill-rule:nonzero;"/>
            </g>
        </g>
        <g transform="matrix(0.538323,0,0,0.538323,300.102,347.155)">
            <g transform="matrix(2.24205,0,0,2.24205,581.082,578.968)">
                <path d="M0,147.629L24.246,88.115L-13.53,93.128L51.108,-2.204L54.289,-0.803L31.589,61.07L76.264,53.902L3.243,149.833L0,147.629Z" style="fill:white;fill-rule:nonzero;"/>
            </g>
        </g>
        <g transform="matrix(0.538323,0,0,0.538323,300.102,347.155)">
            <g transform="matrix(2.24205,0,0,2.24205,586.602,580.214)">
                <path d="M0,146.33C8.249,126.082 16.499,105.833 24.936,85.124C12.549,86.767 0.531,88.362 -11.834,90.003C8.689,59.733 29.017,29.752 49.345,-0.229L49.683,-0.072C41.864,20.805 34.045,41.681 26.048,63.034C40.539,60.709 54.618,58.45 69.183,56.113C46.019,86.545 23.178,116.552 0.336,146.559C0.224,146.483 0.112,146.406 0,146.33" style="fill:rgb(89,130,131);fill-rule:nonzero;"/>
            </g>
        </g>
        <g transform="matrix(0.538323,0,0,0.538323,300.102,347.155)">
            <g transform="matrix(2.24205,0,0,2.24205,823.3,575.15)">
                <path d="M0,154.615C-20.65,175.265 -48.105,186.637 -77.308,186.637C-106.511,186.637 -133.966,175.265 -154.615,154.615C-175.265,133.966 -186.637,106.511 -186.637,77.308C-186.637,48.105 -175.265,20.65 -154.616,0C-133.966,-20.649 -106.511,-32.022 -77.308,-32.022C-48.105,-32.022 -20.649,-20.649 0,0C20.65,20.65 32.022,48.105 32.022,77.308C32.022,106.51 20.65,133.965 0,154.615M0.86,-0.86C-20.019,-21.739 -47.78,-33.238 -77.308,-33.238C-106.835,-33.238 -134.596,-21.739 -155.475,-0.86C-176.354,20.019 -187.853,47.78 -187.853,77.308C-187.853,106.835 -176.354,134.596 -155.475,155.475C-134.596,176.354 -106.835,187.853 -77.308,187.853C-47.78,187.853 -20.02,176.354 0.86,155.475C21.739,134.596 33.237,106.835 33.237,77.308C33.237,47.78 21.739,20.02 0.86,-0.86" style="fill:rgb(78,117,116);fill-rule:nonzero;"/>
            </g>
        </g>
        <g transform="matrix(0.538323,0,0,0.538323,300.102,347.155)">
            <g transform="matrix(-1.24839,1.86234,1.86234,1.24839,636.597,783.116)">
                <path d="M-49.347,-26.329L14.048,-26.33L-1.792,-9.154L8.966,-24.162L-49.347,-26.329Z" style="fill:white;fill-rule:nonzero;"/>
            </g>
        </g>
        <g transform="matrix(0.538323,0,0,0.538323,300.102,347.155)">
            <g transform="matrix(1.32477,-1.8088,-1.8088,-1.32477,707.365,840.009)">
                <path d="M-13.102,25.837L50.948,25.837L34.091,42.636L45.963,28.217L-13.102,25.837Z" style="fill:white;fill-rule:nonzero;"/>
            </g>
        </g>
    </g>
    <defs>
        <linearGradient id="_Linear1" x1="0" y1="0" x2="1" y2="0" gradientUnits="userSpaceOnUse" gradientTransform="matrix(1,0,0,-1,0,0.0027541)"><stop offset="0" style="stop-color:rgb(250,186,46);stop-opacity:1"/><stop offset="1" style="stop-color:rgb(250,169,25);stop-opacity:1"/></linearGradient>
        <linearGradient id="_Linear2" x1="0" y1="0" x2="1" y2="0" gradientUnits="userSpaceOnUse" gradientTransform="matrix(1,0,0,-1,0,-2.39766e-06)"><stop offset="0" style="stop-color:rgb(250,186,46);stop-opacity:1"/><stop offset="1" style="stop-color:rgb(250,169,25);stop-opacity:1"/></linearGradient>
    </defs>
</svg>
